<?xml version="1.0" encoding="UTF-8"?>
<!DOCTYPE svg PUBLIC "-//W3C//DTD SVG 1.1//EN" "http://www.w3.org/Graphics/SVG/1.1/DTD/svg11.dtd">
<svg xmlns="http://www.w3.org/2000/svg" version="1.1" width="158px" height="191px" style="shape-rendering:geometricPrecision; text-rendering:geometricPrecision; image-rendering:optimizeQuality; fill-rule:evenodd; clip-rule:evenodd" xmlns:xlink="http://www.w3.org/1999/xlink">
<g><path style="opacity:1" fill="#2291e1" d="M 110.5,-0.5 C 121.5,-0.5 132.5,-0.5 143.5,-0.5C 149.249,1.88957 153.582,5.88957 156.5,11.5C 146.895,10.1263 137.228,9.45964 127.5,9.5C 123.979,8.62882 120.312,7.79549 116.5,7C 115.663,5.98873 115.33,4.82207 115.5,3.5C 112.834,3.06704 110.168,2.56704 107.5,2C 108.942,1.62325 109.942,0.789915 110.5,-0.5 Z"/></g>
<g><path style="opacity:1" fill="#2890e1" d="M 13.5,-0.5 C 26.8333,-0.5 40.1667,-0.5 53.5,-0.5C 52.9717,0.847364 52.805,2.1807 53,3.5C 55.7175,5.72143 58.2175,8.05476 60.5,10.5C 59.1667,10.5 57.8333,10.5 56.5,10.5C 55.1667,10.5 53.8333,10.5 52.5,10.5C 52.2289,12.8211 52.8955,14.8211 54.5,16.5C 49.8687,17.6616 45.202,17.8283 40.5,17C 33.9349,13.1062 26.9349,11.6062 19.5,12.5C 18.7542,11.2638 18.4208,9.93047 18.5,8.5C 16.2655,8.61986 14.0989,8.28652 12,7.5C 10.5659,7.93042 9.39925,8.76375 8.5,10C 7.20677,10.49 5.87344,10.6567 4.5,10.5C 3.5,10.5 2.5,10.5 1.5,10.5C 4.22628,5.44024 8.22628,1.77358 13.5,-0.5 Z"/></g>
<g><path style="opacity:1" fill="#57a5ee" d="M 53.5,-0.5 C 72.5,-0.5 91.5,-0.5 110.5,-0.5C 109.942,0.789915 108.942,1.62325 107.5,2C 110.168,2.56704 112.834,3.06704 115.5,3.5C 115.33,4.82207 115.663,5.98873 116.5,7C 120.312,7.79549 123.979,8.62882 127.5,9.5C 125.833,9.5 124.167,9.5 122.5,9.5C 122.5,10.5 122.5,11.5 122.5,12.5C 121.178,12.67 120.011,12.3366 119,11.5C 118.536,12.0944 118.369,12.7611 118.5,13.5C 117.022,13.762 115.689,13.4287 114.5,12.5C 115.819,10.4684 115.819,8.46837 114.5,6.5C 111.679,4.28781 108.345,3.28781 104.5,3.5C 104.5,2.5 104.5,1.5 104.5,0.5C 101.927,0.148491 99.5938,0.648491 97.5,2C 98.8333,2.33333 100.167,2.66667 101.5,3C 100.138,5.4388 98.305,5.9388 96,4.5C 92.7884,5.69202 89.955,7.35869 87.5,9.5C 85.8651,9.12229 84.3651,8.45563 83,7.5C 81.9412,7.63008 81.1079,8.13008 80.5,9C 73.8363,9.6109 67.1697,10.1109 60.5,10.5C 58.2175,8.05476 55.7175,5.72143 53,3.5C 52.805,2.1807 52.9717,0.847364 53.5,-0.5 Z"/></g>
<g><path style="opacity:1" fill="#7dbaf7" d="M 114.5,6.5 C 110.973,8.42955 107.306,10.0962 103.5,11.5C 88.8357,10.7853 74.1691,11.1186 59.5,12.5C 61.5,13.3333 63.5,14.1667 65.5,15C 63.6061,16.1011 62.9394,17.4345 63.5,19C 59.789,19.1747 56.1224,19.6747 52.5,20.5C 53.3482,22.4086 53.6816,24.4086 53.5,26.5C 47.5353,25.5743 41.5353,24.9076 35.5,24.5C 32.6864,22.857 29.6864,21.357 26.5,20C 20.2488,20.3232 14.5822,18.8232 9.5,15.5C 6.36578,14.5564 3.03244,14.5564 -0.5,15.5C -0.5,14.8333 -0.5,14.1667 -0.5,13.5C 0.166667,12.5 0.833333,11.5 1.5,10.5C 2.5,10.5 3.5,10.5 4.5,10.5C 18.5724,14.4938 33.0724,17.1605 48,18.5C 51.1667,18.3333 54.3333,18.1667 57.5,18C 58.0585,17.2753 58.3918,16.4419 58.5,15.5C 57.8131,13.8228 57.1465,12.1561 56.5,10.5C 57.8333,10.5 59.1667,10.5 60.5,10.5C 67.1697,10.1109 73.8363,9.6109 80.5,9C 81.1079,8.13008 81.9412,7.63008 83,7.5C 84.3651,8.45563 85.8651,9.12229 87.5,9.5C 89.955,7.35869 92.7884,5.69202 96,4.5C 98.305,5.9388 100.138,5.4388 101.5,3C 100.167,2.66667 98.8333,2.33333 97.5,2C 99.5938,0.648491 101.927,0.148491 104.5,0.5C 104.5,1.5 104.5,2.5 104.5,3.5C 108.345,3.28781 111.679,4.28781 114.5,6.5 Z"/></g>
<g><path style="opacity:1" fill="#76b8f4" d="M 127.5,9.5 C 137.228,9.45964 146.895,10.1263 156.5,11.5C 156.328,12.4916 156.662,13.1583 157.5,13.5C 157.5,14.8333 157.5,16.1667 157.5,17.5C 154.844,18.158 152.178,18.8246 149.5,19.5C 147.579,19.1397 145.912,18.3064 144.5,17C 146.305,16.028 147.972,14.8613 149.5,13.5C 144.282,12.811 139.116,12.1443 134,11.5C 133.283,12.0442 132.783,12.7109 132.5,13.5C 128.833,13.5 125.167,13.5 121.5,13.5C 120.5,13.5 119.5,13.5 118.5,13.5C 118.369,12.7611 118.536,12.0944 119,11.5C 120.011,12.3366 121.178,12.67 122.5,12.5C 122.5,11.5 122.5,10.5 122.5,9.5C 124.167,9.5 125.833,9.5 127.5,9.5 Z"/></g>
<g><path style="opacity:1" fill="#5ca7ef" d="M 56.5,10.5 C 57.1465,12.1561 57.8131,13.8228 58.5,15.5C 58.3918,16.4419 58.0585,17.2753 57.5,18C 54.3333,18.1667 51.1667,18.3333 48,18.5C 33.0724,17.1605 18.5724,14.4938 4.5,10.5C 5.87344,10.6567 7.20677,10.49 8.5,10C 9.39925,8.76375 10.5659,7.93042 12,7.5C 14.0989,8.28652 16.2655,8.61986 18.5,8.5C 18.4208,9.93047 18.7542,11.2638 19.5,12.5C 26.9349,11.6062 33.9349,13.1062 40.5,17C 45.202,17.8283 49.8687,17.6616 54.5,16.5C 52.8955,14.8211 52.2289,12.8211 52.5,10.5C 53.8333,10.5 55.1667,10.5 56.5,10.5 Z"/></g>
<g><path style="opacity:1" fill="#b8dcfd" d="M 157.5,17.5 C 157.5,18.1667 157.5,18.8333 157.5,19.5C 154.607,21.8849 151.44,22.5516 148,21.5C 140.42,23.0287 132.753,24.0287 125,24.5C 123.105,24.3852 121.438,23.7185 120,22.5C 115.836,23.1966 111.67,23.8632 107.5,24.5C 107.191,21.6545 105.525,20.1545 102.5,20C 97.4671,19.829 92.4671,19.329 87.5,18.5C 88.8181,15.7548 90.9848,14.0881 94,13.5C 94.49,14.7932 94.6567,16.1266 94.5,17.5C 99.5808,18.4361 104.414,18.1028 109,16.5C 110.711,16.4393 112.044,17.1059 113,18.5C 113.833,17.6667 114.667,16.8333 115.5,16C 119.177,15.282 122.843,14.9486 126.5,15C 126.167,15.3333 125.833,15.6667 125.5,16C 126.191,17.0674 126.691,18.2341 127,19.5C 127.667,18.1667 128.333,18.1667 129,19.5C 130.077,17.4222 131.243,15.4222 132.5,13.5C 132.783,12.7109 133.283,12.0442 134,11.5C 139.116,12.1443 144.282,12.811 149.5,13.5C 147.972,14.8613 146.305,16.028 144.5,17C 145.912,18.3064 147.579,19.1397 149.5,19.5C 152.178,18.8246 154.844,18.158 157.5,17.5 Z"/></g>
<g><path style="opacity:1" fill="#9ecefc" d="M 114.5,6.5 C 115.819,8.46837 115.819,10.4684 114.5,12.5C 115.689,13.4287 117.022,13.762 118.5,13.5C 119.5,13.5 120.5,13.5 121.5,13.5C 117.206,14.6025 112.706,15.2692 108,15.5C 104.178,13.5826 100.511,13.5826 97,15.5C 96.5,15.1667 96,14.8333 95.5,14.5C 100.908,12.7998 100.742,11.7998 95,11.5C 85.159,11.6795 76.659,15.0129 69.5,21.5C 68.6433,22.7357 67.9766,24.069 67.5,25.5C 71.1224,26.3253 74.789,26.8253 78.5,27C 77.3659,28.016 77.6992,28.6827 79.5,29C 77.3921,29.3599 75.3921,30.0266 73.5,31C 74.6226,32.0437 75.9559,32.7104 77.5,33C 75.3225,34.2022 72.9892,34.7022 70.5,34.5C 70.1667,34.5 69.8333,34.5 69.5,34.5C 67.1155,34.4433 64.7822,34.7766 62.5,35.5C 61.8333,35.1667 61.1667,34.8333 60.5,34.5C 61.7287,33.7189 63.062,33.2189 64.5,33C 58.4865,31.5675 52.6532,29.7341 47,27.5C 43.6084,29.9792 40.2751,29.9792 37,27.5C 36.228,27.6448 35.5613,27.9781 35,28.5C 34.805,27.1807 34.9717,25.8474 35.5,24.5C 41.5353,24.9076 47.5353,25.5743 53.5,26.5C 53.6816,24.4086 53.3482,22.4086 52.5,20.5C 56.1224,19.6747 59.789,19.1747 63.5,19C 62.9394,17.4345 63.6061,16.1011 65.5,15C 63.5,14.1667 61.5,13.3333 59.5,12.5C 74.1691,11.1186 88.8357,10.7853 103.5,11.5C 107.306,10.0962 110.973,8.42955 114.5,6.5 Z"/></g>
<g><path style="opacity:1" fill="#b0d8fd" d="M 121.5,13.5 C 125.167,13.5 128.833,13.5 132.5,13.5C 131.243,15.4222 130.077,17.4222 129,19.5C 128.333,18.1667 127.667,18.1667 127,19.5C 126.691,18.2341 126.191,17.0674 125.5,16C 125.833,15.6667 126.167,15.3333 126.5,15C 122.843,14.9486 119.177,15.282 115.5,16C 114.667,16.8333 113.833,17.6667 113,18.5C 112.044,17.1059 110.711,16.4393 109,16.5C 104.414,18.1028 99.5808,18.4361 94.5,17.5C 94.6567,16.1266 94.49,14.7932 94,13.5C 90.9848,14.0881 88.8181,15.7548 87.5,18.5C 92.4671,19.329 97.4671,19.829 102.5,20C 105.525,20.1545 107.191,21.6545 107.5,24.5C 103.858,25.0804 100.191,25.5804 96.5,26C 95.5868,27.4139 95.5868,28.9139 96.5,30.5C 92.5048,29.8827 89.1715,31.0494 86.5,34C 87.056,34.3826 87.3893,34.8826 87.5,35.5C 86.2003,34.8921 84.8669,34.2255 83.5,33.5C 79.1516,35.5438 74.8183,35.8771 70.5,34.5C 72.9892,34.7022 75.3225,34.2022 77.5,33C 75.9559,32.7104 74.6226,32.0437 73.5,31C 75.3921,30.0266 77.3921,29.3599 79.5,29C 77.6992,28.6827 77.3659,28.016 78.5,27C 74.789,26.8253 71.1224,26.3253 67.5,25.5C 67.9766,24.069 68.6433,22.7357 69.5,21.5C 76.659,15.0129 85.159,11.6795 95,11.5C 100.742,11.7998 100.908,12.7998 95.5,14.5C 96,14.8333 96.5,15.1667 97,15.5C 100.511,13.5826 104.178,13.5826 108,15.5C 112.706,15.2692 117.206,14.6025 121.5,13.5 Z"/></g>
<g><path style="opacity:1" fill="#d1ebfd" d="M 157.5,19.5 C 157.5,22.5 157.5,25.5 157.5,28.5C 156.85,28.1961 156.183,27.8627 155.5,27.5C 154.276,28.7662 152.943,29.9328 151.5,31C 146.087,32.0199 140.754,33.3532 135.5,35C 134.354,35.6449 133.354,36.4783 132.5,37.5C 128.395,36.6073 124.062,37.1073 119.5,39C 114.192,39.8303 108.859,40.3303 103.5,40.5C 106.209,38.616 109.375,37.2827 113,36.5C 115.339,38.9585 117.839,39.1252 120.5,37C 118.833,36.6667 117.167,36.3333 115.5,36C 116.888,35.1107 116.722,34.6107 115,34.5C 111.908,36.0459 109.075,35.7126 106.5,33.5C 106.709,32.914 107.043,32.414 107.5,32C 105.709,31.5848 104.376,30.5848 103.5,29C 101.741,28.2025 100.074,28.3691 98.5,29.5C 99.4563,31.6996 98.7896,32.0329 96.5,30.5C 95.5868,28.9139 95.5868,27.4139 96.5,26C 100.191,25.5804 103.858,25.0804 107.5,24.5C 111.67,23.8632 115.836,23.1966 120,22.5C 121.438,23.7185 123.105,24.3852 125,24.5C 132.753,24.0287 140.42,23.0287 148,21.5C 151.44,22.5516 154.607,21.8849 157.5,19.5 Z"/></g>
<g><path style="opacity:1" fill="#e3f5fd" d="M 157.5,28.5 C 157.5,31.1667 157.5,33.8333 157.5,36.5C 154.548,37.9831 151.381,38.9831 148,39.5C 146.667,38.8333 145.333,38.1667 144,37.5C 141.484,38.7728 138.984,38.7728 136.5,37.5C 135.719,38.7366 134.719,39.7366 133.5,40.5C 130.579,39.5934 127.579,39.2601 124.5,39.5C 124.5,40.5 124.5,41.5 124.5,42.5C 129.821,42.1797 134.988,41.8464 140,41.5C 140.333,42.1667 140.667,42.8333 141,43.5C 141.689,42.6433 142.522,41.9767 143.5,41.5C 144.967,42.6953 146.467,42.6953 148,41.5C 151.088,42.9909 153.922,44.1576 156.5,45C 152.291,46.6354 147.958,47.8021 143.5,48.5C 140.201,48.262 137.201,47.262 134.5,45.5C 134.704,46.5294 134.204,47.5294 133,48.5C 126.345,47.4452 119.845,48.2786 113.5,51C 105.916,51.0443 98.416,50.8776 91,50.5C 87.1355,51.0907 83.6355,51.924 80.5,53C 81.3757,54.5848 82.7091,55.5848 84.5,56C 91.4921,56.4996 98.4921,56.6663 105.5,56.5C 101.347,57.1657 97.0134,57.4991 92.5,57.5C 80.8589,56.29 69.1922,55.6233 57.5,55.5C 58.0283,54.2794 58.695,53.1127 59.5,52C 56.023,49.1074 53.1897,49.2741 51,52.5C 50.805,51.1807 50.9717,49.8474 51.5,48.5C 53.4672,48.7394 55.3005,48.4061 57,47.5C 59.459,50.1003 61.959,50.1003 64.5,47.5C 65.6226,48.5437 66.9559,49.2104 68.5,49.5C 71.4415,49.1462 74.2748,48.4795 77,47.5C 79.0781,49.3847 81.2447,50.0514 83.5,49.5C 80.2729,48.455 78.4395,46.455 78,43.5C 78.3333,43.1667 78.6667,42.8333 79,42.5C 80.8267,44.8562 82.9934,45.5229 85.5,44.5C 85.7884,47.1038 87.1217,48.7704 89.5,49.5C 92.8237,47.842 96.8237,46.1753 101.5,44.5C 102.246,43.2638 102.579,41.9305 102.5,40.5C 102.833,40.5 103.167,40.5 103.5,40.5C 108.859,40.3303 114.192,39.8303 119.5,39C 124.062,37.1073 128.395,36.6073 132.5,37.5C 133.354,36.4783 134.354,35.6449 135.5,35C 140.754,33.3532 146.087,32.0199 151.5,31C 152.943,29.9328 154.276,28.7662 155.5,27.5C 156.183,27.8627 156.85,28.1961 157.5,28.5 Z"/></g>
<g><path style="opacity:1" fill="#b0d9fd" d="M 35.5,24.5 C 34.9717,25.8474 34.805,27.1807 35,28.5C 35.5613,27.9781 36.228,27.6448 37,27.5C 40.2751,29.9792 43.6084,29.9792 47,27.5C 52.6532,29.7341 58.4865,31.5675 64.5,33C 63.062,33.2189 61.7287,33.7189 60.5,34.5C 61.1667,34.8333 61.8333,35.1667 62.5,35.5C 64.7822,34.7766 67.1155,34.4433 69.5,34.5C 64.3295,36.8445 58.9961,37.0112 53.5,35C 54.938,34.7811 56.2713,34.2811 57.5,33.5C 56.9747,32.8076 56.3081,32.3076 55.5,32C 48.2258,30.9317 41.2258,31.4317 34.5,33.5C 33.4729,30.7396 31.6396,30.0729 29,31.5C 24.0573,29.5053 18.8907,28.3386 13.5,28C 8.69093,25.9945 4.02427,23.8279 -0.5,21.5C -0.5,19.5 -0.5,17.5 -0.5,15.5C 3.03244,14.5564 6.36578,14.5564 9.5,15.5C 14.5822,18.8232 20.2488,20.3232 26.5,20C 29.6864,21.357 32.6864,22.857 35.5,24.5 Z"/></g>
<g><path style="opacity:1" fill="#e3f9fd" d="M -0.5,32.5 C 2.89762,32.9072 6.06429,33.9072 9,35.5C 9.41395,35.0426 9.91395,34.7093 10.5,34.5C 12.3761,35.8754 14.3761,37.042 16.5,38C 14.8078,39.4007 14.1412,41.2341 14.5,43.5C 16.451,43.2267 17.951,43.8934 19,45.5C 19.9138,44.3463 20.7471,44.513 21.5,46C 17.5,46.6667 17.5,47.3333 21.5,48C 23.8991,48.711 26.2324,48.5443 28.5,47.5C 29.6309,49.0745 29.7975,50.7412 29,52.5C 27.513,51.7471 27.3463,50.9138 28.5,50C 27.175,50.1484 26.0084,49.9817 25,49.5C 24.5,50 24,50.5 23.5,51C 20.1667,51.3333 16.8333,51.6667 13.5,52C 17.1882,53.3812 16.8548,54.5478 12.5,55.5C 10.7295,54.9646 10.3961,54.1313 11.5,53C 10.6667,52.8333 9.83333,52.6667 9,52.5C 5.98597,54.4711 2.8193,54.8045 -0.5,53.5C -0.5,46.5 -0.5,39.5 -0.5,32.5 Z"/></g>
<g><path style="opacity:1" fill="#c8e6fd" d="M 69.5,34.5 C 69.8333,34.5 70.1667,34.5 70.5,34.5C 74.8183,35.8771 79.1516,35.5438 83.5,33.5C 84.8669,34.2255 86.2003,34.8921 87.5,35.5C 87.6107,36.1174 87.944,36.6174 88.5,37C 86.3807,37.0976 84.714,37.9309 83.5,39.5C 85.6641,40.4143 87.6641,41.581 89.5,43C 90.8333,43.6667 90.8333,44.3333 89.5,45C 93.2161,43.5129 97.2161,42.5129 101.5,42C 100.16,39.8215 100.493,39.3215 102.5,40.5C 102.579,41.9305 102.246,43.2638 101.5,44.5C 96.8237,46.1753 92.8237,47.842 89.5,49.5C 87.1217,48.7704 85.7884,47.1038 85.5,44.5C 85.5,43.5 85.5,42.5 85.5,41.5C 83.4205,40.9556 81.4205,40.1223 79.5,39C 79.8333,38.6667 80.1667,38.3333 80.5,38C 79.1667,37.8333 77.8333,37.6667 76.5,37.5C 72.1762,39.1193 68.0096,40.4526 64,41.5C 61.7729,39.1795 59.2729,38.8462 56.5,40.5C 53.1438,40.346 50.4771,39.0126 48.5,36.5C 46.4011,38.5342 44.0677,38.8676 41.5,37.5C 42.7708,35.1713 44.7708,34.0047 47.5,34C 42.9279,33.6744 38.5945,33.5078 34.5,33.5C 41.2258,31.4317 48.2258,30.9317 55.5,32C 56.3081,32.3076 56.9747,32.8076 57.5,33.5C 56.2713,34.2811 54.938,34.7811 53.5,35C 58.9961,37.0112 64.3295,36.8445 69.5,34.5 Z"/></g>
<g><path style="opacity:1" fill="#9fcffc" d="M 103.5,40.5 C 103.167,40.5 102.833,40.5 102.5,40.5C 100.493,39.3215 100.16,39.8215 101.5,42C 97.2161,42.5129 93.2161,43.5129 89.5,45C 90.8333,44.3333 90.8333,43.6667 89.5,43C 87.6641,41.581 85.6641,40.4143 83.5,39.5C 84.714,37.9309 86.3807,37.0976 88.5,37C 87.944,36.6174 87.6107,36.1174 87.5,35.5C 87.3893,34.8826 87.056,34.3826 86.5,34C 89.1715,31.0494 92.5048,29.8827 96.5,30.5C 98.7896,32.0329 99.4563,31.6996 98.5,29.5C 100.074,28.3691 101.741,28.2025 103.5,29C 104.376,30.5848 105.709,31.5848 107.5,32C 107.043,32.414 106.709,32.914 106.5,33.5C 109.075,35.7126 111.908,36.0459 115,34.5C 116.722,34.6107 116.888,35.1107 115.5,36C 117.167,36.3333 118.833,36.6667 120.5,37C 117.839,39.1252 115.339,38.9585 113,36.5C 109.375,37.2827 106.209,38.616 103.5,40.5 Z"/></g>
<g><path style="opacity:1" fill="#d7f1fd" d="M -0.5,21.5 C 4.02427,23.8279 8.69093,25.9945 13.5,28C 18.8907,28.3386 24.0573,29.5053 29,31.5C 31.6396,30.0729 33.4729,30.7396 34.5,33.5C 38.5945,33.5078 42.9279,33.6744 47.5,34C 44.7708,34.0047 42.7708,35.1713 41.5,37.5C 44.0677,38.8676 46.4011,38.5342 48.5,36.5C 50.4771,39.0126 53.1438,40.346 56.5,40.5C 59.2729,38.8462 61.7729,39.1795 64,41.5C 68.0096,40.4526 72.1762,39.1193 76.5,37.5C 77.8333,37.6667 79.1667,37.8333 80.5,38C 80.1667,38.3333 79.8333,38.6667 79.5,39C 81.4205,40.1223 83.4205,40.9556 85.5,41.5C 85.5,42.5 85.5,43.5 85.5,44.5C 82.9934,45.5229 80.8267,44.8562 79,42.5C 78.6667,42.8333 78.3333,43.1667 78,43.5C 78.4395,46.455 80.2729,48.455 83.5,49.5C 81.2447,50.0514 79.0781,49.3847 77,47.5C 74.2748,48.4795 71.4415,49.1462 68.5,49.5C 66.9559,49.2104 65.6226,48.5437 64.5,47.5C 61.959,50.1003 59.459,50.1003 57,47.5C 55.3005,48.4061 53.4672,48.7394 51.5,48.5C 50.259,45.995 51.259,44.495 54.5,44C 52.4328,43.4644 50.5994,43.9644 49,45.5C 48.3333,44.8333 47.6667,44.1667 47,43.5C 45.6439,44.3802 44.1439,44.7135 42.5,44.5C 42.5,43.5 42.5,42.5 42.5,41.5C 44.288,41.7852 45.9547,41.4519 47.5,40.5C 44.4074,40.0019 41.5741,39.0019 39,37.5C 38.6667,37.8333 38.3333,38.1667 38,38.5C 35.2823,37.009 32.449,35.6756 29.5,34.5C 24.9583,35.6204 20.625,34.9538 16.5,32.5C 15.914,32.7093 15.414,33.0426 15,33.5C 12.8316,31.5455 10.4983,30.8788 8,31.5C 7.66667,30.8333 7.33333,30.1667 7,29.5C 4.71157,29.7375 2.21157,29.7375 -0.5,29.5C -0.5,26.8333 -0.5,24.1667 -0.5,21.5 Z"/></g>
<g><path style="opacity:1" fill="#e0f6fd" d="M -0.5,29.5 C 2.21157,29.7375 4.71157,29.7375 7,29.5C 7.33333,30.1667 7.66667,30.8333 8,31.5C 10.4983,30.8788 12.8316,31.5455 15,33.5C 15.414,33.0426 15.914,32.7093 16.5,32.5C 20.625,34.9538 24.9583,35.6204 29.5,34.5C 32.449,35.6756 35.2823,37.009 38,38.5C 38.3333,38.1667 38.6667,37.8333 39,37.5C 41.5741,39.0019 44.4074,40.0019 47.5,40.5C 45.9547,41.4519 44.288,41.7852 42.5,41.5C 42.5,42.5 42.5,43.5 42.5,44.5C 44.1439,44.7135 45.6439,44.3802 47,43.5C 47.6667,44.1667 48.3333,44.8333 49,45.5C 50.5994,43.9644 52.4328,43.4644 54.5,44C 51.259,44.495 50.259,45.995 51.5,48.5C 50.9717,49.8474 50.805,51.1807 51,52.5C 53.1897,49.2741 56.023,49.1074 59.5,52C 58.695,53.1127 58.0283,54.2794 57.5,55.5C 55.549,55.2267 54.049,55.8934 53,57.5C 49.5344,56.798 46.0344,56.1313 42.5,55.5C 36.5764,55.563 30.743,55.563 25,55.5C 23.1741,57.0738 21.0075,57.9071 18.5,58C 17.7433,59.5122 16.7433,60.8455 15.5,62C 10.1456,62.3905 4.81231,62.8905 -0.5,63.5C -0.5,60.1667 -0.5,56.8333 -0.5,53.5C 2.8193,54.8045 5.98597,54.4711 9,52.5C 9.83333,52.6667 10.6667,52.8333 11.5,53C 10.3961,54.1313 10.7295,54.9646 12.5,55.5C 16.8548,54.5478 17.1882,53.3812 13.5,52C 16.8333,51.6667 20.1667,51.3333 23.5,51C 24,50.5 24.5,50 25,49.5C 26.0084,49.9817 27.175,50.1484 28.5,50C 27.3463,50.9138 27.513,51.7471 29,52.5C 29.7975,50.7412 29.6309,49.0745 28.5,47.5C 26.2324,48.5443 23.8991,48.711 21.5,48C 17.5,47.3333 17.5,46.6667 21.5,46C 20.7471,44.513 19.9138,44.3463 19,45.5C 17.951,43.8934 16.451,43.2267 14.5,43.5C 14.1412,41.2341 14.8078,39.4007 16.5,38C 14.3761,37.042 12.3761,35.8754 10.5,34.5C 9.91395,34.7093 9.41395,35.0426 9,35.5C 6.06429,33.9072 2.89762,32.9072 -0.5,32.5C -0.5,31.5 -0.5,30.5 -0.5,29.5 Z"/></g>
<g><path style="opacity:1" fill="#ecfafe" d="M 157.5,36.5 C 157.5,44.5 157.5,52.5 157.5,60.5C 150.341,58.6555 143.008,57.9888 135.5,58.5C 131.141,56.6936 126.474,55.6936 121.5,55.5C 116.162,55.8343 110.828,56.1676 105.5,56.5C 98.4921,56.6663 91.4921,56.4996 84.5,56C 82.7091,55.5848 81.3757,54.5848 80.5,53C 83.6355,51.924 87.1355,51.0907 91,50.5C 98.416,50.8776 105.916,51.0443 113.5,51C 119.845,48.2786 126.345,47.4452 133,48.5C 134.204,47.5294 134.704,46.5294 134.5,45.5C 137.201,47.262 140.201,48.262 143.5,48.5C 147.958,47.8021 152.291,46.6354 156.5,45C 153.922,44.1576 151.088,42.9909 148,41.5C 146.467,42.6953 144.967,42.6953 143.5,41.5C 142.522,41.9767 141.689,42.6433 141,43.5C 140.667,42.8333 140.333,42.1667 140,41.5C 134.988,41.8464 129.821,42.1797 124.5,42.5C 124.5,41.5 124.5,40.5 124.5,39.5C 127.579,39.2601 130.579,39.5934 133.5,40.5C 134.719,39.7366 135.719,38.7366 136.5,37.5C 138.984,38.7728 141.484,38.7728 144,37.5C 145.333,38.1667 146.667,38.8333 148,39.5C 151.381,38.9831 154.548,37.9831 157.5,36.5 Z"/></g>
<g><path style="opacity:1" fill="#cfeafb" d="M 57.5,55.5 C 69.1922,55.6233 80.8589,56.29 92.5,57.5C 97.0134,57.4991 101.347,57.1657 105.5,56.5C 110.828,56.1676 116.162,55.8343 121.5,55.5C 126.474,55.6936 131.141,56.6936 135.5,58.5C 98.6629,58.1682 61.9962,58.5015 25.5,59.5C 18.9988,61.7779 12.6655,64.4445 6.5,67.5C 3.70516,68.063 1.37183,69.3963 -0.5,71.5C -0.5,68.8333 -0.5,66.1667 -0.5,63.5C 4.81231,62.8905 10.1456,62.3905 15.5,62C 16.7433,60.8455 17.7433,59.5122 18.5,58C 21.0075,57.9071 23.1741,57.0738 25,55.5C 30.743,55.563 36.5764,55.563 42.5,55.5C 46.0344,56.1313 49.5344,56.798 53,57.5C 54.049,55.8934 55.549,55.2267 57.5,55.5 Z"/></g>
<g><path style="opacity:1" fill="#4f4b54" d="M 98.5,68.5 C 98.1667,69.1667 97.8333,69.8333 97.5,70.5C 90.8947,74.1124 84.5614,78.1124 78.5,82.5C 79.9525,79.0137 80.6192,75.347 80.5,71.5C 80.5858,70.5041 80.2524,69.6708 79.5,69C 74.9059,66.8816 70.9059,64.0483 67.5,60.5C 70.9758,59.3567 74.6425,59.1901 78.5,60C 77.8333,61.6667 77.1667,63.3333 76.5,65C 77.635,65.7494 78.635,65.5827 79.5,64.5C 78.1667,63.1667 78.1667,61.8333 79.5,60.5C 88.6502,59.7199 97.6502,59.7199 106.5,60.5C 104.761,60.5938 102.761,60.7605 100.5,61C 99.1667,62 99.1667,63 100.5,64C 99.2396,65.113 98.073,65.2797 97,64.5C 96.6824,66.0609 95.8491,67.2276 94.5,68C 95.7932,68.49 97.1266,68.6567 98.5,68.5 Z"/></g>
<g><path style="opacity:1" fill="#514c56" d="M 25.5,59.5 C 39.3435,59.171 53.0102,59.5043 66.5,60.5C 63.3929,61.5527 60.3929,62.886 57.5,64.5C 52.8274,63.5036 47.994,63.5036 43,64.5C 42.6924,63.6919 42.1924,63.0253 41.5,62.5C 39.2534,63.3742 36.9201,63.7076 34.5,63.5C 30.1216,63.6295 25.9549,63.6295 22,63.5C 21.342,65.108 21.842,66.2747 23.5,67C 22.8333,67.3333 22.1667,67.6667 21.5,68C 23.4552,68.9533 25.1218,70.2866 26.5,72C 26.1667,72.3333 25.8333,72.6667 25.5,73C 29.1099,74.944 32.4432,77.2774 35.5,80C 34.175,79.8516 33.0084,80.0183 32,80.5C 31.1667,79.5 30.3333,78.5 29.5,77.5C 28.5745,78.6405 27.7412,78.6405 27,77.5C 26.5172,78.448 26.3505,79.448 26.5,80.5C 19.4557,76.6511 12.789,72.3178 6.5,67.5C 12.6655,64.4445 18.9988,61.7779 25.5,59.5 Z"/></g>
<g><path style="opacity:1" fill="#474048" d="M 57.5,64.5 C 55.1862,66.4773 52.8528,68.4773 50.5,70.5C 51.325,71.3857 52.325,71.719 53.5,71.5C 54.4816,74.9619 54.815,78.6286 54.5,82.5C 59.813,81.9022 65.1463,81.5688 70.5,81.5C 71.0906,82.1515 71.7573,82.8182 72.5,83.5C 69.706,85.7226 67.0393,85.7226 64.5,83.5C 60.7397,84.2505 57.2397,84.5838 54,84.5C 51.5618,82.2426 48.7284,80.576 45.5,79.5C 43.653,80.1859 41.9863,81.1859 40.5,82.5C 38.853,81.7224 37.5196,80.5557 36.5,79C 37.3081,78.6924 37.9747,78.1924 38.5,77.5C 37.7376,77.0894 36.7376,76.9227 35.5,77C 36.8333,76.3333 36.8333,75.6667 35.5,75C 38.5535,74.8214 41.5535,74.3214 44.5,73.5C 44.3333,73.1667 44.1667,72.8333 44,72.5C 41.7658,72.3737 39.4324,72.7071 37,73.5C 35.2663,72.7511 33.433,72.2511 31.5,72C 32.448,71.5172 33.448,71.3505 34.5,71.5C 34.3601,69.8762 35.0267,68.7096 36.5,68C 34.3807,67.9024 32.714,67.0691 31.5,65.5C 32.7808,65.9839 33.7808,65.3173 34.5,63.5C 36.9201,63.7076 39.2534,63.3742 41.5,62.5C 42.1924,63.0253 42.6924,63.6919 43,64.5C 47.994,63.5036 52.8274,63.5036 57.5,64.5 Z"/></g>
<g><path style="opacity:1" fill="#454758" d="M 25.5,59.5 C 61.9962,58.5015 98.6629,58.1682 135.5,58.5C 143.008,57.9888 150.341,58.6555 157.5,60.5C 157.5,64.1667 157.5,67.8333 157.5,71.5C 153.116,71.1744 148.783,71.5078 144.5,72.5C 144.855,73.5223 145.522,74.189 146.5,74.5C 146.5,75.1667 146.5,75.8333 146.5,76.5C 143.871,75.8713 142.204,74.2046 141.5,71.5C 139.459,70.7643 137.459,69.9309 135.5,69C 123.171,68.5001 110.838,68.3335 98.5,68.5C 97.1266,68.6567 95.7932,68.49 94.5,68C 95.8491,67.2276 96.6824,66.0609 97,64.5C 98.073,65.2797 99.2396,65.113 100.5,64C 99.1667,63 99.1667,62 100.5,61C 102.761,60.7605 104.761,60.5938 106.5,60.5C 97.6502,59.7199 88.6502,59.7199 79.5,60.5C 78.1667,61.8333 78.1667,63.1667 79.5,64.5C 78.635,65.5827 77.635,65.7494 76.5,65C 77.1667,63.3333 77.8333,61.6667 78.5,60C 74.6425,59.1901 70.9758,59.3567 67.5,60.5C 67.1667,60.5 66.8333,60.5 66.5,60.5C 53.0102,59.5043 39.3435,59.171 25.5,59.5 Z"/></g>
<g><path style="opacity:1" fill="#9a9089" d="M 66.5,60.5 C 66.8333,60.5 67.1667,60.5 67.5,60.5C 70.9059,64.0483 74.9059,66.8816 79.5,69C 80.2524,69.6708 80.5858,70.5041 80.5,71.5C 79.1667,71.5 77.8333,71.5 76.5,71.5C 76.719,70.325 76.3857,69.325 75.5,68.5C 72.0654,66.3666 68.5654,64.3666 65,62.5C 62.8504,63.4825 61.0171,64.8158 59.5,66.5C 56.6385,67.2471 54.6385,68.9138 53.5,71.5C 52.325,71.719 51.325,71.3857 50.5,70.5C 52.8528,68.4773 55.1862,66.4773 57.5,64.5C 60.3929,62.886 63.3929,61.5527 66.5,60.5 Z"/></g>
<g><path style="opacity:1" fill="#40342c" d="M 80.5,71.5 C 80.6192,75.347 79.9525,79.0137 78.5,82.5C 78.1667,82.5 77.8333,82.5 77.5,82.5C 77.81,79.2869 77.4767,76.2869 76.5,73.5C 75.5,73.5 74.5,73.5 73.5,73.5C 73.5,72.1667 73.5,70.8333 73.5,69.5C 71.901,69.2322 70.5676,69.5655 69.5,70.5C 69.1667,70.5 68.8333,70.5 68.5,70.5C 66.5,70.5 64.5,70.5 62.5,70.5C 62.1667,70.5 61.8333,70.5 61.5,70.5C 61.5,69.8333 61.1667,69.5 60.5,69.5C 63.0277,68.8343 65.6944,68.1676 68.5,67.5C 65.5719,66.5159 62.5719,66.1826 59.5,66.5C 61.0171,64.8158 62.8504,63.4825 65,62.5C 68.5654,64.3666 72.0654,66.3666 75.5,68.5C 76.3857,69.325 76.719,70.325 76.5,71.5C 77.8333,71.5 79.1667,71.5 80.5,71.5 Z"/></g>
<g><path style="opacity:1" fill="#7e7f81" d="M 98.5,68.5 C 110.838,68.3335 123.171,68.5001 135.5,69C 137.459,69.9309 139.459,70.7643 141.5,71.5C 142.204,74.2046 143.871,75.8713 146.5,76.5C 146.973,77.9063 147.973,78.573 149.5,78.5C 151.822,80.664 154.489,82.3307 157.5,83.5C 157.5,84.5 157.5,85.5 157.5,86.5C 149.861,81.6775 142.195,76.8441 134.5,72C 122.091,71.1882 109.758,71.3548 97.5,72.5C 97.5,71.8333 97.5,71.1667 97.5,70.5C 97.8333,69.8333 98.1667,69.1667 98.5,68.5 Z"/></g>
<g><path style="opacity:1" fill="#827c81" d="M 157.5,71.5 C 157.5,72.1667 157.5,72.8333 157.5,73.5C 155.05,73.298 152.717,73.6314 150.5,74.5C 149.167,73.1667 147.833,73.1667 146.5,74.5C 145.522,74.189 144.855,73.5223 144.5,72.5C 148.783,71.5078 153.116,71.1744 157.5,71.5 Z"/></g>
<g><path style="opacity:1" fill="#564d53" d="M 34.5,63.5 C 33.7808,65.3173 32.7808,65.9839 31.5,65.5C 32.714,67.0691 34.3807,67.9024 36.5,68C 35.0267,68.7096 34.3601,69.8762 34.5,71.5C 33.448,71.3505 32.448,71.5172 31.5,72C 33.433,72.2511 35.2663,72.7511 37,73.5C 39.4324,72.7071 41.7658,72.3737 44,72.5C 44.1667,72.8333 44.3333,73.1667 44.5,73.5C 41.5535,74.3214 38.5535,74.8214 35.5,75C 36.8333,75.6667 36.8333,76.3333 35.5,77C 36.7376,76.9227 37.7376,77.0894 38.5,77.5C 37.9747,78.1924 37.3081,78.6924 36.5,79C 37.5196,80.5557 38.853,81.7224 40.5,82.5C 41.9863,81.1859 43.653,80.1859 45.5,79.5C 48.7284,80.576 51.5618,82.2426 54,84.5C 57.2397,84.5838 60.7397,84.2505 64.5,83.5C 67.0393,85.7226 69.706,85.7226 72.5,83.5C 71.7573,82.8182 71.0906,82.1515 70.5,81.5C 72.5,81.5 74.5,81.5 76.5,81.5C 76.5,78.8333 76.5,76.1667 76.5,73.5C 77.4767,76.2869 77.81,79.2869 77.5,82.5C 75.073,85.2237 72.073,87.2237 68.5,88.5C 63.0886,89.0974 57.7553,89.9307 52.5,91C 59.8615,91.6833 67.1948,91.5167 74.5,90.5C 74.2627,89.209 74.596,88.209 75.5,87.5C 75.1667,90.1667 74.8333,92.8333 74.5,95.5C 73.8333,95.1667 73.1667,94.8333 72.5,94.5C 71.609,93.8902 70.609,93.5569 69.5,93.5C 67.3926,92.5318 65.0593,92.1984 62.5,92.5C 62.1667,92.5 61.8333,92.5 61.5,92.5C 53.9628,92.4815 46.6295,91.8149 39.5,90.5C 43.2618,90.4751 47.2618,90.3085 51.5,90C 41.9197,89.8647 33.5864,86.698 26.5,80.5C 26.3505,79.448 26.5172,78.448 27,77.5C 27.7412,78.6405 28.5745,78.6405 29.5,77.5C 30.3333,78.5 31.1667,79.5 32,80.5C 33.0084,80.0183 34.175,79.8516 35.5,80C 32.4432,77.2774 29.1099,74.944 25.5,73C 25.8333,72.6667 26.1667,72.3333 26.5,72C 25.1218,70.2866 23.4552,68.9533 21.5,68C 22.1667,67.6667 22.8333,67.3333 23.5,67C 21.842,66.2747 21.342,65.108 22,63.5C 25.9549,63.6295 30.1216,63.6295 34.5,63.5 Z"/></g>
<g><path style="opacity:1" fill="#9b938c" d="M 6.5,67.5 C 12.789,72.3178 19.4557,76.6511 26.5,80.5C 33.5864,86.698 41.9197,89.8647 51.5,90C 47.2618,90.3085 43.2618,90.4751 39.5,90.5C 38.8333,90.5 38.1667,90.5 37.5,90.5C 36.0813,89.5489 34.4147,89.2155 32.5,89.5C 32.4386,87.4078 31.4386,85.9078 29.5,85C 21.8333,80.1667 14.1667,75.3333 6.5,70.5C 4.14955,71.8611 1.81621,73.1944 -0.5,74.5C -0.5,73.5 -0.5,72.5 -0.5,71.5C 1.37183,69.3963 3.70516,68.063 6.5,67.5 Z"/></g>
<g><path style="opacity:1" fill="#612838" d="M 60.5,69.5 C 61.1667,69.5 61.5,69.8333 61.5,70.5C 61.5,73.8333 61.5,77.1667 61.5,80.5C 60.1667,80.5 58.8333,80.5 57.5,80.5C 57.5,76.8333 57.5,73.1667 57.5,69.5C 58.5,69.5 59.5,69.5 60.5,69.5 Z"/></g>
<g><path style="opacity:1" fill="#62283a" d="M 73.5,73.5 C 73.5,75.8333 73.5,78.1667 73.5,80.5C 72.1667,80.5 70.8333,80.5 69.5,80.5C 69.5,77.1667 69.5,73.8333 69.5,70.5C 70.5676,69.5655 71.901,69.2322 73.5,69.5C 73.5,70.8333 73.5,72.1667 73.5,73.5 Z"/></g>
<g><path style="opacity:1" fill="#5a5947" d="M 157.5,91.5 C 157.5,91.8333 157.5,92.1667 157.5,92.5C 156.5,92.5 155.5,92.5 154.5,92.5C 154.762,91.0222 154.429,89.6888 153.5,88.5C 147.13,85.629 141.13,82.129 135.5,78C 129.265,76.1883 122.932,75.5216 116.5,76C 117.044,76.7172 117.711,77.2172 118.5,77.5C 118.611,78.1174 118.944,78.6174 119.5,79C 118,79.8333 116.833,81 116,82.5C 115.5,80.6667 114.333,79.5 112.5,79C 113.833,78.3333 114.833,77.3333 115.5,76C 110.511,75.5007 105.511,75.3341 100.5,75.5C 105.119,74.1725 110.119,73.5058 115.5,73.5C 120.5,73.6667 125.5,73.8333 130.5,74C 133.028,76.0574 136.028,77.0574 139.5,77C 144.597,81.5425 150.264,85.0425 156.5,87.5C 156.232,89.099 156.566,90.4324 157.5,91.5 Z"/></g>
<g><path style="opacity:1" fill="#916143" d="M 150.5,74.5 C 150.768,76.099 150.434,77.4324 149.5,78.5C 147.973,78.573 146.973,77.9063 146.5,76.5C 146.5,75.8333 146.5,75.1667 146.5,74.5C 147.833,73.1667 149.167,73.1667 150.5,74.5 Z"/></g>
<g><path style="opacity:1" fill="#715e45" d="M 59.5,66.5 C 62.5719,66.1826 65.5719,66.5159 68.5,67.5C 65.6944,68.1676 63.0277,68.8343 60.5,69.5C 59.5,69.5 58.5,69.5 57.5,69.5C 57.5,73.1667 57.5,76.8333 57.5,80.5C 58.8333,80.5 60.1667,80.5 61.5,80.5C 61.5,77.1667 61.5,73.8333 61.5,70.5C 61.8333,70.5 62.1667,70.5 62.5,70.5C 62.19,73.7131 62.5233,76.7131 63.5,79.5C 65.1667,79.5 66.8333,79.5 68.5,79.5C 68.5,76.8333 68.5,74.1667 68.5,71.5C 68.5,71.1667 68.5,70.8333 68.5,70.5C 68.8333,70.5 69.1667,70.5 69.5,70.5C 69.5,73.8333 69.5,77.1667 69.5,80.5C 70.8333,80.5 72.1667,80.5 73.5,80.5C 73.5,78.1667 73.5,75.8333 73.5,73.5C 74.5,73.5 75.5,73.5 76.5,73.5C 76.5,76.1667 76.5,78.8333 76.5,81.5C 74.5,81.5 72.5,81.5 70.5,81.5C 65.1463,81.5688 59.813,81.9022 54.5,82.5C 54.815,78.6286 54.4816,74.9619 53.5,71.5C 54.6385,68.9138 56.6385,67.2471 59.5,66.5 Z"/></g>
<g><path style="opacity:1" fill="#faae48" d="M 68.5,71.5 C 68.5,74.1667 68.5,76.8333 68.5,79.5C 66.8333,79.5 65.1667,79.5 63.5,79.5C 63.5,76.8333 63.5,74.1667 63.5,71.5C 65.1667,71.5 66.8333,71.5 68.5,71.5 Z"/></g>
<g><path style="opacity:1" fill="#d7a172" d="M 62.5,70.5 C 64.5,70.5 66.5,70.5 68.5,70.5C 68.5,70.8333 68.5,71.1667 68.5,71.5C 66.8333,71.5 65.1667,71.5 63.5,71.5C 63.5,74.1667 63.5,76.8333 63.5,79.5C 62.5233,76.7131 62.19,73.7131 62.5,70.5 Z"/></g>
<g><path style="opacity:1" fill="#413433" d="M 157.5,73.5 C 157.5,76.8333 157.5,80.1667 157.5,83.5C 154.489,82.3307 151.822,80.664 149.5,78.5C 150.434,77.4324 150.768,76.099 150.5,74.5C 152.717,73.6314 155.05,73.298 157.5,73.5 Z"/></g>
<g><path style="opacity:1" fill="#968d68" d="M 100.5,75.5 C 105.511,75.3341 110.511,75.5007 115.5,76C 114.833,77.3333 113.833,78.3333 112.5,79C 114.333,79.5 115.5,80.6667 116,82.5C 116.833,81 118,79.8333 119.5,79C 118.944,78.6174 118.611,78.1174 118.5,77.5C 118.735,76.9033 119.235,76.5699 120,76.5C 123.792,77.4375 127.625,78.1042 131.5,78.5C 131.238,79.9778 131.571,81.3112 132.5,82.5C 134.773,83.6509 137.106,84.6509 139.5,85.5C 137.379,87.0181 135.046,88.0181 132.5,88.5C 131.672,94.3193 131.172,100.319 131,106.5C 130.333,107.167 129.667,107.833 129,108.5C 127.732,108.384 126.398,108.051 125,107.5C 124.828,100.987 124.328,94.6534 123.5,88.5C 120.5,88.5 117.5,88.5 114.5,88.5C 112.833,88.5 111.167,88.5 109.5,88.5C 109.5,97.5 109.5,106.5 109.5,115.5C 109.167,115.5 108.833,115.5 108.5,115.5C 108.5,106.167 108.5,96.8333 108.5,87.5C 111.247,87.8134 113.914,87.48 116.5,86.5C 116.123,84.1759 115.123,83.5092 113.5,84.5C 111.244,83.5791 110.244,81.9124 110.5,79.5C 105.425,79.5299 100.259,79.5299 95,79.5C 93.8288,80.3396 92.6621,81.1729 91.5,82C 91.7284,82.3988 92.0618,82.5654 92.5,82.5C 91.791,83.404 90.791,83.7373 89.5,83.5C 89.67,82.1779 89.3366,81.0113 88.5,80C 90.6633,79.7547 92.33,78.7547 93.5,77C 96.0356,76.8138 98.369,76.3138 100.5,75.5 Z"/></g>
<g><path style="opacity:1" fill="#afa8a1" d="M 97.5,70.5 C 97.5,71.1667 97.5,71.8333 97.5,72.5C 96.8333,72.8333 96.1667,73.1667 95.5,73.5C 90.2745,76.9374 85.2745,80.6041 80.5,84.5C 78.326,84.7497 76.6594,85.7497 75.5,87.5C 74.596,88.209 74.2627,89.209 74.5,90.5C 67.1948,91.5167 59.8615,91.6833 52.5,91C 57.7553,89.9307 63.0886,89.0974 68.5,88.5C 72.073,87.2237 75.073,85.2237 77.5,82.5C 77.8333,82.5 78.1667,82.5 78.5,82.5C 84.5614,78.1124 90.8947,74.1124 97.5,70.5 Z"/></g>
<g><path style="opacity:1" fill="#26292c" d="M 157.5,86.5 C 157.5,88.1667 157.5,89.8333 157.5,91.5C 156.566,90.4324 156.232,89.099 156.5,87.5C 150.264,85.0425 144.597,81.5425 139.5,77C 136.028,77.0574 133.028,76.0574 130.5,74C 125.5,73.8333 120.5,73.6667 115.5,73.5C 110.119,73.5058 105.119,74.1725 100.5,75.5C 98.597,75.2041 96.9303,74.5375 95.5,73.5C 96.1667,73.1667 96.8333,72.8333 97.5,72.5C 109.758,71.3548 122.091,71.1882 134.5,72C 142.195,76.8441 149.861,81.6775 157.5,86.5 Z"/></g>
<g><path style="opacity:1" fill="#948756" d="M 10.5,80.5 C 14.6177,81.7272 18.6177,83.2272 22.5,85C 23.8168,86.6591 25.4835,87.8257 27.5,88.5C 28.4287,89.6888 28.762,91.0222 28.5,92.5C 30.1667,92.5 31.8333,92.5 33.5,92.5C 33.5,101.833 33.5,111.167 33.5,120.5C 33.5,121.167 33.1667,121.5 32.5,121.5C 24.4467,121.775 16.4467,121.275 8.5,120C 7.74756,119.329 7.41423,118.496 7.5,117.5C 12.4094,117.88 17.0761,117.213 21.5,115.5C 21.5,106.833 21.5,98.1667 21.5,89.5C 20.1667,89.5 18.8333,89.5 17.5,89.5C 11.69,88.5104 5.68996,88.1771 -0.5,88.5C -0.5,84.8333 -0.5,81.1667 -0.5,77.5C 1.78188,76.6103 4.11521,76.4436 6.5,77C 5.83333,78.3333 4.83333,79.3333 3.5,80C 5.30308,80.6368 6.63641,81.8035 7.5,83.5C 8.69559,83.1543 8.69559,82.6543 7.5,82C 8.52656,81.4867 9.52656,80.9867 10.5,80.5 Z"/></g>
<g><path style="opacity:1" fill="#6c643f" d="M 33.5,91.5 C 33.5,91.8333 33.5,92.1667 33.5,92.5C 31.8333,92.5 30.1667,92.5 28.5,92.5C 28.762,91.0222 28.4287,89.6888 27.5,88.5C 25.4835,87.8257 23.8168,86.6591 22.5,85C 18.6177,83.2272 14.6177,81.7272 10.5,80.5C 8.7645,75.2871 10.0978,75.1205 14.5,80C 16.5,80.3333 18.5,80.6667 20.5,81C 24.8069,84.7697 29.1403,88.2697 33.5,91.5 Z"/></g>
<g><path style="opacity:1" fill="#505739" d="M 95.5,73.5 C 96.9303,74.5375 98.597,75.2041 100.5,75.5C 98.369,76.3138 96.0356,76.8138 93.5,77C 92.33,78.7547 90.6633,79.7547 88.5,80C 89.3366,81.0113 89.67,82.1779 89.5,83.5C 90.791,83.7373 91.791,83.404 92.5,82.5C 93.2389,82.369 93.9056,82.5357 94.5,83C 91.9177,84.3382 91.2511,86.1715 92.5,88.5C 94.5,89.1667 96.5,89.8333 98.5,90.5C 95.6591,90.1532 93.6591,90.4865 92.5,91.5C 91.7095,92.4013 90.7095,93.0679 89.5,93.5C 88.8333,95.1667 88.1667,96.8333 87.5,98.5C 87.0623,97.4937 86.3957,97.4937 85.5,98.5C 85.6399,96.8762 84.9733,95.7096 83.5,95C 84.8333,92.6667 86.1667,90.3333 87.5,88C 86.4025,84.1174 84.0691,82.9507 80.5,84.5C 85.2745,80.6041 90.2745,76.9374 95.5,73.5 Z"/></g>
<g><path style="opacity:1" fill="#16110d" d="M 37.5,90.5 C 38.1667,90.5 38.8333,90.5 39.5,90.5C 46.6295,91.8149 53.9628,92.4815 61.5,92.5C 57.8183,93.2612 53.985,93.9279 50,94.5C 46.3704,92.3185 42.537,91.9852 38.5,93.5C 37.5,93 36.5,92.5 35.5,92C 36.4158,91.7216 37.0825,91.2216 37.5,90.5 Z"/></g>
<g><path style="opacity:1" fill="#cc8146" d="M 112.5,91.5 C 115.167,91.5 117.833,91.5 120.5,91.5C 120.5,98.5 120.5,105.5 120.5,112.5C 118.833,112.5 117.167,112.5 115.5,112.5C 115.662,110.473 115.495,108.473 115,106.5C 114.329,107.252 113.496,107.586 112.5,107.5C 112.5,102.167 112.5,96.8333 112.5,91.5 Z"/></g>
<g><path style="opacity:1" fill="#863512" d="M 62.5,92.5 C 65.0593,92.1984 67.3926,92.5318 69.5,93.5C 68.209,93.2627 67.209,93.596 66.5,94.5C 65.1667,94.5 63.8333,94.5 62.5,94.5C 62.5,93.8333 62.5,93.1667 62.5,92.5 Z"/></g>
<g><path style="opacity:1" fill="#493d2a" d="M 37.5,90.5 C 37.0825,91.2216 36.4158,91.7216 35.5,92C 36.5,92.5 37.5,93 38.5,93.5C 42.537,91.9852 46.3704,92.3185 50,94.5C 53.985,93.9279 57.8183,93.2612 61.5,92.5C 61.8333,92.5 62.1667,92.5 62.5,92.5C 62.5,93.1667 62.5,93.8333 62.5,94.5C 61.1667,94.5 59.8333,94.5 58.5,94.5C 57.5041,94.4142 56.6708,94.7476 56,95.5C 55.8333,99.6667 55.6667,103.833 55.5,108C 55.5085,112.557 56.1752,116.724 57.5,120.5C 54.0264,121.525 50.3597,122.192 46.5,122.5C 46.1201,118.843 47.4534,117.843 50.5,119.5C 51.737,119.444 52.737,118.944 53.5,118C 52.2657,115.928 50.5991,114.428 48.5,113.5C 48.5,111.167 48.5,108.833 48.5,106.5C 48.5,104.833 48.5,103.167 48.5,101.5C 48.3893,100.883 48.056,100.383 47.5,100C 44.1832,99.5017 40.8499,99.335 37.5,99.5C 38.2259,95.693 36.8926,93.0263 33.5,91.5C 29.1403,88.2697 24.8069,84.7697 20.5,81C 18.5,80.6667 16.5,80.3333 14.5,80C 10.0978,75.1205 8.7645,75.2871 10.5,80.5C 9.52656,80.9867 8.52656,81.4867 7.5,82C 8.69559,82.6543 8.69559,83.1543 7.5,83.5C 6.63641,81.8035 5.30308,80.6368 3.5,80C 4.83333,79.3333 5.83333,78.3333 6.5,77C 4.11521,76.4436 1.78188,76.6103 -0.5,77.5C -0.5,76.5 -0.5,75.5 -0.5,74.5C 1.81621,73.1944 4.14955,71.8611 6.5,70.5C 14.1667,75.3333 21.8333,80.1667 29.5,85C 31.4386,85.9078 32.4386,87.4078 32.5,89.5C 34.4147,89.2155 36.0813,89.5489 37.5,90.5 Z"/></g>
<g><path style="opacity:1" fill="#d35d14" d="M 58.5,94.5 C 57.5975,97.3915 57.2641,100.391 57.5,103.5C 57.0074,105.806 56.6741,108.139 56.5,110.5C 56.5,113.5 56.5,116.5 56.5,119.5C 60.1667,119.5 63.8333,119.5 67.5,119.5C 69.099,119.232 70.4324,119.566 71.5,120.5C 66.8333,120.5 62.1667,120.5 57.5,120.5C 56.1752,116.724 55.5085,112.557 55.5,108C 55.6667,103.833 55.8333,99.6667 56,95.5C 56.6708,94.7476 57.5041,94.4142 58.5,94.5 Z"/></g>
<g><path style="opacity:1" fill="#9e9160" d="M 85.5,98.5 C 85.5,104.167 85.5,109.833 85.5,115.5C 83.8212,115.285 82.8212,115.952 82.5,117.5C 81.8969,119.19 80.8969,120.69 79.5,122C 80.1667,122.333 80.8333,122.667 81.5,123C 80.1667,123.667 78.8333,123.667 77.5,123C 77.8333,122.667 78.1667,122.333 78.5,122C 76.9419,121.79 75.6085,121.29 74.5,120.5C 74.5,116.833 74.5,113.167 74.5,109.5C 74.5,104.833 74.5,100.167 74.5,95.5C 74.8333,92.8333 75.1667,90.1667 75.5,87.5C 76.6594,85.7497 78.326,84.7497 80.5,84.5C 84.0691,82.9507 86.4025,84.1174 87.5,88C 86.1667,90.3333 84.8333,92.6667 83.5,95C 84.9733,95.7096 85.6399,96.8762 85.5,98.5 Z"/></g>
<g><path style="opacity:1" fill="#8e9090" d="M 111.5,91.5 C 111.5,91.1667 111.5,90.8333 111.5,90.5C 114.833,90.5 118.167,90.5 121.5,90.5C 121.5,98.1667 121.5,105.833 121.5,113.5C 121.167,113.5 120.833,113.5 120.5,113.5C 120.5,113.167 120.5,112.833 120.5,112.5C 120.5,105.5 120.5,98.5 120.5,91.5C 117.833,91.5 115.167,91.5 112.5,91.5C 112.167,91.5 111.833,91.5 111.5,91.5 Z"/></g>
<g><path style="opacity:1" fill="#f73915" d="M 58.5,94.5 C 59.8333,94.5 61.1667,94.5 62.5,94.5C 63.8333,94.5 65.1667,94.5 66.5,94.5C 66.5,97.8333 66.5,101.167 66.5,104.5C 63.1909,104.692 60.6909,103.359 59,100.5C 58.7679,101.737 58.2679,102.737 57.5,103.5C 57.2641,100.391 57.5975,97.3915 58.5,94.5 Z"/></g>
<g><path style="opacity:1" fill="#a79c77" d="M 33.5,91.5 C 36.8926,93.0263 38.2259,95.693 37.5,99.5C 40.8499,99.335 44.1832,99.5017 47.5,100C 48.056,100.383 48.3893,100.883 48.5,101.5C 47.2652,101.721 46.2652,102.388 45.5,103.5C 43.1324,101.777 40.4658,101.11 37.5,101.5C 37.5,103.5 37.5,105.5 37.5,107.5C 37.5,111.5 37.5,115.5 37.5,119.5C 36.1667,119.833 34.8333,120.167 33.5,120.5C 33.5,111.167 33.5,101.833 33.5,92.5C 33.5,92.1667 33.5,91.8333 33.5,91.5 Z"/></g>
<g><path style="opacity:1" fill="#f07c18" d="M 69.5,93.5 C 70.609,93.5569 71.609,93.8902 72.5,94.5C 71.8953,96.0257 70.7286,97.0257 69,97.5C 68.502,100.482 68.3354,103.482 68.5,106.5C 73.2203,106.225 73.5537,107.059 69.5,109C 71.1193,109.236 72.1193,110.069 72.5,111.5C 69.9315,111.406 68.4315,110.072 68,107.5C 67.2208,110.097 66.7208,110.097 66.5,107.5C 66.5,106.5 66.5,105.5 66.5,104.5C 66.5,101.167 66.5,97.8333 66.5,94.5C 67.209,93.596 68.209,93.2627 69.5,93.5 Z"/></g>
<g><path style="opacity:1" fill="#5b453a" d="M 114.5,88.5 C 117.5,88.5 120.5,88.5 123.5,88.5C 123.5,97.1667 123.5,105.833 123.5,114.5C 122.508,114.672 121.842,114.338 121.5,113.5C 121.5,105.833 121.5,98.1667 121.5,90.5C 118.167,90.5 114.833,90.5 111.5,90.5C 111.754,89.6679 112.754,89.0013 114.5,88.5 Z"/></g>
<g><path style="opacity:1" fill="#b6a979" d="M 108.5,115.5 C 105.833,115.5 103.167,115.5 100.5,115.5C 100.5,106.5 100.5,97.5 100.5,88.5C 97.8333,88.5 95.1667,88.5 92.5,88.5C 91.2511,86.1715 91.9177,84.3382 94.5,83C 93.9056,82.5357 93.2389,82.369 92.5,82.5C 92.0618,82.5654 91.7284,82.3988 91.5,82C 92.6621,81.1729 93.8288,80.3396 95,79.5C 100.259,79.5299 105.425,79.5299 110.5,79.5C 110.244,81.9124 111.244,83.5791 113.5,84.5C 115.123,83.5092 116.123,84.1759 116.5,86.5C 113.914,87.48 111.247,87.8134 108.5,87.5C 108.5,96.8333 108.5,106.167 108.5,115.5 Z"/></g>
<g><path style="opacity:1" fill="#a76a31" d="M 72.5,94.5 C 73.1667,94.8333 73.8333,95.1667 74.5,95.5C 74.5,100.167 74.5,104.833 74.5,109.5C 73.8333,110.167 73.1667,110.833 72.5,111.5C 72.1193,110.069 71.1193,109.236 69.5,109C 73.5537,107.059 73.2203,106.225 68.5,106.5C 68.3354,103.482 68.502,100.482 69,97.5C 70.7286,97.0257 71.8953,96.0257 72.5,94.5 Z"/></g>
<g><path style="opacity:1" fill="#a79884" d="M 98.5,90.5 C 98.5,98.5 98.5,106.5 98.5,114.5C 95.9407,114.198 93.6074,114.532 91.5,115.5C 91.1667,115.5 90.8333,115.5 90.5,115.5C 89.791,114.596 88.791,114.263 87.5,114.5C 87.5,109.167 87.5,103.833 87.5,98.5C 88.1667,96.8333 88.8333,95.1667 89.5,93.5C 91.0808,95.1417 91.7475,97.1417 91.5,99.5C 90.6981,100.952 90.1981,102.618 90,104.5C 89.6667,103.5 89.3333,102.5 89,101.5C 87.602,108.775 90.4354,112.441 97.5,112.5C 97.5,110.167 97.5,107.833 97.5,105.5C 97.5,100.833 97.5,96.1667 97.5,91.5C 95.8333,91.5 94.1667,91.5 92.5,91.5C 93.6591,90.4865 95.6591,90.1532 98.5,90.5 Z"/></g>
<g><path style="opacity:1" fill="#7b5c4f" d="M 48.5,101.5 C 48.5,103.167 48.5,104.833 48.5,106.5C 47.2876,107.23 46.2876,108.23 45.5,109.5C 44.7189,108.271 44.2189,106.938 44,105.5C 43.3333,106.167 42.6667,106.833 42,107.5C 40.7012,107.034 39.2012,107.034 37.5,107.5C 37.5,105.5 37.5,103.5 37.5,101.5C 40.4658,101.11 43.1324,101.777 45.5,103.5C 46.2652,102.388 47.2652,101.721 48.5,101.5 Z"/></g>
<g><path style="opacity:1" fill="#f6bc4d" d="M 92.5,91.5 C 94.1667,91.5 95.8333,91.5 97.5,91.5C 97.5,96.1667 97.5,100.833 97.5,105.5C 95.8333,105.5 94.1667,105.5 92.5,105.5C 92.1667,103.5 91.8333,101.5 91.5,99.5C 91.7475,97.1417 91.0808,95.1417 89.5,93.5C 90.7095,93.0679 91.7095,92.4013 92.5,91.5 Z"/></g>
<g><path style="opacity:1" fill="#55413a" d="M 48.5,106.5 C 48.5,108.833 48.5,111.167 48.5,113.5C 45.2024,115.482 42.0357,117.815 39,120.5C 38.2352,120.43 37.7352,120.097 37.5,119.5C 37.5,115.5 37.5,111.5 37.5,107.5C 39.2012,107.034 40.7012,107.034 42,107.5C 42.6667,106.833 43.3333,106.167 44,105.5C 44.2189,106.938 44.7189,108.271 45.5,109.5C 46.2876,108.23 47.2876,107.23 48.5,106.5 Z"/></g>
<g><path style="opacity:1" fill="#f4af65" d="M 91.5,99.5 C 91.8333,101.5 92.1667,103.5 92.5,105.5C 94.1667,105.5 95.8333,105.5 97.5,105.5C 97.5,107.833 97.5,110.167 97.5,112.5C 90.4354,112.441 87.602,108.775 89,101.5C 89.3333,102.5 89.6667,103.5 90,104.5C 90.1981,102.618 90.6981,100.952 91.5,99.5 Z"/></g>
<g><path style="opacity:1" fill="#aca094" d="M -0.5,90.5 C 4.83333,90.5 10.1667,90.5 15.5,90.5C 15.5,98.5 15.5,106.5 15.5,114.5C 10.1667,114.5 4.83333,114.5 -0.5,114.5C -0.5,106.5 -0.5,98.5 -0.5,90.5 Z"/></g>
<g><path style="opacity:1" fill="#c1793d" d="M 6.5,102.5 C 9.16667,102.5 11.8333,102.5 14.5,102.5C 14.5,104.167 14.5,105.833 14.5,107.5C 11.8333,107.5 9.16667,107.5 6.5,107.5C 6.5,105.833 6.5,104.167 6.5,102.5 Z"/></g>
<g><path style="opacity:1" fill="#e48c1a" d="M 14.5,97.5 C 14.5,98.8333 14.5,100.167 14.5,101.5C 11.8333,101.5 9.16667,101.5 6.5,101.5C 6.5,100.167 6.5,98.8333 6.5,97.5C 9.16667,97.5 11.8333,97.5 14.5,97.5 Z"/></g>
<g><path style="opacity:1" fill="#fbb21a" d="M 14.5,97.5 C 11.8333,97.5 9.16667,97.5 6.5,97.5C 6.5,98.8333 6.5,100.167 6.5,101.5C 4.5,101.5 2.5,101.5 0.5,101.5C 0.5,98.1667 0.5,94.8333 0.5,91.5C 5.16667,91.5 9.83333,91.5 14.5,91.5C 14.5,93.5 14.5,95.5 14.5,97.5 Z"/></g>
<g><path style="opacity:1" fill="#694636" d="M -0.5,88.5 C 5.68996,88.1771 11.69,88.5104 17.5,89.5C 18.8333,89.5 20.1667,89.5 21.5,89.5C 21.5,98.1667 21.5,106.833 21.5,115.5C 17.0761,117.213 12.4094,117.88 7.5,117.5C 4.83333,117.5 2.16667,117.5 -0.5,117.5C -0.5,116.5 -0.5,115.5 -0.5,114.5C 4.83333,114.5 10.1667,114.5 15.5,114.5C 15.5,106.5 15.5,98.5 15.5,90.5C 10.1667,90.5 4.83333,90.5 -0.5,90.5C -0.5,89.8333 -0.5,89.1667 -0.5,88.5 Z"/></g>
<g><path style="opacity:1" fill="#6c2937" d="M 17.5,89.5 C 18.209,90.404 19.209,90.7373 20.5,90.5C 20.5,98.5 20.5,106.5 20.5,114.5C 19.1667,114.5 17.8333,114.5 16.5,114.5C 16.1739,105.983 16.5073,97.6499 17.5,89.5 Z"/></g>
<g><path style="opacity:1" fill="#af2b12" d="M 66.5,104.5 C 66.5,105.5 66.5,106.5 66.5,107.5C 63.5558,108.588 60.5558,108.588 57.5,107.5C 57.7373,108.791 57.404,109.791 56.5,110.5C 56.6741,108.139 57.0074,105.806 57.5,103.5C 58.2679,102.737 58.7679,101.737 59,100.5C 60.6909,103.359 63.1909,104.692 66.5,104.5 Z"/></g>
<g><path style="opacity:1" fill="#7b5a42" d="M 87.5,98.5 C 87.5,103.833 87.5,109.167 87.5,114.5C 88.791,114.263 89.791,114.596 90.5,115.5C 88.8333,115.5 87.1667,115.5 85.5,115.5C 85.5,109.833 85.5,104.167 85.5,98.5C 86.3957,97.4937 87.0623,97.4937 87.5,98.5 Z"/></g>
<g><path style="opacity:1" fill="#847a59" d="M 157.5,92.5 C 157.5,101.833 157.5,111.167 157.5,120.5C 155.473,120.662 153.473,120.495 151.5,120C 150.748,119.329 150.414,118.496 150.5,117.5C 151.167,117.5 151.5,117.167 151.5,116.5C 142.348,115.506 133.015,115.173 123.5,115.5C 123.5,115.167 123.5,114.833 123.5,114.5C 123.5,105.833 123.5,97.1667 123.5,88.5C 124.328,94.6534 124.828,100.987 125,107.5C 126.398,108.051 127.732,108.384 129,108.5C 129.667,107.833 130.333,107.167 131,106.5C 131.172,100.319 131.672,94.3193 132.5,88.5C 135.046,88.0181 137.379,87.0181 139.5,85.5C 137.106,84.6509 134.773,83.6509 132.5,82.5C 131.571,81.3112 131.238,79.9778 131.5,78.5C 127.625,78.1042 123.792,77.4375 120,76.5C 119.235,76.5699 118.735,76.9033 118.5,77.5C 117.711,77.2172 117.044,76.7172 116.5,76C 122.932,75.5216 129.265,76.1883 135.5,78C 141.13,82.129 147.13,85.629 153.5,88.5C 154.429,89.6888 154.762,91.0222 154.5,92.5C 155.5,92.5 156.5,92.5 157.5,92.5 Z"/></g>
<g><path style="opacity:1" fill="#5c463c" d="M 132.5,88.5 C 137.167,88.5 141.833,88.5 146.5,88.5C 146.831,97.1922 146.498,105.859 145.5,114.5C 144.893,114.376 144.56,114.043 144.5,113.5C 144.5,105.833 144.5,98.1667 144.5,90.5C 141.167,90.5 137.833,90.5 134.5,90.5C 133.671,98.3228 133.171,106.323 133,114.5C 132.5,105.84 132.334,97.1731 132.5,88.5 Z"/></g>
<g><path style="opacity:1" fill="#eba848" d="M 135.5,91.5 C 136.5,91.5 137.5,91.5 138.5,91.5C 137.908,97.6309 138.575,103.464 140.5,109C 139.663,110.011 139.33,111.178 139.5,112.5C 138.167,112.5 136.833,112.5 135.5,112.5C 135.5,105.5 135.5,98.5 135.5,91.5 Z"/></g>
<g><path style="opacity:1" fill="#d2844a" d="M 138.5,91.5 C 140.167,91.5 141.833,91.5 143.5,91.5C 143.5,98.5 143.5,105.5 143.5,112.5C 142.167,112.5 140.833,112.5 139.5,112.5C 139.33,111.178 139.663,110.011 140.5,109C 138.575,103.464 137.908,97.6309 138.5,91.5 Z"/></g>
<g><path style="opacity:1" fill="#d8bca1" d="M 134.5,91.5 C 134.833,91.5 135.167,91.5 135.5,91.5C 135.5,98.5 135.5,105.5 135.5,112.5C 136.833,112.5 138.167,112.5 139.5,112.5C 140.833,112.5 142.167,112.5 143.5,112.5C 143.5,112.833 143.5,113.167 143.5,113.5C 140.5,113.5 137.5,113.5 134.5,113.5C 134.5,106.167 134.5,98.8333 134.5,91.5 Z"/></g>
<g><path style="opacity:1" fill="#8d8d91" d="M 134.5,91.5 C 134.5,91.1667 134.5,90.8333 134.5,90.5C 137.833,90.5 141.167,90.5 144.5,90.5C 144.5,98.1667 144.5,105.833 144.5,113.5C 144.167,113.5 143.833,113.5 143.5,113.5C 143.5,113.167 143.5,112.833 143.5,112.5C 143.5,105.5 143.5,98.5 143.5,91.5C 141.833,91.5 140.167,91.5 138.5,91.5C 137.5,91.5 136.5,91.5 135.5,91.5C 135.167,91.5 134.833,91.5 134.5,91.5 Z"/></g>
<g><path style="opacity:1" fill="#f59739" d="M 6.5,102.5 C 6.5,104.167 6.5,105.833 6.5,107.5C 9.16667,107.5 11.8333,107.5 14.5,107.5C 14.5,109.167 14.5,110.833 14.5,112.5C 10.4862,112.666 6.48617,112.499 2.5,112C 1.54948,108.943 1.21614,105.777 1.5,102.5C 3.16667,102.5 4.83333,102.5 6.5,102.5 Z"/></g>
<g><path style="opacity:1" fill="#cdb2a6" d="M 111.5,91.5 C 111.833,91.5 112.167,91.5 112.5,91.5C 112.5,96.8333 112.5,102.167 112.5,107.5C 112.5,109.167 112.5,110.833 112.5,112.5C 113.5,112.5 114.5,112.5 115.5,112.5C 117.167,112.5 118.833,112.5 120.5,112.5C 120.5,112.833 120.5,113.167 120.5,113.5C 117.5,113.5 114.5,113.5 111.5,113.5C 111.5,106.167 111.5,98.8333 111.5,91.5 Z"/></g>
<g><path style="opacity:1" fill="#955339" d="M 115.5,112.5 C 114.5,112.5 113.5,112.5 112.5,112.5C 112.5,110.833 112.5,109.167 112.5,107.5C 113.496,107.586 114.329,107.252 115,106.5C 115.495,108.473 115.662,110.473 115.5,112.5 Z"/></g>
<g><path style="opacity:1" fill="#88614b" d="M 92.5,88.5 C 95.1667,88.5 97.8333,88.5 100.5,88.5C 100.5,97.5 100.5,106.5 100.5,115.5C 97.5,115.5 94.5,115.5 91.5,115.5C 93.6074,114.532 95.9407,114.198 98.5,114.5C 98.5,106.5 98.5,98.5 98.5,90.5C 96.5,89.8333 94.5,89.1667 92.5,88.5 Z"/></g>
<g><path style="opacity:1" fill="#8b6b51" d="M 114.5,88.5 C 112.754,89.0013 111.754,89.6679 111.5,90.5C 111.5,90.8333 111.5,91.1667 111.5,91.5C 111.5,98.8333 111.5,106.167 111.5,113.5C 114.5,113.5 117.5,113.5 120.5,113.5C 120.833,113.5 121.167,113.5 121.5,113.5C 121.842,114.338 122.508,114.672 123.5,114.5C 123.5,114.833 123.5,115.167 123.5,115.5C 118.833,115.5 114.167,115.5 109.5,115.5C 109.5,106.5 109.5,97.5 109.5,88.5C 111.167,88.5 112.833,88.5 114.5,88.5 Z"/></g>
<g><path style="opacity:1" fill="#d2c0b4" d="M 85.5,115.5 C 87.1667,115.5 88.8333,115.5 90.5,115.5C 90.8333,115.5 91.1667,115.5 91.5,115.5C 94.5,115.5 97.5,115.5 100.5,115.5C 103.167,115.5 105.833,115.5 108.5,115.5C 108.833,115.5 109.167,115.5 109.5,115.5C 114.167,115.5 118.833,115.5 123.5,115.5C 133.015,115.173 142.348,115.506 151.5,116.5C 138.323,116.171 125.323,116.505 112.5,117.5C 111.5,117.5 110.5,117.5 109.5,117.5C 106.289,117.012 103.456,117.679 101,119.5C 100.326,118.422 99.3261,117.755 98,117.5C 96.0092,118.763 94.0092,120.097 92,121.5C 90.4612,118.479 87.9612,117.146 84.5,117.5C 83.8333,117.5 83.1667,117.5 82.5,117.5C 82.8212,115.952 83.8212,115.285 85.5,115.5 Z"/></g>
<g><path style="opacity:1" fill="#613a21" d="M 74.5,109.5 C 74.5,113.167 74.5,116.833 74.5,120.5C 73.5,120.5 72.5,120.5 71.5,120.5C 70.4324,119.566 69.099,119.232 67.5,119.5C 68.9699,118.022 70.6366,116.689 72.5,115.5C 70.8333,114.833 69.1667,114.167 67.5,113.5C 69.2914,112.83 70.9581,112.163 72.5,111.5C 73.1667,110.833 73.8333,110.167 74.5,109.5 Z"/></g>
<g><path style="opacity:1" fill="#7d3519" d="M 66.5,107.5 C 66.7208,110.097 67.2208,110.097 68,107.5C 68.4315,110.072 69.9315,111.406 72.5,111.5C 70.9581,112.163 69.2914,112.83 67.5,113.5C 69.1667,114.167 70.8333,114.833 72.5,115.5C 70.6366,116.689 68.9699,118.022 67.5,119.5C 63.8333,119.5 60.1667,119.5 56.5,119.5C 56.5,116.5 56.5,113.5 56.5,110.5C 57.404,109.791 57.7373,108.791 57.5,107.5C 60.5558,108.588 63.5558,108.588 66.5,107.5 Z"/></g>
<g><path style="opacity:1" fill="#511512" d="M 58.5,110.5 C 61.0961,111.265 63.7628,111.599 66.5,111.5C 66.5,113.5 66.5,115.5 66.5,117.5C 63.5448,118.159 60.5448,118.492 57.5,118.5C 57.2786,115.721 57.612,113.054 58.5,110.5 Z"/></g>
<g><path style="opacity:1" fill="#685552" d="M 109.5,117.5 C 110.5,117.5 111.5,117.5 112.5,117.5C 117.965,116.773 122.965,117.773 127.5,120.5C 127.158,121.338 126.492,121.672 125.5,121.5C 124.05,119.014 122.884,119.347 122,122.5C 121.667,121.833 121.333,121.167 121,120.5C 120.601,120.728 120.435,121.062 120.5,121.5C 116.116,121.826 111.783,121.492 107.5,120.5C 108.612,119.735 109.279,118.735 109.5,117.5 Z"/></g>
<g><path style="opacity:1" fill="#8f7a70" d="M 112.5,117.5 C 125.323,116.505 138.323,116.171 151.5,116.5C 151.5,117.167 151.167,117.5 150.5,117.5C 145.167,117.5 139.833,117.5 134.5,117.5C 134.433,118.959 134.766,120.292 135.5,121.5C 132.873,120.908 130.206,120.575 127.5,120.5C 122.965,117.773 117.965,116.773 112.5,117.5 Z"/></g>
<g><path style="opacity:1" fill="#594d4b" d="M 150.5,117.5 C 150.414,118.496 150.748,119.329 151.5,120C 153.473,120.495 155.473,120.662 157.5,120.5C 157.5,121.5 157.5,122.5 157.5,123.5C 155.708,123.366 154.042,123.699 152.5,124.5C 150.274,123.244 147.941,123.244 145.5,124.5C 146.589,122.883 148.256,122.05 150.5,122C 145.511,121.501 140.511,121.334 135.5,121.5C 134.766,120.292 134.433,118.959 134.5,117.5C 139.833,117.5 145.167,117.5 150.5,117.5 Z"/></g>
<g><path style="opacity:1" fill="#766e43" d="M -0.5,117.5 C 2.16667,117.5 4.83333,117.5 7.5,117.5C 7.41423,118.496 7.74756,119.329 8.5,120C 16.4467,121.275 24.4467,121.775 32.5,121.5C 33.4157,124.46 32.0823,125.793 28.5,125.5C 28.5,124.5 28.5,123.5 28.5,122.5C 26.5,122.833 24.5,123.167 22.5,123.5C 17.9222,123.442 13.5888,123.776 9.5,124.5C 6.33216,123.556 2.99883,123.556 -0.5,124.5C -0.5,122.167 -0.5,119.833 -0.5,117.5 Z"/></g>
<g><path style="opacity:1" fill="#8b7c68" d="M 84.5,117.5 C 87.9612,117.146 90.4612,118.479 92,121.5C 94.0092,120.097 96.0092,118.763 98,117.5C 99.3261,117.755 100.326,118.422 101,119.5C 103.456,117.679 106.289,117.012 109.5,117.5C 109.279,118.735 108.612,119.735 107.5,120.5C 111.783,121.492 116.116,121.826 120.5,121.5C 115.54,125.314 110.207,125.48 104.5,122C 105.609,120.187 104.942,119.354 102.5,119.5C 102.5,120.833 102.5,122.167 102.5,123.5C 97.4635,123.587 92.4635,123.254 87.5,122.5C 86.0475,121.151 85.0475,119.485 84.5,117.5 Z"/></g>
<g><path style="opacity:1" fill="#565548" d="M 22.5,123.5 C 23.5981,124.397 23.5981,125.23 22.5,126C 23.7375,126.232 24.7375,126.732 25.5,127.5C 21.9891,127.899 18.6557,128.566 15.5,129.5C 13.8333,129.5 12.1667,129.5 10.5,129.5C 9.5,129.5 8.5,129.5 7.5,129.5C 7.40206,127.447 8.06873,125.78 9.5,124.5C 13.5888,123.776 17.9222,123.442 22.5,123.5 Z"/></g>
<g><path style="opacity:1" fill="#827b5e" d="M 127.5,120.5 C 130.206,120.575 132.873,120.908 135.5,121.5C 140.511,121.334 145.511,121.501 150.5,122C 148.256,122.05 146.589,122.883 145.5,124.5C 143.254,125.455 140.921,126.122 138.5,126.5C 138.5,125.5 138.5,124.5 138.5,123.5C 134.51,124.19 130.51,124.357 126.5,124C 124.641,123.399 124.308,122.566 125.5,121.5C 126.492,121.672 127.158,121.338 127.5,120.5 Z"/></g>
<g><path style="opacity:1" fill="#353825" d="M 48.5,113.5 C 50.5991,114.428 52.2657,115.928 53.5,118C 52.737,118.944 51.737,119.444 50.5,119.5C 47.4534,117.843 46.1201,118.843 46.5,122.5C 47.2625,123.268 48.2625,123.768 49.5,124C 48.8333,124.167 48.1667,124.333 47.5,124.5C 44.6622,122.898 41.6622,122.398 38.5,123C 39.1258,123.75 39.6258,124.584 40,125.5C 42.0266,125.014 44.1933,125.014 46.5,125.5C 39.6561,126.319 32.6561,126.986 25.5,127.5C 24.7375,126.732 23.7375,126.232 22.5,126C 23.5981,125.23 23.5981,124.397 22.5,123.5C 24.5,123.167 26.5,122.833 28.5,122.5C 28.5,123.5 28.5,124.5 28.5,125.5C 32.0823,125.793 33.4157,124.46 32.5,121.5C 33.1667,121.5 33.5,121.167 33.5,120.5C 34.8333,120.167 36.1667,119.833 37.5,119.5C 37.7352,120.097 38.2352,120.43 39,120.5C 42.0357,117.815 45.2024,115.482 48.5,113.5 Z"/></g>
<g><path style="opacity:1" fill="#66574e" d="M 82.5,117.5 C 83.1667,117.5 83.8333,117.5 84.5,117.5C 85.0475,119.485 86.0475,121.151 87.5,122.5C 84.1126,122.788 80.9459,123.788 78,125.5C 74.1578,122.322 71.6578,122.988 70.5,127.5C 68.6096,127.297 67.1096,127.963 66,129.5C 64.9563,128.377 64.2896,127.044 64,125.5C 63.3292,126.252 62.4959,126.586 61.5,126.5C 60.3064,125.223 58.6397,124.556 56.5,124.5C 53.1587,124.836 49.8254,125.169 46.5,125.5C 44.1933,125.014 42.0266,125.014 40,125.5C 39.6258,124.584 39.1258,123.75 38.5,123C 41.6622,122.398 44.6622,122.898 47.5,124.5C 48.1667,124.333 48.8333,124.167 49.5,124C 48.2625,123.768 47.2625,123.268 46.5,122.5C 50.3597,122.192 54.0264,121.525 57.5,120.5C 62.1667,120.5 66.8333,120.5 71.5,120.5C 72.5,120.5 73.5,120.5 74.5,120.5C 75.6085,121.29 76.9419,121.79 78.5,122C 78.1667,122.333 77.8333,122.667 77.5,123C 78.8333,123.667 80.1667,123.667 81.5,123C 80.8333,122.667 80.1667,122.333 79.5,122C 80.8969,120.69 81.8969,119.19 82.5,117.5 Z"/></g>
<g><path style="opacity:1" fill="#787161" d="M 9.5,124.5 C 8.06873,125.78 7.40206,127.447 7.5,129.5C 8.5,129.5 9.5,129.5 10.5,129.5C 7.00323,130.402 3.33656,131.069 -0.5,131.5C -0.5,129.167 -0.5,126.833 -0.5,124.5C 2.99883,123.556 6.33216,123.556 9.5,124.5 Z"/></g>
<g><path style="opacity:1" fill="#417719" d="M 61.5,126.5 C 58.2609,127.462 55.2609,128.795 52.5,130.5C 47.2032,129.725 41.8699,129.392 36.5,129.5C 29.5596,128.883 22.5596,128.883 15.5,129.5C 18.6557,128.566 21.9891,127.899 25.5,127.5C 32.6561,126.986 39.6561,126.319 46.5,125.5C 49.8254,125.169 53.1587,124.836 56.5,124.5C 58.6397,124.556 60.3064,125.223 61.5,126.5 Z"/></g>
<g><path style="opacity:1" fill="#393a3e" d="M 120.5,121.5 C 120.435,121.062 120.601,120.728 121,120.5C 121.333,121.167 121.667,121.833 122,122.5C 122.884,119.347 124.05,119.014 125.5,121.5C 124.308,122.566 124.641,123.399 126.5,124C 130.51,124.357 134.51,124.19 138.5,123.5C 138.5,124.5 138.5,125.5 138.5,126.5C 140.921,126.122 143.254,125.455 145.5,124.5C 147.941,123.244 150.274,123.244 152.5,124.5C 146.319,126.206 140.319,128.206 134.5,130.5C 133.5,130.5 132.5,130.5 131.5,130.5C 123.186,128.804 114.853,127.637 106.5,127C 107.328,127.915 108.328,128.581 109.5,129C 107.285,130.044 104.952,130.71 102.5,131C 92.172,131.5 81.8387,131.666 71.5,131.5C 65.1308,131.653 58.7974,131.32 52.5,130.5C 55.2609,128.795 58.2609,127.462 61.5,126.5C 62.4959,126.586 63.3292,126.252 64,125.5C 64.2896,127.044 64.9563,128.377 66,129.5C 67.1096,127.963 68.6096,127.297 70.5,127.5C 71.6578,122.988 74.1578,122.322 78,125.5C 80.9459,123.788 84.1126,122.788 87.5,122.5C 92.4635,123.254 97.4635,123.587 102.5,123.5C 102.5,122.167 102.5,120.833 102.5,119.5C 104.942,119.354 105.609,120.187 104.5,122C 110.207,125.48 115.54,125.314 120.5,121.5 Z"/></g>
<g><path style="opacity:1" fill="#839db6" d="M 157.5,123.5 C 157.5,125.833 157.5,128.167 157.5,130.5C 151.99,131.684 146.49,131.684 141,130.5C 139.333,131.167 137.667,131.833 136,132.5C 134.97,132.164 134.47,131.497 134.5,130.5C 140.319,128.206 146.319,126.206 152.5,124.5C 154.042,123.699 155.708,123.366 157.5,123.5 Z"/></g>
<g><path style="opacity:1" fill="#366a24" d="M 131.5,130.5 C 128.659,131.669 125.659,132.669 122.5,133.5C 122.38,132.414 121.713,131.747 120.5,131.5C 116.45,133.598 112.117,134.932 107.5,135.5C 105.286,135.389 103.286,134.722 101.5,133.5C 91.5,132.833 81.5,132.167 71.5,131.5C 81.8387,131.666 92.172,131.5 102.5,131C 104.952,130.71 107.285,130.044 109.5,129C 108.328,128.581 107.328,127.915 106.5,127C 114.853,127.637 123.186,128.804 131.5,130.5 Z"/></g>
<g><path style="opacity:1" fill="#6f9920" d="M 36.5,129.5 C 41.8699,129.392 47.2032,129.725 52.5,130.5C 58.7974,131.32 65.1308,131.653 71.5,131.5C 81.5,132.167 91.5,132.833 101.5,133.5C 98.272,134.414 94.9387,134.747 91.5,134.5C 89.3037,134.41 87.137,134.077 85,133.5C 75.2575,136.184 65.5908,135.851 56,132.5C 50.5951,133.709 45.0951,134.376 39.5,134.5C 30.9926,134.57 22.6593,133.904 14.5,132.5C 16.9476,131.471 19.6143,130.804 22.5,130.5C 25.4059,131.528 28.2393,131.528 31,130.5C 31.3076,131.308 31.8076,131.975 32.5,132.5C 33.9014,131.479 35.2347,130.479 36.5,129.5 Z"/></g>
<g><path style="opacity:1" fill="#8795a5" d="M 131.5,130.5 C 132.5,130.5 133.5,130.5 134.5,130.5C 134.47,131.497 134.97,132.164 136,132.5C 137.667,131.833 139.333,131.167 141,130.5C 146.49,131.684 151.99,131.684 157.5,130.5C 157.5,132.5 157.5,134.5 157.5,136.5C 152.115,138.842 146.449,140.009 140.5,140C 142.167,140.333 143.833,140.667 145.5,141C 141.808,142.515 138.141,144.015 134.5,145.5C 133.848,144.275 132.681,143.608 131,143.5C 127.845,144.278 124.678,144.445 121.5,144C 125.538,142.05 129.872,140.883 134.5,140.5C 131.215,139.676 127.882,139.176 124.5,139C 129.104,137.542 129.271,136.709 125,136.5C 121.567,137.74 118.067,138.74 114.5,139.5C 112.962,139.547 111.962,138.88 111.5,137.5C 115.248,136.142 118.914,134.809 122.5,133.5C 125.659,132.669 128.659,131.669 131.5,130.5 Z"/></g>
<g><path style="opacity:1" fill="#3e7e11" d="M 14.5,132.5 C 22.6593,133.904 30.9926,134.57 39.5,134.5C 45.0951,134.376 50.5951,133.709 56,132.5C 65.5908,135.851 75.2575,136.184 85,133.5C 87.137,134.077 89.3037,134.41 91.5,134.5C 88.7719,135.205 85.9386,135.872 83,136.5C 81.3718,135.903 79.7051,136.237 78,137.5C 77.4387,136.978 76.772,136.645 76,136.5C 74.5936,137.414 73.0936,138.08 71.5,138.5C 62.4465,138.222 53.4465,138.556 44.5,139.5C 38.5204,138.484 32.3537,137.817 26,137.5C 22.5111,137.67 19.3445,138.003 16.5,138.5C 13.2519,137.355 9.91852,136.521 6.5,136C 7.16667,135.667 7.83333,135.333 8.5,135C 7.06199,134.781 5.72865,134.281 4.5,133.5C 7.92026,132.194 11.2536,131.86 14.5,132.5 Z"/></g>
<g><path style="opacity:1" fill="#5c900c" d="M 36.5,129.5 C 35.2347,130.479 33.9014,131.479 32.5,132.5C 31.8076,131.975 31.3076,131.308 31,130.5C 28.2393,131.528 25.4059,131.528 22.5,130.5C 19.6143,130.804 16.9476,131.471 14.5,132.5C 11.2536,131.86 7.92026,132.194 4.5,133.5C 5.72865,134.281 7.06199,134.781 8.5,135C 7.83333,135.333 7.16667,135.667 6.5,136C 9.91852,136.521 13.2519,137.355 16.5,138.5C 19.3445,138.003 22.5111,137.67 26,137.5C 32.3537,137.817 38.5204,138.484 44.5,139.5C 38.348,139.497 32.5147,140.83 27,143.5C 22.2167,143.555 17.3834,143.221 12.5,142.5C 10.9745,142.994 9.64115,143.661 8.5,144.5C 5.45517,144.492 2.45517,144.159 -0.5,143.5C -0.5,139.5 -0.5,135.5 -0.5,131.5C 3.33656,131.069 7.00323,130.402 10.5,129.5C 12.1667,129.5 13.8333,129.5 15.5,129.5C 22.5596,128.883 29.5596,128.883 36.5,129.5 Z"/></g>
<g><path style="opacity:1" fill="#4f8026" d="M 122.5,133.5 C 118.914,134.809 115.248,136.142 111.5,137.5C 106.596,138.799 101.929,140.466 97.5,142.5C 93.8835,142.899 90.5502,143.899 87.5,145.5C 86.8333,145.5 86.1667,145.5 85.5,145.5C 87.0603,143.871 86.727,142.704 84.5,142C 87.0472,141.34 89.5472,141.507 92,142.5C 93.1685,141.991 94.0019,141.158 94.5,140C 88.1184,138.886 80.4517,138.386 71.5,138.5C 73.0936,138.08 74.5936,137.414 76,136.5C 76.772,136.645 77.4387,136.978 78,137.5C 79.7051,136.237 81.3718,135.903 83,136.5C 85.9386,135.872 88.7719,135.205 91.5,134.5C 94.9387,134.747 98.272,134.414 101.5,133.5C 103.286,134.722 105.286,135.389 107.5,135.5C 112.117,134.932 116.45,133.598 120.5,131.5C 121.713,131.747 122.38,132.414 122.5,133.5 Z"/></g>
<g><path style="opacity:1" fill="#6e961c" d="M 71.5,138.5 C 80.4517,138.386 88.1184,138.886 94.5,140C 94.0019,141.158 93.1685,141.991 92,142.5C 89.5472,141.507 87.0472,141.34 84.5,142C 86.727,142.704 87.0603,143.871 85.5,145.5C 74.8333,145.5 64.1667,145.5 53.5,145.5C 52.5,145.5 51.5,145.5 50.5,145.5C 36.6766,144.504 22.6766,144.171 8.5,144.5C 9.64115,143.661 10.9745,142.994 12.5,142.5C 17.3834,143.221 22.2167,143.555 27,143.5C 32.5147,140.83 38.348,139.497 44.5,139.5C 53.4465,138.556 62.4465,138.222 71.5,138.5 Z"/></g>
<g><path style="opacity:1" fill="#7a8547" d="M -0.5,143.5 C 2.45517,144.159 5.45517,144.492 8.5,144.5C 22.6766,144.171 36.6766,144.504 50.5,145.5C 43.5,145.5 36.5,145.5 29.5,145.5C 23.1667,145.5 16.8333,145.5 10.5,145.5C 6.83333,145.5 3.16667,145.5 -0.5,145.5C -0.5,144.833 -0.5,144.167 -0.5,143.5 Z"/></g>
<g><path style="opacity:1" fill="#cbafa2" d="M 97.5,142.5 C 98.8333,143.833 98.8333,145.167 97.5,146.5C 94.1401,146.384 90.8067,146.051 87.5,145.5C 90.5502,143.899 93.8835,142.899 97.5,142.5 Z"/></g>
<g><path style="opacity:1" fill="#f2bd91" d="M -0.5,145.5 C 3.16667,145.5 6.83333,145.5 10.5,145.5C 11.5676,146.434 12.901,146.768 14.5,146.5C 14.33,147.822 14.6634,148.989 15.5,150C 14.2068,150.49 12.8734,150.657 11.5,150.5C 11.5,149.5 11.5,148.5 11.5,147.5C 9.83333,147.5 8.16667,147.5 6.5,147.5C 6.5,148.5 6.5,149.5 6.5,150.5C 6.16667,150.5 5.83333,150.5 5.5,150.5C 3.5,150.5 1.5,150.5 -0.5,150.5C -0.5,148.833 -0.5,147.167 -0.5,145.5 Z"/></g>
<g><path style="opacity:1" fill="#858b93" d="M 134.5,145.5 C 131.421,147.02 128.088,147.853 124.5,148C 122.26,150.087 119.927,151.921 117.5,153.5C 114.59,153.456 113.59,152.29 114.5,150C 111.47,148.282 108.803,148.782 106.5,151.5C 104.257,152.474 101.924,152.808 99.5,152.5C 99.3964,150.297 98.7298,148.297 97.5,146.5C 98.8333,145.167 98.8333,143.833 97.5,142.5C 101.929,140.466 106.596,138.799 111.5,137.5C 111.962,138.88 112.962,139.547 114.5,139.5C 118.067,138.74 121.567,137.74 125,136.5C 129.271,136.709 129.104,137.542 124.5,139C 127.882,139.176 131.215,139.676 134.5,140.5C 129.872,140.883 125.538,142.05 121.5,144C 124.678,144.445 127.845,144.278 131,143.5C 132.681,143.608 133.848,144.275 134.5,145.5 Z"/></g>
<g><path style="opacity:1" fill="#fbe72b" d="M 11.5,150.5 C 9.83333,150.5 8.16667,150.5 6.5,150.5C 6.5,149.5 6.5,148.5 6.5,147.5C 8.16667,147.5 9.83333,147.5 11.5,147.5C 11.5,148.5 11.5,149.5 11.5,150.5 Z"/></g>
<g><path style="opacity:1" fill="#978a86" d="M 14.5,146.5 C 18.5138,146.334 22.5138,146.501 26.5,147C 25.8333,147.333 25.1667,147.667 24.5,148C 25.938,148.219 27.2713,148.719 28.5,149.5C 25.0227,150.167 21.6893,150.834 18.5,151.5C 14.7604,151.241 11.0938,151.574 7.5,152.5C 6.4777,152.145 5.81103,151.478 5.5,150.5C 5.83333,150.5 6.16667,150.5 6.5,150.5C 8.16667,150.5 9.83333,150.5 11.5,150.5C 12.8734,150.657 14.2068,150.49 15.5,150C 14.6634,148.989 14.33,147.822 14.5,146.5 Z"/></g>
<g><path style="opacity:1" fill="#a3acb8" d="M 10.5,145.5 C 16.8333,145.5 23.1667,145.5 29.5,145.5C 30.4132,147.086 30.4132,148.586 29.5,150C 30.8333,150.167 32.1667,150.333 33.5,150.5C 40.0619,147.971 46.7285,146.304 53.5,145.5C 64.1667,145.5 74.8333,145.5 85.5,145.5C 86.1667,145.5 86.8333,145.5 87.5,145.5C 90.8067,146.051 94.1401,146.384 97.5,146.5C 98.7298,148.297 99.3964,150.297 99.5,152.5C 93.1579,152.666 86.8246,152.5 80.5,152C 80.1667,151.667 79.8333,151.333 79.5,151C 82.658,149.531 85.9914,148.531 89.5,148C 85.2695,146.71 80.9362,146.21 76.5,146.5C 71.1563,146.334 65.8229,146.501 60.5,147C 58.9638,148.468 58.6304,149.968 59.5,151.5C 45.8333,151.5 32.1667,151.5 18.5,151.5C 21.6893,150.834 25.0227,150.167 28.5,149.5C 27.2713,148.719 25.938,148.219 24.5,148C 25.1667,147.667 25.8333,147.333 26.5,147C 22.5138,146.501 18.5138,146.334 14.5,146.5C 12.901,146.768 11.5676,146.434 10.5,145.5 Z"/></g>
<g><path style="opacity:1" fill="#dfc8c2" d="M 76.5,146.5 C 75.483,148.911 73.8163,150.578 71.5,151.5C 69.1667,151.5 66.8333,151.5 64.5,151.5C 63.5,151.5 62.5,151.5 61.5,151.5C 60.8333,151.5 60.1667,151.5 59.5,151.5C 58.6304,149.968 58.9638,148.468 60.5,147C 65.8229,146.501 71.1563,146.334 76.5,146.5 Z"/></g>
<g><path style="opacity:1" fill="#b7cbe0" d="M 29.5,145.5 C 36.5,145.5 43.5,145.5 50.5,145.5C 51.5,145.5 52.5,145.5 53.5,145.5C 46.7285,146.304 40.0619,147.971 33.5,150.5C 32.1667,150.333 30.8333,150.167 29.5,150C 30.4132,148.586 30.4132,147.086 29.5,145.5 Z"/></g>
<g><path style="opacity:1" fill="#8191a4" d="M 157.5,141.5 C 157.5,145.833 157.5,150.167 157.5,154.5C 151.5,154.5 145.5,154.5 139.5,154.5C 136.311,153.834 132.977,153.167 129.5,152.5C 133.319,151.308 136.985,149.808 140.5,148C 139.833,147.667 139.167,147.333 138.5,147C 142.152,146.501 145.818,146.335 149.5,146.5C 149.5,144.833 149.5,143.167 149.5,141.5C 152.167,141.5 154.833,141.5 157.5,141.5 Z"/></g>
<g><path style="opacity:1" fill="#4c5263" d="M -0.5,150.5 C 1.5,150.5 3.5,150.5 5.5,150.5C 5.81103,151.478 6.4777,152.145 7.5,152.5C 11.0938,151.574 14.7604,151.241 18.5,151.5C 32.1667,151.5 45.8333,151.5 59.5,151.5C 60.1667,151.5 60.8333,151.5 61.5,151.5C 41.0422,154.808 20.3755,157.474 -0.5,159.5C -0.5,156.5 -0.5,153.5 -0.5,150.5 Z"/></g>
<g><path style="opacity:1" fill="#a9bcd6" d="M 76.5,146.5 C 80.9362,146.21 85.2695,146.71 89.5,148C 85.9914,148.531 82.658,149.531 79.5,151C 79.8333,151.333 80.1667,151.667 80.5,152C 86.8246,152.5 93.1579,152.666 99.5,152.5C 97.444,153.199 95.444,154.199 93.5,155.5C 92.3926,154.978 91.2259,154.645 90,154.5C 85.8555,155.164 81.6888,155.664 77.5,156C 76.0403,156.811 75.707,157.645 76.5,158.5C 79.1029,157.438 81.7695,157.272 84.5,158C 82.5,158.333 80.5,158.667 78.5,159C 80.2556,159.202 81.9223,159.702 83.5,160.5C 82.9747,161.192 82.3081,161.692 81.5,162C 78.1777,161.594 74.8444,160.76 71.5,159.5C 73.2986,158.73 74.6319,157.397 75.5,155.5C 74.9747,154.808 74.3081,154.308 73.5,154C 73.8333,153.667 74.1667,153.333 74.5,153C 73.2625,152.768 72.2625,152.268 71.5,151.5C 73.8163,150.578 75.483,148.911 76.5,146.5 Z"/></g>
<g><path style="opacity:1" fill="#90a7c5" d="M 157.5,136.5 C 157.5,138.167 157.5,139.833 157.5,141.5C 154.833,141.5 152.167,141.5 149.5,141.5C 149.5,143.167 149.5,144.833 149.5,146.5C 145.818,146.335 142.152,146.501 138.5,147C 139.167,147.333 139.833,147.667 140.5,148C 136.985,149.808 133.319,151.308 129.5,152.5C 132.977,153.167 136.311,153.834 139.5,154.5C 129.313,154.717 119.146,154.384 109,153.5C 105.477,153.837 101.977,154.337 98.5,155C 95.7855,156.794 92.7855,157.96 89.5,158.5C 88.2528,160.323 87.5861,162.323 87.5,164.5C 88.8333,164.5 90.1667,164.5 91.5,164.5C 89.7451,165.792 87.7451,166.792 85.5,167.5C 86.7442,169.133 86.2442,170.133 84,170.5C 78.4205,170.667 72.9205,170.333 67.5,169.5C 80.2375,169.297 80.5708,167.797 68.5,165C 70.779,164.527 72.779,163.527 74.5,162C 73.1667,161.667 71.8333,161.333 70.5,161C 71.056,160.617 71.3893,160.117 71.5,159.5C 74.8444,160.76 78.1777,161.594 81.5,162C 82.3081,161.692 82.9747,161.192 83.5,160.5C 81.9223,159.702 80.2556,159.202 78.5,159C 80.5,158.667 82.5,158.333 84.5,158C 81.7695,157.272 79.1029,157.438 76.5,158.5C 75.707,157.645 76.0403,156.811 77.5,156C 81.6888,155.664 85.8555,155.164 90,154.5C 91.2259,154.645 92.3926,154.978 93.5,155.5C 95.444,154.199 97.444,153.199 99.5,152.5C 101.924,152.808 104.257,152.474 106.5,151.5C 108.803,148.782 111.47,148.282 114.5,150C 113.59,152.29 114.59,153.456 117.5,153.5C 119.927,151.921 122.26,150.087 124.5,148C 128.088,147.853 131.421,147.02 134.5,145.5C 138.141,144.015 141.808,142.515 145.5,141C 143.833,140.667 142.167,140.333 140.5,140C 146.449,140.009 152.115,138.842 157.5,136.5 Z"/></g>
<g><path style="opacity:1" fill="#c5d2eb" d="M 64.5,151.5 C 66.8333,151.5 69.1667,151.5 71.5,151.5C 72.2625,152.268 73.2625,152.768 74.5,153C 74.1667,153.333 73.8333,153.667 73.5,154C 74.3081,154.308 74.9747,154.808 75.5,155.5C 74.6319,157.397 73.2986,158.73 71.5,159.5C 70.1667,159.833 68.8333,160.167 67.5,160.5C 65.8828,161.038 64.2161,161.371 62.5,161.5C 62.6882,159.897 62.1882,158.563 61,157.5C 58.9361,158.591 56.7695,158.758 54.5,158C 57.2321,157.587 59.8987,156.92 62.5,156C 61.8333,155.667 61.1667,155.333 60.5,155C 62.0267,153.968 63.36,152.801 64.5,151.5 Z"/></g>
<g><path style="opacity:1" fill="#afcbea" d="M 61.5,151.5 C 62.5,151.5 63.5,151.5 64.5,151.5C 63.36,152.801 62.0267,153.968 60.5,155C 61.1667,155.333 61.8333,155.667 62.5,156C 59.8987,156.92 57.2321,157.587 54.5,158C 56.7695,158.758 58.9361,158.591 61,157.5C 62.1882,158.563 62.6882,159.897 62.5,161.5C 64.2161,161.371 65.8828,161.038 67.5,160.5C 65.2202,162.051 62.7202,163.385 60,164.5C 58.6349,163.544 57.1349,162.878 55.5,162.5C 48.6309,166.695 41.2976,167.862 33.5,166C 38.8552,163.382 44.5219,161.715 50.5,161C 51.8882,160.111 51.7215,159.611 50,159.5C 46.9875,159.624 43.8208,159.791 40.5,160C 33.2703,161.799 25.937,163.465 18.5,165C 12.2041,166.012 5.87077,166.512 -0.5,166.5C -0.5,164.167 -0.5,161.833 -0.5,159.5C 20.3755,157.474 41.0422,154.808 61.5,151.5 Z"/></g>
<g><path style="opacity:1" fill="#9fbfe1" d="M 139.5,154.5 C 145.5,154.5 151.5,154.5 157.5,154.5C 157.5,157.833 157.5,161.167 157.5,164.5C 152.272,163.444 148.939,165.444 147.5,170.5C 145.84,171.172 144.507,172.172 143.5,173.5C 136.443,173.76 129.443,173.427 122.5,172.5C 120.842,171.819 119.175,170.985 117.5,170C 119.901,169.195 119.734,168.362 117,167.5C 114.871,168.863 114.371,168.529 115.5,166.5C 112.966,165.223 110.466,165.223 108,166.5C 106.509,164.996 104.676,164.163 102.5,164C 104.731,162.853 107.065,161.853 109.5,161C 108.167,159.16 108.334,158.66 110,159.5C 110.982,158.241 111.315,156.908 111,155.5C 105.062,157.69 99.5623,160.356 94.5,163.5C 93.391,163.557 92.391,163.89 91.5,164.5C 90.1667,164.5 88.8333,164.5 87.5,164.5C 87.5861,162.323 88.2528,160.323 89.5,158.5C 92.7855,157.96 95.7855,156.794 98.5,155C 101.977,154.337 105.477,153.837 109,153.5C 119.146,154.384 129.313,154.717 139.5,154.5 Z"/></g>
<g><path style="opacity:1" fill="#8facd0" d="M 122.5,172.5 C 110.856,171.639 99.1897,171.305 87.5,171.5C 87.281,170.325 87.6143,169.325 88.5,168.5C 91.3286,167.253 93.9952,165.753 96.5,164C 95.9056,163.536 95.2389,163.369 94.5,163.5C 99.5623,160.356 105.062,157.69 111,155.5C 111.315,156.908 110.982,158.241 110,159.5C 108.334,158.66 108.167,159.16 109.5,161C 107.065,161.853 104.731,162.853 102.5,164C 104.676,164.163 106.509,164.996 108,166.5C 110.466,165.223 112.966,165.223 115.5,166.5C 114.371,168.529 114.871,168.863 117,167.5C 119.734,168.362 119.901,169.195 117.5,170C 119.175,170.985 120.842,171.819 122.5,172.5 Z"/></g>
<g><path style="opacity:1" fill="#95aed0" d="M 67.5,160.5 C 68.8333,160.167 70.1667,159.833 71.5,159.5C 71.3893,160.117 71.056,160.617 70.5,161C 71.8333,161.333 73.1667,161.667 74.5,162C 72.779,163.527 70.779,164.527 68.5,165C 80.5708,167.797 80.2375,169.297 67.5,169.5C 63.5,169.5 59.5,169.5 55.5,169.5C 46.5,169.5 37.5,169.5 28.5,169.5C 23.7663,168.176 18.9329,168.176 14,169.5C 9.29834,167.394 4.465,167.061 -0.5,168.5C -0.5,167.833 -0.5,167.167 -0.5,166.5C 5.87077,166.512 12.2041,166.012 18.5,165C 25.937,163.465 33.2703,161.799 40.5,160C 43.8208,159.791 46.9875,159.624 50,159.5C 51.7215,159.611 51.8882,160.111 50.5,161C 44.5219,161.715 38.8552,163.382 33.5,166C 41.2976,167.862 48.6309,166.695 55.5,162.5C 57.1349,162.878 58.6349,163.544 60,164.5C 62.7202,163.385 65.2202,162.051 67.5,160.5 Z"/></g>
<g><path style="opacity:1" fill="#83a2c3" d="M 157.5,164.5 C 157.5,168.167 157.5,171.833 157.5,175.5C 155.167,175.5 152.833,175.5 150.5,175.5C 148.167,174.833 145.833,174.167 143.5,173.5C 144.507,172.172 145.84,171.172 147.5,170.5C 148.939,165.444 152.272,163.444 157.5,164.5 Z"/></g>
<g><path style="opacity:1" fill="#6d6a75" d="M 28.5,169.5 C 25.1501,169.335 21.8168,169.502 18.5,170C 17.944,170.383 17.6107,170.883 17.5,171.5C 11.5,171.5 5.5,171.5 -0.5,171.5C -0.5,170.5 -0.5,169.5 -0.5,168.5C 4.465,167.061 9.29834,167.394 14,169.5C 18.9329,168.176 23.7663,168.176 28.5,169.5 Z"/></g>
<g><path style="opacity:1" fill="#4d596f" d="M 28.5,169.5 C 37.5,169.5 46.5,169.5 55.5,169.5C 57.631,170.314 59.9644,170.814 62.5,171C 87.4945,172.348 112.495,173.515 137.5,174.5C 137.209,175.649 136.376,176.316 135,176.5C 123.518,175.398 112.018,174.898 100.5,175C 118.328,177.298 136.328,178.798 154.5,179.5C 145.014,179.927 135.347,179.927 125.5,179.5C 111.512,177.795 97.5122,176.795 83.5,176.5C 88.6509,175.673 93.9842,175.173 99.5,175C 72.1879,173.234 44.8546,172.067 17.5,171.5C 17.6107,170.883 17.944,170.383 18.5,170C 21.8168,169.502 25.1501,169.335 28.5,169.5 Z"/></g>
<g><path style="opacity:1" fill="#8a91a4" d="M 94.5,163.5 C 95.2389,163.369 95.9056,163.536 96.5,164C 93.9952,165.753 91.3286,167.253 88.5,168.5C 87.6143,169.325 87.281,170.325 87.5,171.5C 99.1897,171.305 110.856,171.639 122.5,172.5C 129.443,173.427 136.443,173.76 143.5,173.5C 145.833,174.167 148.167,174.833 150.5,175.5C 146.069,175.769 141.735,175.436 137.5,174.5C 112.495,173.515 87.4945,172.348 62.5,171C 59.9644,170.814 57.631,170.314 55.5,169.5C 59.5,169.5 63.5,169.5 67.5,169.5C 72.9205,170.333 78.4205,170.667 84,170.5C 86.2442,170.133 86.7442,169.133 85.5,167.5C 87.7451,166.792 89.7451,165.792 91.5,164.5C 92.391,163.89 93.391,163.557 94.5,163.5 Z"/></g>
<g><path style="opacity:1" fill="#6c7c96" d="M 137.5,174.5 C 141.735,175.436 146.069,175.769 150.5,175.5C 152.833,175.5 155.167,175.5 157.5,175.5C 157.5,175.833 157.5,176.167 157.5,176.5C 156.833,177.5 156.167,178.5 155.5,179.5C 155.167,179.5 154.833,179.5 154.5,179.5C 136.328,178.798 118.328,177.298 100.5,175C 112.018,174.898 123.518,175.398 135,176.5C 136.376,176.316 137.209,175.649 137.5,174.5 Z"/></g>
<g><path style="opacity:1" fill="#81819b" d="M -0.5,171.5 C 5.5,171.5 11.5,171.5 17.5,171.5C 44.8546,172.067 72.1879,173.234 99.5,175C 93.9842,175.173 88.6509,175.673 83.5,176.5C 74.1416,175.998 64.8082,175.165 55.5,174C 45.1506,173.168 34.8172,173.334 24.5,174.5C 20.1774,177.834 15.1774,179.334 9.5,179C 17.2993,180.713 17.2993,181.546 9.5,181.5C 7.5,181.167 5.5,180.833 3.5,180.5C 5.00638,179.253 6.50638,179.253 8,180.5C 8.74939,179.365 8.58272,178.365 7.5,177.5C 5.27267,178.053 2.93934,178.053 0.5,177.5C 0.5,176.833 0.166667,176.5 -0.5,176.5C -0.5,174.833 -0.5,173.167 -0.5,171.5 Z"/></g>
<g><path style="opacity:1" fill="#566a91" d="M 83.5,176.5 C 97.5122,176.795 111.512,177.795 125.5,179.5C 124.737,180.268 123.737,180.768 122.5,181C 123.167,181.333 123.833,181.667 124.5,182C 122.833,182.167 121.167,182.333 119.5,182.5C 115.169,180.989 110.836,180.322 106.5,180.5C 105.739,179.609 104.739,178.942 103.5,178.5C 97.8551,183.118 91.6884,183.785 85,180.5C 80.9703,181.897 76.8036,182.897 72.5,183.5C 71.8551,184.646 71.0217,185.646 70,186.5C 66.4159,184.592 63.0826,182.259 60,179.5C 55.5083,178.454 51.0083,177.454 46.5,176.5C 47.5063,175.604 47.5063,174.938 46.5,174.5C 41.0058,174.451 35.3392,174.617 29.5,175C 31.3939,176.101 32.0606,177.434 31.5,179C 33.1293,179.585 34.6293,180.419 36,181.5C 36.772,181.355 37.4387,181.022 38,180.5C 41.0757,181.288 44.2423,181.788 47.5,182C 45.1667,183.667 42.8333,185.333 40.5,187C 37.4245,187.346 34.4245,188.012 31.5,189C 32.056,189.383 32.3893,189.883 32.5,190.5C 26.1667,190.5 19.8333,190.5 13.5,190.5C 7.21655,188.178 2.88322,183.844 0.5,177.5C 2.93934,178.053 5.27267,178.053 7.5,177.5C 8.58272,178.365 8.74939,179.365 8,180.5C 6.50638,179.253 5.00638,179.253 3.5,180.5C 5.5,180.833 7.5,181.167 9.5,181.5C 17.2993,181.546 17.2993,180.713 9.5,179C 15.1774,179.334 20.1774,177.834 24.5,174.5C 34.8172,173.334 45.1506,173.168 55.5,174C 64.8082,175.165 74.1416,175.998 83.5,176.5 Z"/></g>
<g><path style="opacity:1" fill="#617ba8" d="M 106.5,180.5 C 107.162,182.832 108.495,183.499 110.5,182.5C 111.308,182.808 111.975,183.308 112.5,184C 111.338,184.827 110.171,185.66 109,186.5C 106.801,185.355 104.635,185.355 102.5,186.5C 103.025,187.192 103.692,187.692 104.5,188C 103.748,188.671 103.414,189.504 103.5,190.5C 79.8333,190.5 56.1667,190.5 32.5,190.5C 32.3893,189.883 32.056,189.383 31.5,189C 34.4245,188.012 37.4245,187.346 40.5,187C 42.8333,185.333 45.1667,183.667 47.5,182C 44.2423,181.788 41.0757,181.288 38,180.5C 37.4387,181.022 36.772,181.355 36,181.5C 34.6293,180.419 33.1293,179.585 31.5,179C 32.0606,177.434 31.3939,176.101 29.5,175C 35.3392,174.617 41.0058,174.451 46.5,174.5C 47.5063,174.938 47.5063,175.604 46.5,176.5C 51.0083,177.454 55.5083,178.454 60,179.5C 63.0826,182.259 66.4159,184.592 70,186.5C 71.0217,185.646 71.8551,184.646 72.5,183.5C 76.8036,182.897 80.9703,181.897 85,180.5C 91.6884,183.785 97.8551,183.118 103.5,178.5C 104.739,178.942 105.739,179.609 106.5,180.5 Z"/></g>
<g><path style="opacity:1" fill="#577ba9" d="M 125.5,179.5 C 135.347,179.927 145.014,179.927 154.5,179.5C 154.833,179.5 155.167,179.5 155.5,179.5C 152.774,184.56 148.774,188.226 143.5,190.5C 130.167,190.5 116.833,190.5 103.5,190.5C 103.414,189.504 103.748,188.671 104.5,188C 103.692,187.692 103.025,187.192 102.5,186.5C 104.635,185.355 106.801,185.355 109,186.5C 110.171,185.66 111.338,184.827 112.5,184C 111.975,183.308 111.308,182.808 110.5,182.5C 108.495,183.499 107.162,182.832 106.5,180.5C 110.836,180.322 115.169,180.989 119.5,182.5C 121.167,182.333 122.833,182.167 124.5,182C 123.833,181.667 123.167,181.333 122.5,181C 123.737,180.768 124.737,180.268 125.5,179.5 Z"/></g>
</svg>
