<?xml version="1.0" encoding="UTF-8"?>
<!DOCTYPE svg PUBLIC "-//W3C//DTD SVG 1.1//EN" "http://www.w3.org/Graphics/SVG/1.1/DTD/svg11.dtd">
<svg xmlns="http://www.w3.org/2000/svg" version="1.1" width="158px" height="191px" style="shape-rendering:geometricPrecision; text-rendering:geometricPrecision; image-rendering:optimizeQuality; fill-rule:evenodd; clip-rule:evenodd" xmlns:xlink="http://www.w3.org/1999/xlink">
<g><path style="opacity:0.998" fill="#b9e1ef" d="M 13.5,-0.5 C 16.1667,-0.5 18.8333,-0.5 21.5,-0.5C 22.5761,3.60014 24.5761,7.26681 27.5,10.5C 33.8233,15.3304 40.1567,20.1637 46.5,25C 49.3151,27.0743 52.3151,28.5743 55.5,29.5C 50.281,28.9066 49.6144,29.9066 53.5,32.5C 54.086,32.2907 54.586,31.9574 55,31.5C 58.6831,34.1849 61.6831,37.5182 64,41.5C 64.3333,41.1667 64.6667,40.8333 65,40.5C 65.7845,42.286 66.9512,43.786 68.5,45C 66.6498,44.4052 64.6498,43.9052 62.5,43.5C 62.5,44.5 62.5,45.5 62.5,46.5C 57.724,43.8512 52.724,41.6845 47.5,40C 42.4549,36.9946 37.7882,32.9946 33.5,28C 29.9089,27.5358 26.9089,26.0358 24.5,23.5C 21.4754,19.9761 18.6421,16.3094 16,12.5C 14.812,8.38671 12.9786,4.72005 10.5,1.5C 11.5,0.833333 12.5,0.166667 13.5,-0.5 Z"/></g>
<g><path style="opacity:1" fill="#b1e1f0" d="M 21.5,-0.5 C 24.8333,-0.5 28.1667,-0.5 31.5,-0.5C 32.5114,1.37156 33.3448,3.37156 34,5.5C 34.3333,5.16667 34.6667,4.83333 35,4.5C 37.8713,8.03074 41.3713,10.8641 45.5,13C 44.1373,15.1293 44.4706,15.6293 46.5,14.5C 48.8697,17.0309 51.8697,18.5309 55.5,19C 54.5494,19.7175 54.3828,20.5509 55,21.5C 55.9147,20.6721 56.5814,19.6721 57,18.5C 59.6344,19.955 62.1344,21.6217 64.5,23.5C 67.9559,21.7296 71.2893,21.7296 74.5,23.5C 75.7678,22.5721 77.1011,22.4054 78.5,23C 77.3044,23.6543 77.3044,24.1543 78.5,24.5C 85.1209,23.2813 90.9542,24.9479 96,29.5C 97.3946,28.1854 98.3946,28.5188 99,30.5C 99.414,30.0426 99.914,29.7093 100.5,29.5C 108.806,33.3803 117.806,36.3803 127.5,38.5C 131.039,37.7316 134.206,38.7316 137,41.5C 139.846,41.0818 142.68,41.7485 145.5,43.5C 146.086,43.2907 146.586,42.9574 147,42.5C 150.43,43.627 153.93,45.2937 157.5,47.5C 157.5,50.1667 157.5,52.8333 157.5,55.5C 142.606,47.5134 126.939,42.8468 110.5,41.5C 109.758,40.7132 108.925,40.0465 108,39.5C 104.534,40.0731 101.034,40.4064 97.5,40.5C 95.2674,40.1355 93.434,39.1355 92,37.5C 89.968,39.7682 88.6346,39.1015 88,35.5C 87.6667,35.8333 87.3333,36.1667 87,36.5C 85.9914,35.3418 84.6581,34.6752 83,34.5C 80.7242,33.8501 78.5575,33.8501 76.5,34.5C 75.1804,32.7299 73.6804,32.3966 72,33.5C 66.2945,32.8536 60.7945,31.5203 55.5,29.5C 52.3151,28.5743 49.3151,27.0743 46.5,25C 40.1567,20.1637 33.8233,15.3304 27.5,10.5C 24.5761,7.26681 22.5761,3.60014 21.5,-0.5 Z"/></g>
<g><path style="opacity:1" fill="#aae0f3" d="M 51.5,-0.5 C 65.8333,-0.5 80.1667,-0.5 94.5,-0.5C 96.2225,1.25279 97.7225,3.25279 99,5.5C 99.7247,4.94149 100.558,4.60816 101.5,4.5C 104.755,5.64061 108.089,6.47394 111.5,7C 112.5,8 113.5,9 114.5,10C 113.833,10.3333 113.167,10.6667 112.5,11C 113.784,11.6838 114.951,11.5171 116,10.5C 116.492,11.549 116.326,12.549 115.5,13.5C 116.376,14.2508 117.376,14.7508 118.5,15C 118,15.5 117.5,16 117,16.5C 113.935,15.0467 111.269,13.0467 109,10.5C 107.127,11.0891 105.46,10.4224 104,8.5C 102.605,9.81457 101.605,9.48123 101,7.5C 99.3196,8.60344 97.8196,8.27011 96.5,6.5C 95.914,6.70931 95.414,7.04265 95,7.5C 94,6.16667 93,4.83333 92,3.5C 90.1341,5.86739 90.6341,7.86739 93.5,9.5C 94.086,9.29069 94.586,8.95735 95,8.5C 100.704,11.5738 106.87,14.5738 113.5,17.5C 113.354,19.9424 114.187,20.6091 116,19.5C 116.483,20.448 116.649,21.448 116.5,22.5C 119.915,23.9321 123.415,25.2654 127,26.5C 128,26.1667 129,25.8333 130,25.5C 130.667,28.1667 131.333,28.1667 132,25.5C 135.507,27.666 139.34,28.8327 143.5,29C 144.701,29.9025 145.535,31.0692 146,32.5C 148.585,31.1154 150.585,31.7821 152,34.5C 152.308,33.6919 152.808,33.0253 153.5,32.5C 154.368,34.7962 155.702,35.4629 157.5,34.5C 157.5,36.5 157.5,38.5 157.5,40.5C 153.326,39.1753 148.826,37.8419 144,36.5C 143.667,36.8333 143.333,37.1667 143,37.5C 142.667,36.1667 142.333,34.8333 142,33.5C 140.093,33.4205 138.093,33.7539 136,34.5C 128.607,32.7164 120.94,30.0497 113,26.5C 110.239,28.0172 108.406,27.1838 107.5,24C 103.748,23.5382 100.248,22.3716 97,20.5C 96.6667,20.8333 96.3333,21.1667 96,21.5C 90.4876,16.9386 84.3209,14.9386 77.5,15.5C 76.4826,12.972 75.3159,12.972 74,15.5C 71.071,15.2021 68.071,15.2021 65,15.5C 60.0799,14.2074 55.7465,11.874 52,8.5C 51.2195,7.05629 51.3861,5.72296 52.5,4.5C 52.7365,5.24717 53.0698,6.0805 53.5,7C 56.8103,6.77124 58.6437,8.27124 59,11.5C 61.801,11.5537 64.6343,11.5537 67.5,11.5C 65.228,10.5147 62.8947,9.68134 60.5,9C 58.6776,6.17929 56.5109,3.67929 54,1.5C 50.969,4.06028 50.1356,3.39361 51.5,-0.5 Z"/></g>
<g><path style="opacity:1" fill="#a4def3" d="M 94.5,-0.5 C 110.833,-0.5 127.167,-0.5 143.5,-0.5C 150.167,2.16667 154.833,6.83333 157.5,13.5C 157.5,20.5 157.5,27.5 157.5,34.5C 155.702,35.4629 154.368,34.7962 153.5,32.5C 152.808,33.0253 152.308,33.6919 152,34.5C 150.585,31.7821 148.585,31.1154 146,32.5C 145.535,31.0692 144.701,29.9025 143.5,29C 139.34,28.8327 135.507,27.666 132,25.5C 131.333,28.1667 130.667,28.1667 130,25.5C 129,25.8333 128,26.1667 127,26.5C 123.415,25.2654 119.915,23.9321 116.5,22.5C 116.649,21.448 116.483,20.448 116,19.5C 114.187,20.6091 113.354,19.9424 113.5,17.5C 106.87,14.5738 100.704,11.5738 95,8.5C 94.586,8.95735 94.086,9.29069 93.5,9.5C 90.6341,7.86739 90.1341,5.86739 92,3.5C 93,4.83333 94,6.16667 95,7.5C 95.414,7.04265 95.914,6.70931 96.5,6.5C 97.8196,8.27011 99.3196,8.60344 101,7.5C 101.605,9.48123 102.605,9.81457 104,8.5C 105.46,10.4224 107.127,11.0891 109,10.5C 111.269,13.0467 113.935,15.0467 117,16.5C 117.5,16 118,15.5 118.5,15C 117.376,14.7508 116.376,14.2508 115.5,13.5C 116.326,12.549 116.492,11.549 116,10.5C 114.951,11.5171 113.784,11.6838 112.5,11C 113.167,10.6667 113.833,10.3333 114.5,10C 113.5,9 112.5,8 111.5,7C 108.089,6.47394 104.755,5.64061 101.5,4.5C 100.558,4.60816 99.7247,4.94149 99,5.5C 97.7225,3.25279 96.2225,1.25279 94.5,-0.5 Z"/></g>
<g><path style="opacity:0.994" fill="#bde2ef" d="M 10.5,1.5 C 12.9786,4.72005 14.812,8.38671 16,12.5C 18.6421,16.3094 21.4754,19.9761 24.5,23.5C 26.9089,26.0358 29.9089,27.5358 33.5,28C 37.7882,32.9946 42.4549,36.9946 47.5,40C 52.724,41.6845 57.724,43.8512 62.5,46.5C 61.962,48.1172 61.6287,49.7839 61.5,51.5C 60.8333,51.8333 60.1667,52.1667 59.5,52.5C 59.5,51.1667 59.5,49.8333 59.5,48.5C 57.1229,48.2155 54.9562,48.2155 53,48.5C 51.8333,47.3333 50.6667,46.1667 49.5,45C 40.3563,41.5918 31.3563,37.9251 22.5,34C 16.181,28.6267 9.68103,22.7933 3,16.5C 3.55823,14.4327 3.05823,12.4327 1.5,10.5C 3.16667,6.16667 6.16667,3.16667 10.5,1.5 Z"/></g>
<g><path style="opacity:1" fill="#ade0f3" d="M 31.5,-0.5 C 38.1667,-0.5 44.8333,-0.5 51.5,-0.5C 50.1356,3.39361 50.969,4.06028 54,1.5C 56.5109,3.67929 58.6776,6.17929 60.5,9C 62.8947,9.68134 65.228,10.5147 67.5,11.5C 64.6343,11.5537 61.801,11.5537 59,11.5C 58.6437,8.27124 56.8103,6.77124 53.5,7C 53.0698,6.0805 52.7365,5.24717 52.5,4.5C 51.3861,5.72296 51.2195,7.05629 52,8.5C 55.7465,11.874 60.0799,14.2074 65,15.5C 68.071,15.2021 71.071,15.2021 74,15.5C 75.3159,12.972 76.4826,12.972 77.5,15.5C 84.3209,14.9386 90.4876,16.9386 96,21.5C 96.3333,21.1667 96.6667,20.8333 97,20.5C 100.248,22.3716 103.748,23.5382 107.5,24C 108.406,27.1838 110.239,28.0172 113,26.5C 120.94,30.0497 128.607,32.7164 136,34.5C 138.093,33.7539 140.093,33.4205 142,33.5C 142.333,34.8333 142.667,36.1667 143,37.5C 143.333,37.1667 143.667,36.8333 144,36.5C 148.826,37.8419 153.326,39.1753 157.5,40.5C 157.5,42.8333 157.5,45.1667 157.5,47.5C 153.93,45.2937 150.43,43.627 147,42.5C 146.586,42.9574 146.086,43.2907 145.5,43.5C 142.68,41.7485 139.846,41.0818 137,41.5C 134.206,38.7316 131.039,37.7316 127.5,38.5C 117.806,36.3803 108.806,33.3803 100.5,29.5C 99.914,29.7093 99.414,30.0426 99,30.5C 98.3946,28.5188 97.3946,28.1854 96,29.5C 90.9542,24.9479 85.1209,23.2813 78.5,24.5C 77.3044,24.1543 77.3044,23.6543 78.5,23C 77.1011,22.4054 75.7678,22.5721 74.5,23.5C 71.2893,21.7296 67.9559,21.7296 64.5,23.5C 62.1344,21.6217 59.6344,19.955 57,18.5C 56.5814,19.6721 55.9147,20.6721 55,21.5C 54.3828,20.5509 54.5494,19.7175 55.5,19C 51.8697,18.5309 48.8697,17.0309 46.5,14.5C 44.4706,15.6293 44.1373,15.1293 45.5,13C 41.3713,10.8641 37.8713,8.03074 35,4.5C 34.6667,4.83333 34.3333,5.16667 34,5.5C 33.3448,3.37156 32.5114,1.37156 31.5,-0.5 Z"/></g>
<g><path style="opacity:1" fill="#c5e3ea" d="M 1.5,10.5 C 3.05823,12.4327 3.55823,14.4327 3,16.5C 9.68103,22.7933 16.181,28.6267 22.5,34C 31.3563,37.9251 40.3563,41.5918 49.5,45C 50.6667,46.1667 51.8333,47.3333 53,48.5C 54.9562,48.2155 57.1229,48.2155 59.5,48.5C 59.5,49.8333 59.5,51.1667 59.5,52.5C 57.7697,53.0256 56.4363,54.0256 55.5,55.5C 46.8501,59.8039 38.1835,64.1373 29.5,68.5C 27.0303,66.9183 25.5303,64.585 25,61.5C 22.961,59.1255 20.6277,57.1255 18,55.5C 17.378,53.2686 16.2113,51.4352 14.5,50C 15.4506,49.2825 15.6172,48.4491 15,47.5C 12.7632,45.3529 10.7632,43.0196 9,40.5C 8.66667,41.1667 8.33333,41.8333 8,42.5C 5.87923,39.349 3.0459,37.0157 -0.5,35.5C -0.5,28.1667 -0.5,20.8333 -0.5,13.5C 0.166667,12.5 0.833333,11.5 1.5,10.5 Z"/></g>
<g><path style="opacity:1" fill="#b6dfee" d="M 55.5,29.5 C 60.7945,31.5203 66.2945,32.8536 72,33.5C 73.6804,32.3966 75.1804,32.7299 76.5,34.5C 78.5575,33.8501 80.7242,33.8501 83,34.5C 84.6581,34.6752 85.9914,35.3418 87,36.5C 87.3333,36.1667 87.6667,35.8333 88,35.5C 88.6346,39.1015 89.968,39.7682 92,37.5C 93.434,39.1355 95.2674,40.1355 97.5,40.5C 101.034,40.4064 104.534,40.0731 108,39.5C 108.925,40.0465 109.758,40.7132 110.5,41.5C 126.939,42.8468 142.606,47.5134 157.5,55.5C 157.5,57.8333 157.5,60.1667 157.5,62.5C 154.482,62.6646 151.482,62.498 148.5,62C 142.67,57.9236 136.337,54.5903 129.5,52C 127.782,51.654 126.115,51.154 124.5,50.5C 123.808,51.0253 123.308,51.6919 123,52.5C 121.68,52.201 120.18,52.0343 118.5,52C 119.654,51.0862 119.487,50.2529 118,49.5C 116,50.1667 114,50.8333 112,51.5C 111.333,50.8333 110.667,50.1667 110,49.5C 108.758,50.8721 107.258,51.8721 105.5,52.5C 104.614,53.325 104.281,54.325 104.5,55.5C 96.1165,51.2245 87.9498,46.5579 80,41.5C 75.8529,43.4823 72.0195,45.8156 68.5,48.5C 66.0462,49.2271 63.7128,50.2271 61.5,51.5C 61.6287,49.7839 61.962,48.1172 62.5,46.5C 62.5,45.5 62.5,44.5 62.5,43.5C 64.6498,43.9052 66.6498,44.4052 68.5,45C 66.9512,43.786 65.7845,42.286 65,40.5C 64.6667,40.8333 64.3333,41.1667 64,41.5C 61.6831,37.5182 58.6831,34.1849 55,31.5C 54.586,31.9574 54.086,32.2907 53.5,32.5C 49.6144,29.9066 50.281,28.9066 55.5,29.5 Z"/></g>
<g><path style="opacity:1" fill="#d1e5e8" d="M -0.5,35.5 C 3.0459,37.0157 5.87923,39.349 8,42.5C 8.33333,41.8333 8.66667,41.1667 9,40.5C 10.7632,43.0196 12.7632,45.3529 15,47.5C 15.6172,48.4491 15.4506,49.2825 14.5,50C 16.2113,51.4352 17.378,53.2686 18,55.5C 20.6277,57.1255 22.961,59.1255 25,61.5C 25.5303,64.585 27.0303,66.9183 29.5,68.5C 19.5,73.8333 9.5,79.1667 -0.5,84.5C -0.5,68.1667 -0.5,51.8333 -0.5,35.5 Z"/></g>
<g><path style="opacity:1" fill="#378097" d="M 104.5,55.5 C 110.941,59.5591 117.607,63.3924 124.5,67C 125.291,69.7499 125.291,72.5832 124.5,75.5C 123.651,77.8876 122.651,80.2209 121.5,82.5C 121.5,80.8333 121.5,79.1667 121.5,77.5C 122.38,75.8632 123.046,74.0299 123.5,72C 123.164,70.9701 122.497,70.4701 121.5,70.5C 120.791,69.596 119.791,69.2627 118.5,69.5C 118.167,68.5 117.5,67.8333 116.5,67.5C 116.027,66.0937 115.027,65.427 113.5,65.5C 110.005,62.6141 106.005,60.6141 101.5,59.5C 99.2722,58.6229 97.2722,57.2896 95.5,55.5C 95.0269,54.0937 94.0269,53.427 92.5,53.5C 91.391,53.4431 90.391,53.1098 89.5,52.5C 88.7095,51.5987 87.7095,50.9321 86.5,50.5C 85.1667,49.8333 83.8333,49.1667 82.5,48.5C 80.594,46.0062 78.594,46.0062 76.5,48.5C 75.391,48.5569 74.391,48.8902 73.5,49.5C 72.0813,48.5489 70.4147,48.2155 68.5,48.5C 72.0195,45.8156 75.8529,43.4823 80,41.5C 87.9498,46.5579 96.1165,51.2245 104.5,55.5 Z"/></g>
<g><path style="opacity:1" fill="#563c37" d="M 82.5,48.5 C 80.5,48.5 78.5,48.5 76.5,48.5C 78.594,46.0062 80.594,46.0062 82.5,48.5 Z"/></g>
<g><path style="opacity:1" fill="#498ea6" d="M 68.5,48.5 C 70.4147,48.2155 72.0813,48.5489 73.5,49.5C 69.1362,51.3437 65.1362,53.677 61.5,56.5C 60.5084,56.3284 59.8417,56.6618 59.5,57.5C 55.3447,58.7417 51.678,60.7417 48.5,63.5C 44.3447,64.7417 40.678,66.7417 37.5,69.5C 35.1815,69.9925 33.1815,70.9925 31.5,72.5C 29.7162,72.8925 28.0495,73.5592 26.5,74.5C 26.6309,73.6236 26.2975,72.9569 25.5,72.5C 17.0902,77.3716 8.42349,81.7049 -0.5,85.5C -0.5,85.1667 -0.5,84.8333 -0.5,84.5C 9.5,79.1667 19.5,73.8333 29.5,68.5C 38.1835,64.1373 46.8501,59.8039 55.5,55.5C 60.3195,53.9259 64.6528,51.5926 68.5,48.5 Z"/></g>
<g><path style="opacity:1" fill="#3e3333" d="M 76.5,48.5 C 76.6309,49.3764 76.2975,50.0431 75.5,50.5C 73.22,51.1359 71.22,52.1359 69.5,53.5C 67.847,53.6596 66.5137,54.3263 65.5,55.5C 64.1667,55.8333 62.8333,56.1667 61.5,56.5C 65.1362,53.677 69.1362,51.3437 73.5,49.5C 74.391,48.8902 75.391,48.5569 76.5,48.5 Z"/></g>
<g><path style="opacity:1" fill="#216478" d="M 68.5,48.5 C 64.6528,51.5926 60.3195,53.9259 55.5,55.5C 56.4363,54.0256 57.7697,53.0256 59.5,52.5C 60.1667,52.1667 60.8333,51.8333 61.5,51.5C 63.7128,50.2271 66.0462,49.2271 68.5,48.5 Z"/></g>
<g><path style="opacity:1" fill="#344146" d="M 92.5,53.5 C 94.0269,53.427 95.0269,54.0937 95.5,55.5C 93.9731,55.573 92.9731,54.9063 92.5,53.5 Z"/></g>
<g><path style="opacity:1" fill="#bae0ec" d="M 157.5,62.5 C 157.5,65.8333 157.5,69.1667 157.5,72.5C 156.127,72.3433 154.793,72.51 153.5,73C 155.032,76.0083 154.032,77.8417 150.5,78.5C 147.054,75.3659 143.387,72.6992 139.5,70.5C 139.5,69.5 139.5,68.5 139.5,67.5C 136.419,65.5781 133.085,64.4115 129.5,64C 128.291,67.0373 127.457,70.204 127,73.5C 126.292,74.3805 125.458,75.0472 124.5,75.5C 125.291,72.5832 125.291,69.7499 124.5,67C 117.607,63.3924 110.941,59.5591 104.5,55.5C 104.281,54.325 104.614,53.325 105.5,52.5C 107.258,51.8721 108.758,50.8721 110,49.5C 110.667,50.1667 111.333,50.8333 112,51.5C 114,50.8333 116,50.1667 118,49.5C 119.487,50.2529 119.654,51.0862 118.5,52C 120.18,52.0343 121.68,52.201 123,52.5C 123.308,51.6919 123.808,51.0253 124.5,50.5C 126.115,51.154 127.782,51.654 129.5,52C 136.337,54.5903 142.67,57.9236 148.5,62C 151.482,62.498 154.482,62.6646 157.5,62.5 Z"/></g>
<g><path style="opacity:1" fill="#a77b57" d="M 89.5,52.5 C 90.391,53.1098 91.391,53.4431 92.5,53.5C 92.9731,54.9063 93.9731,55.573 95.5,55.5C 97.2722,57.2896 99.2722,58.6229 101.5,59.5C 100.833,66.5 100.167,73.5 99.5,80.5C 99.5,74.1667 99.5,67.8333 99.5,61.5C 96.023,60.6773 92.3563,60.1773 88.5,60C 87.0929,57.2152 87.4263,54.7152 89.5,52.5 Z"/></g>
<g><path style="opacity:1" fill="#ac9c86" d="M 69.5,53.5 C 70.4682,55.6074 70.8016,57.9407 70.5,60.5C 69.5058,70.6532 69.1724,80.9865 69.5,91.5C 68.6697,81.3415 68.1697,71.0081 68,60.5C 67.6667,76.5 67.3333,92.5 67,108.5C 66.8019,106.618 66.3019,104.952 65.5,103.5C 65.7751,90.7963 65.4418,78.1296 64.5,65.5C 65.4794,62.3752 65.8128,59.0419 65.5,55.5C 66.5137,54.3263 67.847,53.6596 69.5,53.5 Z"/></g>
<g><path style="opacity:1" fill="#5b4843" d="M 86.5,50.5 C 87.7095,50.9321 88.7095,51.5987 89.5,52.5C 87.4263,54.7152 87.0929,57.2152 88.5,60C 92.3563,60.1773 96.023,60.6773 99.5,61.5C 91.5,61.5 83.5,61.5 75.5,61.5C 78.6843,59.5864 82.351,58.9197 86.5,59.5C 86.5,56.5 86.5,53.5 86.5,50.5 Z"/></g>
<g><path style="opacity:1" fill="#674438" d="M 59.5,57.5 C 58.06,59.9486 56.06,61.6153 53.5,62.5C 52.2921,63.2341 50.9587,63.5674 49.5,63.5C 49.1667,63.5 48.8333,63.5 48.5,63.5C 51.678,60.7417 55.3447,58.7417 59.5,57.5 Z"/></g>
<g><path style="opacity:1" fill="#3c3838" d="M 113.5,65.5 C 115.027,65.427 116.027,66.0937 116.5,67.5C 114.973,67.573 113.973,66.9063 113.5,65.5 Z"/></g>
<g><path style="opacity:1" fill="#b4845d" d="M 53.5,62.5 C 53.5,63.8333 53.5,65.1667 53.5,66.5C 54.4732,76.0838 54.8065,85.7504 54.5,95.5C 53.5,95.5 52.5,95.5 51.5,95.5C 51.6665,85.1613 51.4998,74.828 51,64.5C 50.3447,73.1616 49.8447,81.8283 49.5,90.5C 45.8333,90.5 42.1667,90.5 38.5,90.5C 38.5,90.1667 38.5,89.8333 38.5,89.5C 37.5399,82.9221 37.2066,76.2554 37.5,69.5C 40.298,68.9 42.9646,67.9 45.5,66.5C 46.4841,69.4281 46.8174,72.4281 46.5,75.5C 47.5,75.5 48.5,75.5 49.5,75.5C 49.5,71.5 49.5,67.5 49.5,63.5C 50.9587,63.5674 52.2921,63.2341 53.5,62.5 Z"/></g>
<g><path style="opacity:1" fill="#9c6f50" d="M 48.5,63.5 C 48.8333,63.5 49.1667,63.5 49.5,63.5C 49.5,67.5 49.5,71.5 49.5,75.5C 48.5,75.5 47.5,75.5 46.5,75.5C 46.8174,72.4281 46.4841,69.4281 45.5,66.5C 42.9646,67.9 40.298,68.9 37.5,69.5C 40.678,66.7417 44.3447,64.7417 48.5,63.5 Z"/></g>
<g><path style="opacity:1" fill="#aa8c74" d="M 76.5,48.5 C 78.5,48.5 80.5,48.5 82.5,48.5C 83.8333,49.1667 85.1667,49.8333 86.5,50.5C 86.5,53.5 86.5,56.5 86.5,59.5C 82.351,58.9197 78.6843,59.5864 75.5,61.5C 75.5,67.8333 75.5,74.1667 75.5,80.5C 74.5104,86.31 74.1771,92.31 74.5,98.5C 73.6691,86.0066 73.1691,73.34 73,60.5C 72.491,84.3611 71.6577,84.3611 70.5,60.5C 70.8016,57.9407 70.4682,55.6074 69.5,53.5C 71.22,52.1359 73.22,51.1359 75.5,50.5C 76.2975,50.0431 76.6309,49.3764 76.5,48.5 Z"/></g>
<g><path style="opacity:1" fill="#c1e1ea" d="M 157.5,72.5 C 157.5,82.8333 157.5,93.1667 157.5,103.5C 145.5,103.5 133.5,103.5 121.5,103.5C 121.5,96.5 121.5,89.5 121.5,82.5C 122.651,80.2209 123.651,77.8876 124.5,75.5C 125.458,75.0472 126.292,74.3805 127,73.5C 127.457,70.204 128.291,67.0373 129.5,64C 133.085,64.4115 136.419,65.5781 139.5,67.5C 139.5,68.5 139.5,69.5 139.5,70.5C 143.387,72.6992 147.054,75.3659 150.5,78.5C 154.032,77.8417 155.032,76.0083 153.5,73C 154.793,72.51 156.127,72.3433 157.5,72.5 Z"/></g>
<g><path style="opacity:1" fill="#ab8869" d="M 65.5,55.5 C 65.8128,59.0419 65.4794,62.3752 64.5,65.5C 63.4498,66.6916 62.9498,70.0249 63,75.5C 62.5001,87.1619 62.3335,98.8286 62.5,110.5C 61.8333,110.5 61.1667,110.5 60.5,110.5C 60.6666,93.4967 60.4999,76.4967 60,59.5C 58.4766,61.5692 57.6432,63.9026 57.5,66.5C 56.1667,66.5 54.8333,66.5 53.5,66.5C 53.5,65.1667 53.5,63.8333 53.5,62.5C 56.06,61.6153 58.06,59.9486 59.5,57.5C 59.8417,56.6618 60.5084,56.3284 61.5,56.5C 62.8333,56.1667 64.1667,55.8333 65.5,55.5 Z"/></g>
<g><path style="opacity:1" fill="#13181a" d="M 121.5,70.5 C 122.497,70.4701 123.164,70.9701 123.5,72C 123.046,74.0299 122.38,75.8632 121.5,77.5C 121.5,75.1667 121.5,72.8333 121.5,70.5 Z"/></g>
<g><path style="opacity:1" fill="#b6854f" d="M 118.5,69.5 C 119.791,69.2627 120.791,69.596 121.5,70.5C 121.5,72.8333 121.5,75.1667 121.5,77.5C 121.5,79.1667 121.5,80.8333 121.5,82.5C 121.5,89.5 121.5,96.5 121.5,103.5C 121.806,106.385 121.473,109.052 120.5,111.5C 119.313,110.466 118.48,109.133 118,107.5C 117.323,98.6766 116.823,89.8432 116.5,81C 116.51,76.771 117.177,72.9377 118.5,69.5 Z"/></g>
<g><path style="opacity:1" fill="#b37e51" d="M 60.5,110.5 C 58.5,110.5 56.5,110.5 54.5,110.5C 54.5,105.5 54.5,100.5 54.5,95.5C 54.8065,85.7504 54.4732,76.0838 53.5,66.5C 54.8333,66.5 56.1667,66.5 57.5,66.5C 57.6432,63.9026 58.4766,61.5692 60,59.5C 60.4999,76.4967 60.6666,93.4967 60.5,110.5 Z"/></g>
<g><path style="opacity:1" fill="#3e96b3" d="M 75.5,61.5 C 83.5,61.5 91.5,61.5 99.5,61.5C 99.5,67.8333 99.5,74.1667 99.5,80.5C 91.5,80.5 83.5,80.5 75.5,80.5C 75.5,74.1667 75.5,67.8333 75.5,61.5 Z"/></g>
<g><path style="opacity:1" fill="#633d38" d="M 31.5,72.5 C 31.5,72.8333 31.5,73.1667 31.5,73.5C 28.4604,74.6803 25.7937,76.347 23.5,78.5C 17.6525,81.7623 11.6525,84.429 5.5,86.5C 12.3019,82.2624 19.3019,78.2624 26.5,74.5C 28.0495,73.5592 29.7162,72.8925 31.5,72.5 Z"/></g>
<g><path style="opacity:1" fill="#68a4ba" d="M 26.5,74.5 C 19.3019,78.2624 12.3019,82.2624 5.5,86.5C 3.5,87.1667 1.5,87.8333 -0.5,88.5C -0.5,87.5 -0.5,86.5 -0.5,85.5C 8.42349,81.7049 17.0902,77.3716 25.5,72.5C 26.2975,72.9569 26.6309,73.6236 26.5,74.5 Z"/></g>
<g><path style="opacity:1" fill="#b87c4d" d="M 75.5,80.5 C 76.209,81.404 77.209,81.7373 78.5,81.5C 78.5,84.5 78.5,87.5 78.5,90.5C 76.8212,90.2852 75.8212,90.9519 75.5,92.5C 75.5,98.5 75.5,104.5 75.5,110.5C 75.1667,110.5 74.8333,110.5 74.5,110.5C 74.5,106.5 74.5,102.5 74.5,98.5C 74.1771,92.31 74.5104,86.31 75.5,80.5 Z"/></g>
<g><path style="opacity:1" fill="#bc8d6a" d="M 31.5,73.5 C 32.4881,78.6405 32.8214,83.9738 32.5,89.5C 29.5,89.5 26.5,89.5 23.5,89.5C 23.5,85.8333 23.5,82.1667 23.5,78.5C 25.7937,76.347 28.4604,74.6803 31.5,73.5 Z"/></g>
<g><path style="opacity:1" fill="#ab7d64" d="M 37.5,69.5 C 37.2066,76.2554 37.5399,82.9221 38.5,89.5C 36.5,89.5 34.5,89.5 32.5,89.5C 32.8214,83.9738 32.4881,78.6405 31.5,73.5C 31.5,73.1667 31.5,72.8333 31.5,72.5C 33.1815,70.9925 35.1815,69.9925 37.5,69.5 Z"/></g>
<g><path style="opacity:1" fill="#a6805a" d="M 69.5,91.5 C 69.5572,97.8513 69.8905,104.185 70.5,110.5C 68.8333,110.5 67.1667,110.5 65.5,110.5C 65.5,108.167 65.5,105.833 65.5,103.5C 66.3019,104.952 66.8019,106.618 67,108.5C 67.3333,92.5 67.6667,76.5 68,60.5C 68.1697,71.0081 68.6697,81.3415 69.5,91.5 Z"/></g>
<g><path style="opacity:1" fill="#784c33" d="M 75.5,80.5 C 83.5,80.5 91.5,80.5 99.5,80.5C 95.3656,81.4849 91.0323,81.8182 86.5,81.5C 86.5,84.5 86.5,87.5 86.5,90.5C 93.1228,91.3796 99.7895,91.713 106.5,91.5C 107.833,91.5 109.167,91.5 110.5,91.5C 111.492,91.3284 112.158,91.6618 112.5,92.5C 100.167,92.5 87.8333,92.5 75.5,92.5C 75.8212,90.9519 76.8212,90.2852 78.5,90.5C 78.5,87.5 78.5,84.5 78.5,81.5C 77.209,81.7373 76.209,81.404 75.5,80.5 Z"/></g>
<g><path style="opacity:1" fill="#4c7280" d="M 25.5,91.5 C 33.5,91.5 41.5,91.5 49.5,91.5C 49.5,91.8333 49.5,92.1667 49.5,92.5C 43.4167,92.3587 37.4167,93.0254 31.5,94.5C 29.8333,94.3333 28.1667,94.1667 26.5,94C 25.7476,93.3292 25.4142,92.4959 25.5,91.5 Z"/></g>
<g><path style="opacity:1" fill="#b5905f" d="M 70.5,60.5 C 71.6577,84.3611 72.491,84.3611 73,60.5C 73.1691,73.34 73.6691,86.0066 74.5,98.5C 74.5,102.5 74.5,106.5 74.5,110.5C 73.1667,110.5 71.8333,110.5 70.5,110.5C 69.8905,104.185 69.5572,97.8513 69.5,91.5C 69.1724,80.9865 69.5058,70.6532 70.5,60.5 Z"/></g>
<g><path style="opacity:1" fill="#636365" d="M 38.5,90.5 C 42.1667,90.5 45.8333,90.5 49.5,90.5C 49.5,90.8333 49.5,91.1667 49.5,91.5C 41.5,91.5 33.5,91.5 25.5,91.5C 21.1667,91.5 16.8333,91.5 12.5,91.5C 12.5,97.5 12.5,103.5 12.5,109.5C 12.1667,109.5 11.8333,109.5 11.5,109.5C 11.5,103.167 11.5,96.8333 11.5,90.5C 20.5,90.5 29.5,90.5 38.5,90.5 Z"/></g>
<g><path style="opacity:1" fill="#4c6770" d="M 75.5,92.5 C 87.8333,92.5 100.167,92.5 112.5,92.5C 112.5,92.8333 112.5,93.1667 112.5,93.5C 112.167,93.5 111.833,93.5 111.5,93.5C 108.167,93.5 104.833,93.5 101.5,93.5C 100.833,93.5 100.167,93.5 99.5,93.5C 94.9677,93.1818 90.6344,93.5151 86.5,94.5C 83.1667,94.5 79.8333,94.5 76.5,94.5C 76.5,97.5 76.5,100.5 76.5,103.5C 76.5,103.833 76.5,104.167 76.5,104.5C 76.7947,106.735 76.4614,108.735 75.5,110.5C 75.5,104.5 75.5,98.5 75.5,92.5 Z"/></g>
<g><path style="opacity:1" fill="#65abc4" d="M 86.5,94.5 C 87.7773,95.6936 88.4439,97.3603 88.5,99.5C 88.3333,101.167 88.1667,102.833 88,104.5C 84.27,103.54 80.4367,103.207 76.5,103.5C 76.5,100.5 76.5,97.5 76.5,94.5C 79.8333,94.5 83.1667,94.5 86.5,94.5 Z"/></g>
<g><path style="opacity:1" fill="#b68e60" d="M 64.5,65.5 C 65.4418,78.1296 65.7751,90.7963 65.5,103.5C 65.5,105.833 65.5,108.167 65.5,110.5C 64.5,110.5 63.5,110.5 62.5,110.5C 62.3335,98.8286 62.5001,87.1619 63,75.5C 62.9498,70.0249 63.4498,66.6916 64.5,65.5 Z"/></g>
<g><path style="opacity:1" fill="#a77f6e" d="M 23.5,78.5 C 23.5,82.1667 23.5,85.8333 23.5,89.5C 26.5,89.5 29.5,89.5 32.5,89.5C 34.5,89.5 36.5,89.5 38.5,89.5C 38.5,89.8333 38.5,90.1667 38.5,90.5C 29.5,90.5 20.5,90.5 11.5,90.5C 11.5,96.8333 11.5,103.167 11.5,109.5C 9.5,109.5 7.5,109.5 5.5,109.5C 5.66625,102.825 5.49958,96.1583 5,89.5C 3.30054,90.4061 1.4672,90.7394 -0.5,90.5C -0.5,89.8333 -0.5,89.1667 -0.5,88.5C 1.5,87.8333 3.5,87.1667 5.5,86.5C 11.6525,84.429 17.6525,81.7623 23.5,78.5 Z"/></g>
<g><path style="opacity:1" fill="#18829e" d="M 95.5,105.5 C 95.5,107.167 95.5,108.833 95.5,110.5C 93.5,110.5 91.5,110.5 89.5,110.5C 89.3343,106.154 89.501,101.821 90,97.5C 91.6995,98.4061 93.5328,98.7394 95.5,98.5C 95.5,100.833 95.5,103.167 95.5,105.5 Z"/></g>
<g><path style="opacity:1" fill="#63aac3" d="M 99.5,93.5 C 100.167,93.5 100.833,93.5 101.5,93.5C 102.694,94.7773 104.36,95.4439 106.5,95.5C 108.64,95.4439 110.306,94.7773 111.5,93.5C 111.833,93.5 112.167,93.5 112.5,93.5C 112.5,99.5 112.5,105.5 112.5,111.5C 108.167,111.5 103.833,111.5 99.5,111.5C 98.1667,111.5 96.8333,111.5 95.5,111.5C 95.5,111.167 95.5,110.833 95.5,110.5C 95.5,108.833 95.5,107.167 95.5,105.5C 96.4731,103.052 96.8064,100.385 96.5,97.5C 97.5,97.5 98.5,97.5 99.5,97.5C 99.5,96.1667 99.5,94.8333 99.5,93.5 Z"/></g>
<g><path style="opacity:1" fill="#26414a" d="M 101.5,93.5 C 104.833,93.5 108.167,93.5 111.5,93.5C 110.306,94.7773 108.64,95.4439 106.5,95.5C 104.36,95.4439 102.694,94.7773 101.5,93.5 Z"/></g>
<g><path style="opacity:1" fill="#51a3bf" d="M 25.5,91.5 C 25.4142,92.4959 25.7476,93.3292 26.5,94C 28.1667,94.1667 29.8333,94.3333 31.5,94.5C 37.4167,93.0254 43.4167,92.3587 49.5,92.5C 49.5,98.5 49.5,104.5 49.5,110.5C 40.8333,110.5 32.1667,110.5 23.5,110.5C 23.5,108.5 23.5,106.5 23.5,104.5C 20.2234,104.784 17.0567,104.451 14,103.5C 13.8091,105.708 13.3091,107.708 12.5,109.5C 12.5,103.5 12.5,97.5 12.5,91.5C 16.8333,91.5 21.1667,91.5 25.5,91.5 Z"/></g>
<g><path style="opacity:1" fill="#a98265" d="M 54.5,95.5 C 54.5,100.5 54.5,105.5 54.5,110.5C 52.8333,110.5 51.1667,110.5 49.5,110.5C 49.5,104.5 49.5,98.5 49.5,92.5C 49.5,92.1667 49.5,91.8333 49.5,91.5C 49.5,91.1667 49.5,90.8333 49.5,90.5C 49.8447,81.8283 50.3447,73.1616 51,64.5C 51.4998,74.828 51.6665,85.1613 51.5,95.5C 52.5,95.5 53.5,95.5 54.5,95.5 Z"/></g>
<g><path style="opacity:1" fill="#aa7544" d="M 101.5,59.5 C 106.005,60.6141 110.005,62.6141 113.5,65.5C 113.973,66.9063 114.973,67.573 116.5,67.5C 117.5,67.8333 118.167,68.5 118.5,69.5C 117.177,72.9377 116.51,76.771 116.5,81C 116.823,89.8432 117.323,98.6766 118,107.5C 118.48,109.133 119.313,110.466 120.5,111.5C 117.833,111.5 115.167,111.5 112.5,111.5C 112.5,105.5 112.5,99.5 112.5,93.5C 112.5,93.1667 112.5,92.8333 112.5,92.5C 112.158,91.6618 111.492,91.3284 110.5,91.5C 110.642,82.4757 110.308,73.4757 109.5,64.5C 107.857,64.5198 106.524,63.8532 105.5,62.5C 104.359,64.4213 104.192,66.4213 105,68.5C 105.333,67.8333 105.667,67.1667 106,66.5C 106.5,74.8267 106.666,83.16 106.5,91.5C 99.7895,91.713 93.1228,91.3796 86.5,90.5C 86.5,87.5 86.5,84.5 86.5,81.5C 91.0323,81.8182 95.3656,81.4849 99.5,80.5C 100.167,73.5 100.833,66.5 101.5,59.5 Z"/></g>
<g><path style="opacity:1" fill="#b5834f" d="M 110.5,91.5 C 109.167,91.5 107.833,91.5 106.5,91.5C 106.666,83.16 106.5,74.8267 106,66.5C 105.667,67.1667 105.333,67.8333 105,68.5C 104.192,66.4213 104.359,64.4213 105.5,62.5C 106.524,63.8532 107.857,64.5198 109.5,64.5C 110.308,73.4757 110.642,82.4757 110.5,91.5 Z"/></g>
<g><path style="opacity:1" fill="#62b5d2" d="M 23.5,110.5 C 19.6286,110.815 15.9619,110.482 12.5,109.5C 13.3091,107.708 13.8091,105.708 14,103.5C 17.0567,104.451 20.2234,104.784 23.5,104.5C 23.5,106.5 23.5,108.5 23.5,110.5 Z"/></g>
<g><path style="opacity:1" fill="#74b9d1" d="M 76.5,104.5 C 79.8333,104.5 83.1667,104.5 86.5,104.5C 86.5,106.833 86.5,109.167 86.5,111.5C 82.6286,111.815 78.9619,111.482 75.5,110.5C 76.4614,108.735 76.7947,106.735 76.5,104.5 Z"/></g>
<g><path style="opacity:1" fill="#4996b0" d="M 86.5,94.5 C 90.6344,93.5151 94.9677,93.1818 99.5,93.5C 99.5,94.8333 99.5,96.1667 99.5,97.5C 98.5,97.5 97.5,97.5 96.5,97.5C 96.8064,100.385 96.4731,103.052 95.5,105.5C 95.5,103.167 95.5,100.833 95.5,98.5C 93.5328,98.7394 91.6995,98.4061 90,97.5C 89.501,101.821 89.3343,106.154 89.5,110.5C 91.5,110.5 93.5,110.5 95.5,110.5C 95.5,110.833 95.5,111.167 95.5,111.5C 92.5,111.5 89.5,111.5 86.5,111.5C 86.5,109.167 86.5,106.833 86.5,104.5C 83.1667,104.5 79.8333,104.5 76.5,104.5C 76.5,104.167 76.5,103.833 76.5,103.5C 80.4367,103.207 84.27,103.54 88,104.5C 88.1667,102.833 88.3333,101.167 88.5,99.5C 88.4439,97.3603 87.7773,95.6936 86.5,94.5 Z"/></g>
<g><path style="opacity:1" fill="#a68d7f" d="M 11.5,109.5 C 11.8333,109.5 12.1667,109.5 12.5,109.5C 15.9619,110.482 19.6286,110.815 23.5,110.5C 32.1667,110.5 40.8333,110.5 49.5,110.5C 51.1667,110.5 52.8333,110.5 54.5,110.5C 56.5,110.5 58.5,110.5 60.5,110.5C 61.1667,110.5 61.8333,110.5 62.5,110.5C 63.5,110.5 64.5,110.5 65.5,110.5C 67.1667,110.5 68.8333,110.5 70.5,110.5C 71.8333,110.5 73.1667,110.5 74.5,110.5C 74.8333,110.5 75.1667,110.5 75.5,110.5C 78.9619,111.482 82.6286,111.815 86.5,111.5C 89.5,111.5 92.5,111.5 95.5,111.5C 96.8333,111.5 98.1667,111.5 99.5,111.5C 99.5,111.833 99.5,112.167 99.5,112.5C 74.1719,111.847 48.8386,111.513 23.5,111.5C 15.5,111.5 7.5,111.5 -0.5,111.5C -0.5,104.5 -0.5,97.5 -0.5,90.5C 1.4672,90.7394 3.30054,90.4061 5,89.5C 5.49958,96.1583 5.66625,102.825 5.5,109.5C 7.5,109.5 9.5,109.5 11.5,109.5 Z"/></g>
<g><path style="opacity:1" fill="#7cafbf" d="M 121.5,103.5 C 133.5,103.5 145.5,103.5 157.5,103.5C 157.5,106.5 157.5,109.5 157.5,112.5C 138.167,112.5 118.833,112.5 99.5,112.5C 99.5,112.167 99.5,111.833 99.5,111.5C 103.833,111.5 108.167,111.5 112.5,111.5C 115.167,111.5 117.833,111.5 120.5,111.5C 121.473,109.052 121.806,106.385 121.5,103.5 Z"/></g>
<g><path style="opacity:1" fill="#bde1ea" d="M 144.5,104.5 C 147.5,104.5 150.5,104.5 153.5,104.5C 153.5,106.833 153.5,109.167 153.5,111.5C 150.5,111.5 147.5,111.5 144.5,111.5C 144.5,109.167 144.5,106.833 144.5,104.5 Z"/></g>
<g><path style="opacity:1" fill="#bfe0ea" d="M 133.5,104.5 C 136.833,104.5 140.167,104.5 143.5,104.5C 143.5,106.833 143.5,109.167 143.5,111.5C 140.167,111.5 136.833,111.5 133.5,111.5C 133.5,109.167 133.5,106.833 133.5,104.5 Z"/></g>
<g><path style="opacity:1" fill="#c3e2ea" d="M 122.5,104.5 C 125.5,104.5 128.5,104.5 131.5,104.5C 131.5,106.833 131.5,109.167 131.5,111.5C 128.5,111.5 125.5,111.5 122.5,111.5C 122.5,109.167 122.5,106.833 122.5,104.5 Z"/></g>
<g><path style="opacity:1" fill="#deab97" d="M -0.5,112.5 C 7.55332,112.225 15.5533,112.725 23.5,114C 19.7538,113.912 17.7538,115.746 17.5,119.5C 20.5298,119.101 23.5298,119.601 26.5,121C 24.0481,121.29 21.7148,121.956 19.5,123C 20.1667,123.333 20.8333,123.667 21.5,124C 18.7708,124.005 16.7708,125.171 15.5,127.5C 18.6868,128.027 21.0201,129.693 22.5,132.5C 20.712,132.215 19.0453,132.548 17.5,133.5C 21.1073,134.489 24.774,134.823 28.5,134.5C 28.6567,135.873 28.49,137.207 28,138.5C 19.9457,137.922 11.6123,137.256 3,136.5C 2.24956,137.126 1.41623,137.626 0.5,138C 2.78012,138.212 4.78012,139.045 6.5,140.5C 7.5,139.833 8.5,139.167 9.5,138.5C 9.93964,139.698 10.273,140.865 10.5,142C 6.84841,142.499 3.18174,142.665 -0.5,142.5C -0.5,132.5 -0.5,122.5 -0.5,112.5 Z"/></g>
<g><path style="opacity:1" fill="#af6d4a" d="M 23.5,111.5 C 48.8386,111.513 74.1719,111.847 99.5,112.5C 118.833,112.5 138.167,112.5 157.5,112.5C 157.5,112.833 157.5,113.167 157.5,113.5C 143.833,113.5 130.167,113.5 116.5,113.5C 104.167,113.5 91.8333,113.5 79.5,113.5C 68.5207,112.68 57.5207,112.347 46.5,112.5C 38.6484,112.825 30.9818,112.492 23.5,111.5 Z"/></g>
<g><path style="opacity:1" fill="#e19c74" d="M 157.5,117.5 C 157.5,119.833 157.5,122.167 157.5,124.5C 154.825,123.835 151.991,123.835 149,124.5C 147.019,124.371 145.353,123.704 144,122.5C 143.667,122.833 143.333,123.167 143,123.5C 141.818,121.134 140.651,118.467 139.5,115.5C 143.146,114.717 146.812,114.55 150.5,115C 149.167,115.333 147.833,115.667 146.5,116C 147.931,116.465 149.097,117.299 150,118.5C 150.639,115.772 151.806,115.272 153.5,117C 152.833,117.333 152.167,117.667 151.5,118C 153.598,118.678 155.598,118.511 157.5,117.5 Z"/></g>
<g><path style="opacity:1" fill="#e0a890" d="M -0.5,112.5 C -0.5,112.167 -0.5,111.833 -0.5,111.5C 7.5,111.5 15.5,111.5 23.5,111.5C 30.9818,112.492 38.6484,112.825 46.5,112.5C 48.9686,113.317 51.6353,113.817 54.5,114C 52.8753,114.853 52.5419,115.853 53.5,117C 51.8988,117.273 50.3988,117.773 49,118.5C 48.3123,119.332 48.479,119.998 49.5,120.5C 52.8011,119.067 56.1344,119.567 59.5,122C 49.172,122.5 38.8387,122.666 28.5,122.5C 28.8226,126.226 28.4892,129.893 27.5,133.5C 25.9291,132.691 24.2624,132.357 22.5,132.5C 21.0201,129.693 18.6868,128.027 15.5,127.5C 16.7708,125.171 18.7708,124.005 21.5,124C 20.8333,123.667 20.1667,123.333 19.5,123C 21.7148,121.956 24.0481,121.29 26.5,121C 23.5298,119.601 20.5298,119.101 17.5,119.5C 17.7538,115.746 19.7538,113.912 23.5,114C 15.5533,112.725 7.55332,112.225 -0.5,112.5 Z"/></g>
<g><path style="opacity:1" fill="#4d5052" d="M 109.5,125.5 C 109.5,125.833 109.5,126.167 109.5,126.5C 106.855,128.242 103.855,128.909 100.5,128.5C 99.7784,128.082 99.2784,127.416 99,126.5C 98.6012,126.728 98.4346,127.062 98.5,127.5C 92.1667,126.167 85.8333,126.167 79.5,127.5C 79.5,133.167 79.5,138.833 79.5,144.5C 79.1667,144.5 78.8333,144.5 78.5,144.5C 78.5,143.833 78.5,143.167 78.5,142.5C 78.5,137.167 78.5,131.833 78.5,126.5C 88.7513,125.525 99.0846,125.192 109.5,125.5 Z"/></g>
<g><path style="opacity:1" fill="#411c0d" d="M 122.5,126.5 C 133.988,125.505 145.655,125.172 157.5,125.5C 157.5,125.833 157.5,126.167 157.5,126.5C 156.167,126.5 154.833,126.5 153.5,126.5C 151.712,126.215 150.045,126.548 148.5,127.5C 146.533,131.297 144.366,134.964 142,138.5C 141.304,136.065 141.47,133.731 142.5,131.5C 142,130.5 141.5,129.5 141,128.5C 139.748,130.001 138.748,131.668 138,133.5C 137.779,130.057 136.779,129.724 135,132.5C 134.517,131.552 134.351,130.552 134.5,129.5C 132.712,129.215 131.045,129.548 129.5,130.5C 128.608,133.284 127.442,135.95 126,138.5C 125.558,135.695 126.058,133.028 127.5,130.5C 126.693,128.02 125.026,126.687 122.5,126.5 Z"/></g>
<g><path style="opacity:1" fill="#371709" d="M 153.5,126.5 C 154.833,126.5 156.167,126.5 157.5,126.5C 157.5,128.833 157.5,131.167 157.5,133.5C 154.542,136.06 152.042,139.06 150,142.5C 149.517,141.552 149.351,140.552 149.5,139.5C 148.167,139.5 146.833,139.5 145.5,139.5C 146.522,135.794 148.356,132.461 151,129.5C 151.333,129.833 151.667,130.167 152,130.5C 152.41,129.099 152.91,127.766 153.5,126.5 Z"/></g>
<g><path style="opacity:1" fill="#e4a17a" d="M 79.5,113.5 C 91.8333,113.5 104.167,113.5 116.5,113.5C 118.834,114.124 121.167,114.957 123.5,116C 121.978,118.417 122.644,120.75 125.5,123C 122.833,123.333 120.167,123.667 117.5,124C 119.058,124.21 120.391,124.71 121.5,125.5C 119.621,125.393 119.288,125.893 120.5,127C 119.5,129 118.5,129 117.5,127C 117.833,126.667 118.167,126.333 118.5,126C 116.001,125.714 113.835,125.881 112,126.5C 110.221,124.983 110.721,124.149 113.5,124C 109.441,123.006 105.441,122.839 101.5,123.5C 100.006,123.291 98.8388,122.624 98,121.5C 92.1235,122.162 85.9568,122.662 79.5,123C 78.944,123.383 78.6107,123.883 78.5,124.5C 78.5,125.167 78.5,125.833 78.5,126.5C 78.5,131.833 78.5,137.167 78.5,142.5C 69.7277,143.027 60.7277,143.361 51.5,143.5C 51.5,140.167 51.5,136.833 51.5,133.5C 54.5184,133.665 57.5184,133.498 60.5,133C 59.6919,132.692 59.0253,132.192 58.5,131.5C 60.9082,130.547 63.0749,129.213 65,127.5C 66.4823,129.781 68.149,129.781 70,127.5C 73.564,129.1 74.7307,128.1 73.5,124.5C 72.624,123.749 71.624,123.249 70.5,123C 72.9005,122.814 75.2338,122.314 77.5,121.5C 76.2713,120.719 74.938,120.219 73.5,120C 74.8333,119.333 74.8333,118.667 73.5,118C 74.3333,117.167 75.1667,116.333 76,115.5C 78.1489,116.84 79.3155,116.173 79.5,113.5 Z"/></g>
<g><path style="opacity:1" fill="#834623" d="M 78.5,124.5 C 89.0135,124.172 99.3468,124.506 109.5,125.5C 99.0846,125.192 88.7513,125.525 78.5,126.5C 78.5,125.833 78.5,125.167 78.5,124.5 Z"/></g>
<g><path style="opacity:1" fill="#28110b" d="M 122.5,126.5 C 125.026,126.687 126.693,128.02 127.5,130.5C 126.058,133.028 125.558,135.695 126,138.5C 127.442,135.95 128.608,133.284 129.5,130.5C 131.045,129.548 132.712,129.215 134.5,129.5C 134.351,130.552 134.517,131.552 135,132.5C 136.779,129.724 137.779,130.057 138,133.5C 138.748,131.668 139.748,130.001 141,128.5C 141.5,129.5 142,130.5 142.5,131.5C 141.47,133.731 141.304,136.065 142,138.5C 144.366,134.964 146.533,131.297 148.5,127.5C 150.045,126.548 151.712,126.215 153.5,126.5C 152.91,127.766 152.41,129.099 152,130.5C 151.667,130.167 151.333,129.833 151,129.5C 148.356,132.461 146.522,135.794 145.5,139.5C 146.833,139.5 148.167,139.5 149.5,139.5C 149.351,140.552 149.517,141.552 150,142.5C 152.042,139.06 154.542,136.06 157.5,133.5C 157.5,137.167 157.5,140.833 157.5,144.5C 156.609,145.11 155.609,145.443 154.5,145.5C 154.5,144.5 154.5,143.5 154.5,142.5C 150.79,143.676 147.124,144.676 143.5,145.5C 143.167,145.5 142.833,145.5 142.5,145.5C 142.33,144.178 142.663,143.011 143.5,142C 139.078,142.245 134.745,142.245 130.5,142C 130.038,140.278 129.872,138.445 130,136.5C 129.273,139.691 127.439,141.691 124.5,142.5C 123.833,142.5 123.167,142.5 122.5,142.5C 122.5,137.167 122.5,131.833 122.5,126.5 Z"/></g>
<g><path style="opacity:1" fill="#3e849b" d="M 98.5,127.5 C 98.6567,128.873 98.49,130.207 98,131.5C 97.2904,130.027 96.1238,129.36 94.5,129.5C 94.5,132.167 94.5,134.833 94.5,137.5C 93.5,137.5 92.5,137.5 91.5,137.5C 91.5,135.5 91.5,133.5 91.5,131.5C 87.8648,130.886 84.1981,130.552 80.5,130.5C 80.5,132.833 80.5,135.167 80.5,137.5C 91.1667,137.833 91.1667,138.167 80.5,138.5C 80.5,140.5 80.5,142.5 80.5,144.5C 84.5,144.5 88.5,144.5 92.5,144.5C 92.7394,142.533 92.4061,140.699 91.5,139C 96.8333,138.667 102.167,138.333 107.5,138C 106.556,135.281 106.223,132.448 106.5,129.5C 104.265,129.795 102.265,129.461 100.5,128.5C 103.855,128.909 106.855,128.242 109.5,126.5C 109.5,132.833 109.5,139.167 109.5,145.5C 99.5,145.5 89.5,145.5 79.5,145.5C 79.5,145.167 79.5,144.833 79.5,144.5C 79.5,138.833 79.5,133.167 79.5,127.5C 85.8333,126.167 92.1667,126.167 98.5,127.5 Z"/></g>
<g><path style="opacity:1" fill="#5da5bf" d="M 100.5,128.5 C 102.265,129.461 104.265,129.795 106.5,129.5C 106.223,132.448 106.556,135.281 107.5,138C 102.167,138.333 96.8333,138.667 91.5,139C 92.4061,140.699 92.7394,142.533 92.5,144.5C 88.5,144.5 84.5,144.5 80.5,144.5C 80.5,142.5 80.5,140.5 80.5,138.5C 91.1667,138.167 91.1667,137.833 80.5,137.5C 80.5,135.167 80.5,132.833 80.5,130.5C 84.1981,130.552 87.8648,130.886 91.5,131.5C 91.5,133.5 91.5,135.5 91.5,137.5C 92.5,137.5 93.5,137.5 94.5,137.5C 94.5,134.833 94.5,132.167 94.5,129.5C 96.1238,129.36 97.2904,130.027 98,131.5C 98.49,130.207 98.6567,128.873 98.5,127.5C 98.4346,127.062 98.6012,126.728 99,126.5C 99.2784,127.416 99.7784,128.082 100.5,128.5 Z"/></g>
<g><path style="opacity:1" fill="#375d6a" d="M 29.5,125.5 C 32.728,126.414 36.0613,126.747 39.5,126.5C 36.7131,127.477 33.7131,127.81 30.5,127.5C 30.3354,130.518 30.502,133.518 31,136.5C 33.7405,137.282 36.5738,137.782 39.5,138C 36.5184,138.498 33.5184,138.665 30.5,138.5C 30.5,140.5 30.5,142.5 30.5,144.5C 37.1667,144.5 43.8333,144.5 50.5,144.5C 50.5,144.833 50.5,145.167 50.5,145.5C 43.5,145.5 36.5,145.5 29.5,145.5C 29.5,145.167 29.5,144.833 29.5,144.5C 29.5,138.167 29.5,131.833 29.5,125.5 Z"/></g>
<g><path style="opacity:1" fill="#e39c70" d="M 121.5,125.5 C 121.831,134.192 121.498,142.859 120.5,151.5C 119.167,150.5 117.833,149.5 116.5,148.5C 115.522,148.977 114.689,149.643 114,150.5C 112.264,148.937 110.764,147.27 109.5,145.5C 109.5,139.167 109.5,132.833 109.5,126.5C 109.5,126.167 109.5,125.833 109.5,125.5C 99.3468,124.506 89.0135,124.172 78.5,124.5C 78.6107,123.883 78.944,123.383 79.5,123C 85.9568,122.662 92.1235,122.162 98,121.5C 98.8388,122.624 100.006,123.291 101.5,123.5C 105.441,122.839 109.441,123.006 113.5,124C 110.721,124.149 110.221,124.983 112,126.5C 113.835,125.881 116.001,125.714 118.5,126C 118.167,126.333 117.833,126.667 117.5,127C 118.5,129 119.5,129 120.5,127C 119.288,125.893 119.621,125.393 121.5,125.5 Z"/></g>
<g><path style="opacity:1" fill="#63afc9" d="M 94.5,139.5 C 98.5,139.5 102.5,139.5 106.5,139.5C 106.227,141.451 106.893,142.951 108.5,144C 103.845,144.499 99.1785,144.666 94.5,144.5C 94.5,142.833 94.5,141.167 94.5,139.5 Z"/></g>
<g><path style="opacity:1" fill="#1f1614" d="M 154.5,145.5 C 154.543,149.893 154.043,150.226 153,146.5C 152.506,148.134 152.34,149.801 152.5,151.5C 152.5,152.167 152.5,152.833 152.5,153.5C 149.302,154.036 146.635,153.369 144.5,151.5C 145.933,150.167 147.267,148.667 148.5,147C 146.975,145.991 145.308,145.491 143.5,145.5C 147.124,144.676 150.79,143.676 154.5,142.5C 154.5,143.5 154.5,144.5 154.5,145.5 Z"/></g>
<g><path style="opacity:1" fill="#dfa082" d="M 46.5,112.5 C 57.5207,112.347 68.5207,112.68 79.5,113.5C 79.3155,116.173 78.1489,116.84 76,115.5C 75.1667,116.333 74.3333,117.167 73.5,118C 74.8333,118.667 74.8333,119.333 73.5,120C 74.938,120.219 76.2713,120.719 77.5,121.5C 75.2338,122.314 72.9005,122.814 70.5,123C 71.624,123.249 72.624,123.749 73.5,124.5C 74.7307,128.1 73.564,129.1 70,127.5C 68.149,129.781 66.4823,129.781 65,127.5C 63.0749,129.213 60.9082,130.547 58.5,131.5C 59.0253,132.192 59.6919,132.692 60.5,133C 57.5184,133.498 54.5184,133.665 51.5,133.5C 51.5,136.833 51.5,140.167 51.5,143.5C 51.5,143.833 51.5,144.167 51.5,144.5C 51.1667,144.5 50.8333,144.5 50.5,144.5C 50.5,138.167 50.5,131.833 50.5,125.5C 43.5,124.167 36.5,124.167 29.5,125.5C 29.5,131.833 29.5,138.167 29.5,144.5C 29.1667,144.5 28.8333,144.5 28.5,144.5C 25.8785,143.967 23.3785,142.967 21,141.5C 19.1746,142.103 17.3413,142.77 15.5,143.5C 19.4592,144.327 23.4592,144.827 27.5,145C 25.4719,147.576 23.3052,148.076 21,146.5C 20.3109,147.357 19.4776,148.023 18.5,148.5C 18.3309,147.603 17.9976,146.603 17.5,145.5C 15.5785,145.866 13.5785,146.032 11.5,146C 11.1667,146.333 10.8333,146.667 10.5,147C 12.5,147.333 14.5,147.667 16.5,148C 15.7734,149.399 15.2734,150.899 15,152.5C 14.0853,151.672 13.4186,150.672 13,149.5C 11.8989,151.394 10.5655,152.061 9,151.5C 6.26561,152.362 6.09894,153.195 8.5,154C 7.45422,155.539 6.12089,155.705 4.5,154.5C 3.26304,154.556 2.26304,155.056 1.5,156C 6.53288,156.171 11.5329,156.671 16.5,157.5C 14.2704,157.708 12.1037,157.708 10,157.5C 8.66667,160.167 7.33333,160.167 6,157.5C 5,158.833 4,158.833 3,157.5C 1.97827,158.354 1.14494,159.354 0.5,160.5C 3.45456,163.264 3.12122,165.264 -0.5,166.5C -0.5,158.5 -0.5,150.5 -0.5,142.5C 3.18174,142.665 6.84841,142.499 10.5,142C 10.273,140.865 9.93964,139.698 9.5,138.5C 8.5,139.167 7.5,139.833 6.5,140.5C 4.78012,139.045 2.78012,138.212 0.5,138C 1.41623,137.626 2.24956,137.126 3,136.5C 11.6123,137.256 19.9457,137.922 28,138.5C 28.49,137.207 28.6567,135.873 28.5,134.5C 24.774,134.823 21.1073,134.489 17.5,133.5C 19.0453,132.548 20.712,132.215 22.5,132.5C 24.2624,132.357 25.9291,132.691 27.5,133.5C 28.4892,129.893 28.8226,126.226 28.5,122.5C 38.8387,122.666 49.172,122.5 59.5,122C 56.1344,119.567 52.8011,119.067 49.5,120.5C 48.479,119.998 48.3123,119.332 49,118.5C 50.3988,117.773 51.8988,117.273 53.5,117C 52.5419,115.853 52.8753,114.853 54.5,114C 51.6353,113.817 48.9686,113.317 46.5,112.5 Z"/></g>
<g><path style="opacity:1" fill="#3b94b1" d="M 50.5,125.5 C 50.5,131.833 50.5,138.167 50.5,144.5C 43.8333,144.5 37.1667,144.5 30.5,144.5C 30.5,142.5 30.5,140.5 30.5,138.5C 33.5184,138.665 36.5184,138.498 39.5,138C 36.5738,137.782 33.7405,137.282 31,136.5C 30.502,133.518 30.3354,130.518 30.5,127.5C 33.7131,127.81 36.7131,127.477 39.5,126.5C 42.9619,125.518 46.6286,125.185 50.5,125.5 Z"/></g>
<g><path style="opacity:1" fill="#543930" d="M 29.5,125.5 C 36.5,124.167 43.5,124.167 50.5,125.5C 46.6286,125.185 42.9619,125.518 39.5,126.5C 36.0613,126.747 32.728,126.414 29.5,125.5 Z"/></g>
<g><path style="opacity:1" fill="#975f39" d="M 29.5,145.5 C 36.5,145.5 43.5,145.5 50.5,145.5C 50.5,149.5 50.5,153.5 50.5,157.5C 43.5,157.5 36.5,157.5 29.5,157.5C 29.5,153.5 29.5,149.5 29.5,145.5 Z"/></g>
<g><path style="opacity:1" fill="#db9062" d="M 116.5,113.5 C 130.167,113.5 143.833,113.5 157.5,113.5C 157.5,114.833 157.5,116.167 157.5,117.5C 155.598,118.511 153.598,118.678 151.5,118C 152.167,117.667 152.833,117.333 153.5,117C 151.806,115.272 150.639,115.772 150,118.5C 149.097,117.299 147.931,116.465 146.5,116C 147.833,115.667 149.167,115.333 150.5,115C 146.812,114.55 143.146,114.717 139.5,115.5C 140.651,118.467 141.818,121.134 143,123.5C 143.333,123.167 143.667,122.833 144,122.5C 145.353,123.704 147.019,124.371 149,124.5C 151.991,123.835 154.825,123.835 157.5,124.5C 157.5,124.833 157.5,125.167 157.5,125.5C 145.655,125.172 133.988,125.505 122.5,126.5C 122.5,131.833 122.5,137.167 122.5,142.5C 122.5,147.833 122.5,153.167 122.5,158.5C 121.778,158.082 121.278,157.416 121,156.5C 118.454,160.725 117.12,160.392 117,155.5C 115.601,156.227 114.101,156.727 112.5,157C 113.5,157.333 114.5,157.667 115.5,158C 113.753,158.352 112.086,158.852 110.5,159.5C 110.5,158.833 110.167,158.5 109.5,158.5C 106.833,154.167 106.833,149.833 109.5,145.5C 110.764,147.27 112.264,148.937 114,150.5C 114.689,149.643 115.522,148.977 116.5,148.5C 117.833,149.5 119.167,150.5 120.5,151.5C 121.498,142.859 121.831,134.192 121.5,125.5C 120.391,124.71 119.058,124.21 117.5,124C 120.167,123.667 122.833,123.333 125.5,123C 122.644,120.75 121.978,118.417 123.5,116C 121.167,114.957 118.834,114.124 116.5,113.5 Z"/></g>
<g><path style="opacity:1" fill="#302014" d="M 142.5,145.5 C 142.833,145.5 143.167,145.5 143.5,145.5C 145.308,145.491 146.975,145.991 148.5,147C 147.267,148.667 145.933,150.167 144.5,151.5C 142.797,150.34 142.131,151.007 142.5,153.5C 139.833,153.5 137.167,153.5 134.5,153.5C 134.5,150.833 134.5,148.167 134.5,145.5C 137.167,145.5 139.833,145.5 142.5,145.5 Z"/></g>
<g><path style="opacity:1" fill="#e4996d" d="M 78.5,142.5 C 78.5,143.167 78.5,143.833 78.5,144.5C 78.5,148.5 78.5,152.5 78.5,156.5C 69.6228,155.411 60.6228,155.411 51.5,156.5C 51.5,152.5 51.5,148.5 51.5,144.5C 51.5,144.167 51.5,143.833 51.5,143.5C 60.7277,143.361 69.7277,143.027 78.5,142.5 Z"/></g>
<g><path style="opacity:1" fill="#925c2f" d="M 79.5,145.5 C 89.5,145.5 99.5,145.5 109.5,145.5C 106.833,149.833 106.833,154.167 109.5,158.5C 99.5,158.5 89.5,158.5 79.5,158.5C 79.5,154.167 79.5,149.833 79.5,145.5 Z"/></g>
<g><path style="opacity:1" fill="#1f1712" d="M 142.5,145.5 C 139.833,145.5 137.167,145.5 134.5,145.5C 134.5,148.167 134.5,150.833 134.5,153.5C 136.961,154.531 139.627,155.198 142.5,155.5C 137.265,157.45 131.598,158.117 125.5,157.5C 125.821,152.305 125.487,147.305 124.5,142.5C 127.439,141.691 129.273,139.691 130,136.5C 129.872,138.445 130.038,140.278 130.5,142C 134.745,142.245 139.078,142.245 143.5,142C 142.663,143.011 142.33,144.178 142.5,145.5 Z"/></g>
<g><path style="opacity:1" fill="#3e4c53" d="M 144.5,151.5 C 146.635,153.369 149.302,154.036 152.5,153.5C 152.5,156.167 152.5,158.833 152.5,161.5C 149.833,161.5 147.167,161.5 144.5,161.5C 144.5,161.167 144.5,160.833 144.5,160.5C 146.833,160.5 149.167,160.5 151.5,160.5C 151.785,158.712 151.452,157.045 150.5,155.5C 149.817,155.863 149.15,156.196 148.5,156.5C 146.735,155.539 144.735,155.205 142.5,155.5C 139.627,155.198 136.961,154.531 134.5,153.5C 137.167,153.5 139.833,153.5 142.5,153.5C 142.131,151.007 142.797,150.34 144.5,151.5 Z"/></g>
<g><path style="opacity:1" fill="#6b2c22" d="M 157.5,144.5 C 157.5,148.167 157.5,151.833 157.5,155.5C 156.732,156.263 156.232,157.263 156,158.5C 155.667,157.167 155.333,155.833 155,154.5C 154.667,157.5 154.333,160.5 154,163.5C 153.824,159.312 153.324,155.312 152.5,151.5C 152.34,149.801 152.506,148.134 153,146.5C 154.043,150.226 154.543,149.893 154.5,145.5C 155.609,145.443 156.609,145.11 157.5,144.5 Z"/></g>
<g><path style="opacity:1" fill="#1e3942" d="M 142.5,155.5 C 144.735,155.205 146.735,155.539 148.5,156.5C 144.238,158.128 139.571,159.128 134.5,159.5C 137.768,160.487 141.102,160.82 144.5,160.5C 144.5,160.833 144.5,161.167 144.5,161.5C 138.5,161.5 132.5,161.5 126.5,161.5C 125.833,161.5 125.5,161.167 125.5,160.5C 136.167,159.833 136.167,159.167 125.5,158.5C 125.5,158.167 125.5,157.833 125.5,157.5C 131.598,158.117 137.265,157.45 142.5,155.5 Z"/></g>
<g><path style="opacity:1" fill="#403937" d="M 79.5,158.5 C 89.5,158.5 99.5,158.5 109.5,158.5C 109.5,158.833 109.5,159.167 109.5,159.5C 102.313,159.175 95.3134,159.509 88.5,160.5C 85.5,160.5 82.5,160.5 79.5,160.5C 79.5,159.833 79.5,159.167 79.5,158.5 Z"/></g>
<g><path style="opacity:1" fill="#395760" d="M 88.5,160.5 C 95.3134,159.509 102.313,159.175 109.5,159.5C 109.5,160.167 109.5,160.833 109.5,161.5C 102.562,161.218 95.5618,160.884 88.5,160.5 Z"/></g>
<g><path style="opacity:1" fill="#1a7b96" d="M 125.5,158.5 C 136.167,159.167 136.167,159.833 125.5,160.5C 125.5,159.833 125.5,159.167 125.5,158.5 Z"/></g>
<g><path style="opacity:1" fill="#3a93ae" d="M 144.5,160.5 C 141.102,160.82 137.768,160.487 134.5,159.5C 139.571,159.128 144.238,158.128 148.5,156.5C 149.15,156.196 149.817,155.863 150.5,155.5C 151.452,157.045 151.785,158.712 151.5,160.5C 149.167,160.5 146.833,160.5 144.5,160.5 Z"/></g>
<g><path style="opacity:1" fill="#5d524e" d="M 29.5,157.5 C 36.5,157.5 43.5,157.5 50.5,157.5C 51.4861,161.97 51.8195,166.637 51.5,171.5C 50.5166,167.702 50.1832,163.702 50.5,159.5C 43.8333,159.833 37.1667,160.167 30.5,160.5C 30.5,166.5 30.5,172.5 30.5,178.5C 37.5,178.5 44.5,178.5 51.5,178.5C 44.3524,179.492 37.0191,179.825 29.5,179.5C 29.5,178.5 29.5,177.5 29.5,176.5C 29.5,170.167 29.5,163.833 29.5,157.5 Z"/></g>
<g><path style="opacity:1" fill="#e19260" d="M 50.5,144.5 C 50.8333,144.5 51.1667,144.5 51.5,144.5C 51.5,148.5 51.5,152.5 51.5,156.5C 60.6228,155.411 69.6228,155.411 78.5,156.5C 78.5,159.167 78.5,161.833 78.5,164.5C 77.5416,164.047 76.7083,163.381 76,162.5C 75.3333,163.833 74.6667,163.833 74,162.5C 73.6827,164.301 73.016,164.634 72,163.5C 71.5,164 71,164.5 70.5,165C 71.4706,166.204 72.4706,166.704 73.5,166.5C 71.2338,167.314 68.9005,167.814 66.5,168C 66.0426,168.414 65.7093,168.914 65.5,169.5C 66.8368,169.74 68.5035,170.24 70.5,171C 68.7306,172.019 67.0639,172.186 65.5,171.5C 64.1861,172.313 63.0195,173.313 62,174.5C 61.3109,173.643 60.4776,172.977 59.5,172.5C 56.9925,173.647 54.3258,174.314 51.5,174.5C 51.5,173.5 51.5,172.5 51.5,171.5C 51.8195,166.637 51.4861,161.97 50.5,157.5C 50.5,153.5 50.5,149.5 50.5,145.5C 50.5,145.167 50.5,144.833 50.5,144.5 Z"/></g>
<g><path style="opacity:1" fill="#2e3942" d="M 79.5,164.5 C 82.2234,165.352 84.89,166.519 87.5,168C 88.3802,169.356 88.7135,170.856 88.5,172.5C 88.5,174.167 88.5,175.833 88.5,177.5C 87.5655,176.432 87.2322,175.099 87.5,173.5C 86.1667,173.5 84.8333,173.5 83.5,173.5C 83.7678,175.099 83.4345,176.432 82.5,177.5C 82.7711,175.179 82.1045,173.179 80.5,171.5C 82.4233,170.692 84.4233,170.192 86.5,170C 84.3496,168.589 82.0163,167.755 79.5,167.5C 79.5,166.5 79.5,165.5 79.5,164.5 Z"/></g>
<g><path style="opacity:1" fill="#9a4d29" d="M 122.5,142.5 C 123.167,142.5 123.833,142.5 124.5,142.5C 125.487,147.305 125.821,152.305 125.5,157.5C 125.5,157.833 125.5,158.167 125.5,158.5C 125.5,159.167 125.5,159.833 125.5,160.5C 125.5,161.167 125.833,161.5 126.5,161.5C 126.5,165.167 126.5,168.833 126.5,172.5C 126.5,173.167 126.5,173.833 126.5,174.5C 126.5,177.5 126.5,180.5 126.5,183.5C 126.5,183.833 126.5,184.167 126.5,184.5C 126.5,186.5 126.5,188.5 126.5,190.5C 125.5,190.5 124.5,190.5 123.5,190.5C 123.825,182.981 123.492,175.648 122.5,168.5C 122.5,165.167 122.5,161.833 122.5,158.5C 122.5,153.167 122.5,147.833 122.5,142.5 Z"/></g>
<g><path style="opacity:1" fill="#562918" d="M 126.5,161.5 C 132.5,161.5 138.5,161.5 144.5,161.5C 147.167,161.5 149.833,161.5 152.5,161.5C 151.432,162.434 150.099,162.768 148.5,162.5C 142.5,162.5 136.5,162.5 130.5,162.5C 130.5,165.833 130.5,169.167 130.5,172.5C 129.167,172.5 127.833,172.5 126.5,172.5C 126.5,168.833 126.5,165.167 126.5,161.5 Z"/></g>
<g><path style="opacity:1" fill="#763c22" d="M 148.5,162.5 C 148.653,168.324 147.987,168.657 146.5,163.5C 145.52,166.086 145.187,168.753 145.5,171.5C 147.735,171.205 149.735,171.539 151.5,172.5C 148.833,172.5 146.167,172.5 143.5,172.5C 140.833,172.5 138.167,172.5 135.5,172.5C 133.833,172.5 132.167,172.5 130.5,172.5C 130.5,169.167 130.5,165.833 130.5,162.5C 136.5,162.5 142.5,162.5 148.5,162.5 Z"/></g>
<g><path style="opacity:1" fill="#e19a76" d="M 28.5,144.5 C 28.1177,149.99 27.9511,155.323 28,160.5C 27.2276,161.849 26.0609,162.682 24.5,163C 28.1658,163.39 28.3324,164.557 25,166.5C 22.824,166.572 20.824,166.238 19,165.5C 13.917,166.307 8.75034,166.807 3.5,167C 5.06092,167.318 6.22759,168.151 7,169.5C 8.96453,168.115 10.7979,168.282 12.5,170C 7.71976,170.69 6.88643,172.524 10,175.5C 11.3629,173.216 12.8629,173.049 14.5,175C 11.7905,176.894 8.95717,177.394 6,176.5C 4.37319,176.625 2.87319,177.125 1.5,178C 4.83333,178.333 8.16667,178.667 11.5,179C 9.98077,180.218 8.8141,181.718 8,183.5C 6.64387,182.62 5.14387,182.286 3.5,182.5C 1.65832,180.81 0.324982,178.81 -0.5,176.5C -0.5,173.167 -0.5,169.833 -0.5,166.5C 3.12122,165.264 3.45456,163.264 0.5,160.5C 1.14494,159.354 1.97827,158.354 3,157.5C 4,158.833 5,158.833 6,157.5C 7.33333,160.167 8.66667,160.167 10,157.5C 12.1037,157.708 14.2704,157.708 16.5,157.5C 11.5329,156.671 6.53288,156.171 1.5,156C 2.26304,155.056 3.26304,154.556 4.5,154.5C 6.12089,155.705 7.45422,155.539 8.5,154C 6.09894,153.195 6.26561,152.362 9,151.5C 10.5655,152.061 11.8989,151.394 13,149.5C 13.4186,150.672 14.0853,151.672 15,152.5C 15.2734,150.899 15.7734,149.399 16.5,148C 14.5,147.667 12.5,147.333 10.5,147C 10.8333,146.667 11.1667,146.333 11.5,146C 13.5785,146.032 15.5785,145.866 17.5,145.5C 17.9976,146.603 18.3309,147.603 18.5,148.5C 19.4776,148.023 20.3109,147.357 21,146.5C 23.3052,148.076 25.4719,147.576 27.5,145C 23.4592,144.827 19.4592,144.327 15.5,143.5C 17.3413,142.77 19.1746,142.103 21,141.5C 23.3785,142.967 25.8785,143.967 28.5,144.5 Z"/></g>
<g><path style="opacity:1" fill="#8e4e2f" d="M 152.5,151.5 C 153.324,155.312 153.824,159.312 154,163.5C 154.333,160.5 154.667,157.5 155,154.5C 155.333,155.833 155.667,157.167 156,158.5C 156.232,157.263 156.732,156.263 157.5,155.5C 157.5,162.5 157.5,169.5 157.5,176.5C 156.675,178.81 155.342,180.81 153.5,182.5C 154.069,178.671 153.402,175.337 151.5,172.5C 149.735,171.539 147.735,171.205 145.5,171.5C 145.187,168.753 145.52,166.086 146.5,163.5C 147.987,168.657 148.653,168.324 148.5,162.5C 150.099,162.768 151.432,162.434 152.5,161.5C 152.5,158.833 152.5,156.167 152.5,153.5C 152.5,152.833 152.5,152.167 152.5,151.5 Z"/></g>
<g><path style="opacity:1" fill="#318098" d="M 79.5,160.5 C 82.5,160.5 85.5,160.5 88.5,160.5C 95.5618,160.884 102.562,161.218 109.5,161.5C 109.5,167.167 109.5,172.833 109.5,178.5C 106.167,178.5 102.833,178.5 99.5,178.5C 99.6495,177.448 99.4828,176.448 99,175.5C 97.3484,174.601 95.8484,173.601 94.5,172.5C 92.6112,171.258 90.6112,171.258 88.5,172.5C 88.7135,170.856 88.3802,169.356 87.5,168C 84.89,166.519 82.2234,165.352 79.5,164.5C 79.5,163.167 79.5,161.833 79.5,160.5 Z"/></g>
<g><path style="opacity:1" fill="#e1925e" d="M 122.5,158.5 C 122.5,161.833 122.5,165.167 122.5,168.5C 122.5,173.167 122.5,177.833 122.5,182.5C 119.003,183.705 116.003,183.205 113.5,181C 114.253,179.513 115.086,179.346 116,180.5C 116.667,179.833 116.667,179.167 116,178.5C 114.644,177.62 113.144,177.286 111.5,177.5C 111.809,174.654 113.475,173.154 116.5,173C 115.874,172.25 115.374,171.416 115,170.5C 113.774,172.548 112.274,172.881 110.5,171.5C 110.5,167.5 110.5,163.5 110.5,159.5C 112.086,158.852 113.753,158.352 115.5,158C 114.5,157.667 113.5,157.333 112.5,157C 114.101,156.727 115.601,156.227 117,155.5C 117.12,160.392 118.454,160.725 121,156.5C 121.278,157.416 121.778,158.082 122.5,158.5 Z"/></g>
<g><path style="opacity:1" fill="#1a2d34" d="M 126.5,172.5 C 127.833,172.5 129.167,172.5 130.5,172.5C 132.167,172.5 133.833,172.5 135.5,172.5C 135.611,173.117 135.944,173.617 136.5,174C 138.81,174.497 141.143,174.663 143.5,174.5C 143.5,175.5 143.5,176.5 143.5,177.5C 140.855,175.758 137.855,175.091 134.5,175.5C 132.052,174.527 129.385,174.194 126.5,174.5C 126.5,173.833 126.5,173.167 126.5,172.5 Z"/></g>
<g><path style="opacity:1" fill="#392b21" d="M 135.5,172.5 C 138.167,172.5 140.833,172.5 143.5,172.5C 143.5,172.833 143.5,173.167 143.5,173.5C 143.5,173.833 143.5,174.167 143.5,174.5C 141.143,174.663 138.81,174.497 136.5,174C 135.944,173.617 135.611,173.117 135.5,172.5 Z"/></g>
<g><path style="opacity:1" fill="#4e5654" d="M 143.5,173.5 C 143.5,173.167 143.5,172.833 143.5,172.5C 146.167,172.5 148.833,172.5 151.5,172.5C 153.402,175.337 154.069,178.671 153.5,182.5C 153.5,183.167 153.167,183.5 152.5,183.5C 152.5,180.167 152.5,176.833 152.5,173.5C 149.5,173.5 146.5,173.5 143.5,173.5 Z"/></g>
<g><path style="opacity:1" fill="#2184a2" d="M 51.5,171.5 C 51.5,172.5 51.5,173.5 51.5,174.5C 51.5,175.833 51.5,177.167 51.5,178.5C 44.5,178.5 37.5,178.5 30.5,178.5C 30.5,172.5 30.5,166.5 30.5,160.5C 37.1667,160.167 43.8333,159.833 50.5,159.5C 50.1832,163.702 50.5166,167.702 51.5,171.5 Z"/></g>
<g><path style="opacity:1" fill="#70645e" d="M 109.5,158.5 C 110.167,158.5 110.5,158.833 110.5,159.5C 110.5,163.5 110.5,167.5 110.5,171.5C 110.5,174.167 110.5,176.833 110.5,179.5C 100.167,179.5 89.8333,179.5 79.5,179.5C 79.5,175.5 79.5,171.5 79.5,167.5C 82.0163,167.755 84.3496,168.589 86.5,170C 84.4233,170.192 82.4233,170.692 80.5,171.5C 82.1045,173.179 82.7711,175.179 82.5,177.5C 84.5,178.833 86.5,178.833 88.5,177.5C 88.5,175.833 88.5,174.167 88.5,172.5C 90.6112,171.258 92.6112,171.258 94.5,172.5C 92.901,172.232 91.5676,172.566 90.5,173.5C 90.5,174.833 90.5,176.167 90.5,177.5C 92.5,177.5 94.5,177.5 96.5,177.5C 97.391,178.11 98.391,178.443 99.5,178.5C 102.833,178.5 106.167,178.5 109.5,178.5C 109.5,172.833 109.5,167.167 109.5,161.5C 109.5,160.833 109.5,160.167 109.5,159.5C 109.5,159.167 109.5,158.833 109.5,158.5 Z"/></g>
<g><path style="opacity:1" fill="#1683a1" d="M 126.5,174.5 C 129.385,174.194 132.052,174.527 134.5,175.5C 134.5,178.167 134.5,180.833 134.5,183.5C 131.833,183.5 129.167,183.5 126.5,183.5C 126.5,180.5 126.5,177.5 126.5,174.5 Z"/></g>
<g><path style="opacity:1" fill="#186278" d="M 134.5,175.5 C 137.855,175.091 140.855,175.758 143.5,177.5C 143.378,181.838 143.045,182.172 142.5,178.5C 140.167,178.5 137.833,178.5 135.5,178.5C 135.5,182.5 135.5,186.5 135.5,190.5C 135.167,190.5 134.833,190.5 134.5,190.5C 134.5,188.5 134.5,186.5 134.5,184.5C 131.833,184.5 129.167,184.5 126.5,184.5C 126.5,184.167 126.5,183.833 126.5,183.5C 129.167,183.5 131.833,183.5 134.5,183.5C 134.5,180.833 134.5,178.167 134.5,175.5 Z"/></g>
<g><path style="opacity:1" fill="#dc8956" d="M 78.5,164.5 C 78.5,168.833 78.5,173.167 78.5,177.5C 77.448,177.351 76.448,177.517 75.5,178C 76.9561,178.423 77.4561,179.256 77,180.5C 75.6439,179.62 74.1439,179.286 72.5,179.5C 72.3118,181.103 72.8118,182.437 74,183.5C 75.6597,183.676 77.3264,183.009 79,181.5C 79.9277,183.335 81.0944,183.668 82.5,182.5C 82.8333,182.833 83.1667,183.167 83.5,183.5C 82.9017,184.795 82.4017,186.128 82,187.5C 79.3639,184.277 76.6972,183.943 74,186.5C 71.1124,185.909 68.4457,184.909 66,183.5C 65.5848,185.291 64.5848,186.624 63,187.5C 60.8615,186.231 58.6948,186.231 56.5,187.5C 57.0253,188.192 57.6919,188.692 58.5,189C 55.5133,188.937 52.68,188.103 50,186.5C 49.3333,187.833 48.6667,187.833 48,186.5C 47.6667,187.167 47.3333,187.833 47,188.5C 45.6667,187.833 44.3333,187.167 43,186.5C 42.3828,187.449 42.5494,188.282 43.5,189C 41.9419,189.21 40.6085,189.71 39.5,190.5C 31.1667,190.5 22.8333,190.5 14.5,190.5C 17.9416,189.252 21.6083,188.419 25.5,188C 26.6184,186.926 27.6184,185.76 28.5,184.5C 29.6753,185.855 30.6753,185.688 31.5,184C 31,183.5 30.5,183 30,182.5C 28.6124,183.554 27.1124,183.72 25.5,183C 25.6158,181.732 25.9491,180.398 26.5,179C 25.8333,178.667 25.1667,178.333 24.5,178C 25.9047,176.731 27.5714,176.231 29.5,176.5C 29.5,177.5 29.5,178.5 29.5,179.5C 37.0191,179.825 44.3524,179.492 51.5,178.5C 51.5,177.167 51.5,175.833 51.5,174.5C 54.3258,174.314 56.9925,173.647 59.5,172.5C 60.4776,172.977 61.3109,173.643 62,174.5C 63.0195,173.313 64.1861,172.313 65.5,171.5C 67.0639,172.186 68.7306,172.019 70.5,171C 68.5035,170.24 66.8368,169.74 65.5,169.5C 65.7093,168.914 66.0426,168.414 66.5,168C 68.9005,167.814 71.2338,167.314 73.5,166.5C 72.4706,166.704 71.4706,166.204 70.5,165C 71,164.5 71.5,164 72,163.5C 73.016,164.634 73.6827,164.301 74,162.5C 74.6667,163.833 75.3333,163.833 76,162.5C 76.7083,163.381 77.5416,164.047 78.5,164.5 Z"/></g>
<g><path style="opacity:1" fill="#e08f62" d="M 28.5,144.5 C 28.8333,144.5 29.1667,144.5 29.5,144.5C 29.5,144.833 29.5,145.167 29.5,145.5C 29.5,149.5 29.5,153.5 29.5,157.5C 29.5,163.833 29.5,170.167 29.5,176.5C 27.5714,176.231 25.9047,176.731 24.5,178C 25.1667,178.333 25.8333,178.667 26.5,179C 25.9491,180.398 25.6158,181.732 25.5,183C 27.1124,183.72 28.6124,183.554 30,182.5C 30.5,183 31,183.5 31.5,184C 30.6753,185.688 29.6753,185.855 28.5,184.5C 27.6184,185.76 26.6184,186.926 25.5,188C 21.6083,188.419 17.9416,189.252 14.5,190.5C 14.1667,190.5 13.8333,190.5 13.5,190.5C 9.29934,188.971 5.966,186.304 3.5,182.5C 5.14387,182.286 6.64387,182.62 8,183.5C 8.8141,181.718 9.98077,180.218 11.5,179C 8.16667,178.667 4.83333,178.333 1.5,178C 2.87319,177.125 4.37319,176.625 6,176.5C 8.95717,177.394 11.7905,176.894 14.5,175C 12.8629,173.049 11.3629,173.216 10,175.5C 6.88643,172.524 7.71976,170.69 12.5,170C 10.7979,168.282 8.96453,168.115 7,169.5C 6.22759,168.151 5.06092,167.318 3.5,167C 8.75034,166.807 13.917,166.307 19,165.5C 20.824,166.238 22.824,166.572 25,166.5C 28.3324,164.557 28.1658,163.39 24.5,163C 26.0609,162.682 27.2276,161.849 28,160.5C 27.9511,155.323 28.1177,149.99 28.5,144.5 Z"/></g>
<g><path style="opacity:1" fill="#d8854f" d="M 78.5,144.5 C 78.8333,144.5 79.1667,144.5 79.5,144.5C 79.5,144.833 79.5,145.167 79.5,145.5C 79.5,149.833 79.5,154.167 79.5,158.5C 79.5,159.167 79.5,159.833 79.5,160.5C 79.5,161.833 79.5,163.167 79.5,164.5C 79.5,165.5 79.5,166.5 79.5,167.5C 79.5,171.5 79.5,175.5 79.5,179.5C 89.8333,179.5 100.167,179.5 110.5,179.5C 110.5,176.833 110.5,174.167 110.5,171.5C 112.274,172.881 113.774,172.548 115,170.5C 115.374,171.416 115.874,172.25 116.5,173C 113.475,173.154 111.809,174.654 111.5,177.5C 113.144,177.286 114.644,177.62 116,178.5C 116.667,179.167 116.667,179.833 116,180.5C 115.086,179.346 114.253,179.513 113.5,181C 116.003,183.205 119.003,183.705 122.5,182.5C 122.5,177.833 122.5,173.167 122.5,168.5C 123.492,175.648 123.825,182.981 123.5,190.5C 95.5,190.5 67.5,190.5 39.5,190.5C 40.6085,189.71 41.9419,189.21 43.5,189C 42.5494,188.282 42.3828,187.449 43,186.5C 44.3333,187.167 45.6667,187.833 47,188.5C 47.3333,187.833 47.6667,187.167 48,186.5C 48.6667,187.833 49.3333,187.833 50,186.5C 52.68,188.103 55.5133,188.937 58.5,189C 57.6919,188.692 57.0253,188.192 56.5,187.5C 58.6948,186.231 60.8615,186.231 63,187.5C 64.5848,186.624 65.5848,185.291 66,183.5C 68.4457,184.909 71.1124,185.909 74,186.5C 76.6972,183.943 79.3639,184.277 82,187.5C 82.4017,186.128 82.9017,184.795 83.5,183.5C 83.1667,183.167 82.8333,182.833 82.5,182.5C 81.0944,183.668 79.9277,183.335 79,181.5C 77.3264,183.009 75.6597,183.676 74,183.5C 72.8118,182.437 72.3118,181.103 72.5,179.5C 74.1439,179.286 75.6439,179.62 77,180.5C 77.4561,179.256 76.9561,178.423 75.5,178C 76.448,177.517 77.448,177.351 78.5,177.5C 78.5,173.167 78.5,168.833 78.5,164.5C 78.5,161.833 78.5,159.167 78.5,156.5C 78.5,152.5 78.5,148.5 78.5,144.5 Z"/></g>
<g><path style="opacity:1" fill="#6d3d2d" d="M 90.5,173.5 C 92.7772,174.449 94.7772,175.782 96.5,177.5C 94.5,177.5 92.5,177.5 90.5,177.5C 90.5,176.167 90.5,174.833 90.5,173.5 Z"/></g>
<g><path style="opacity:1" fill="#332d33" d="M 90.5,173.5 C 91.5676,172.566 92.901,172.232 94.5,172.5C 95.8484,173.601 97.3484,174.601 99,175.5C 99.4828,176.448 99.6495,177.448 99.5,178.5C 98.391,178.443 97.391,178.11 96.5,177.5C 94.7772,175.782 92.7772,174.449 90.5,173.5 Z"/></g>
<g><path style="opacity:1" fill="#144452" d="M 88.5,177.5 C 86.5,178.833 84.5,178.833 82.5,177.5C 83.4345,176.432 83.7678,175.099 83.5,173.5C 84.8333,173.5 86.1667,173.5 87.5,173.5C 87.2322,175.099 87.5655,176.432 88.5,177.5 Z"/></g>
<g><path style="opacity:1" fill="#227e9a" d="M 143.5,173.5 C 146.5,173.5 149.5,173.5 152.5,173.5C 152.5,176.833 152.5,180.167 152.5,183.5C 150.379,186.953 147.379,189.286 143.5,190.5C 140.833,190.5 138.167,190.5 135.5,190.5C 135.5,186.5 135.5,182.5 135.5,178.5C 137.833,178.5 140.167,178.5 142.5,178.5C 143.045,182.172 143.378,181.838 143.5,177.5C 143.5,176.5 143.5,175.5 143.5,174.5C 143.5,174.167 143.5,173.833 143.5,173.5 Z"/></g>
<g><path style="opacity:1" fill="#18819e" d="M 126.5,184.5 C 129.167,184.5 131.833,184.5 134.5,184.5C 134.5,186.5 134.5,188.5 134.5,190.5C 131.833,190.5 129.167,190.5 126.5,190.5C 126.5,188.5 126.5,186.5 126.5,184.5 Z"/></g>
</svg>
