<?xml version="1.0" encoding="UTF-8"?>
<!DOCTYPE svg PUBLIC "-//W3C//DTD SVG 1.1//EN" "http://www.w3.org/Graphics/SVG/1.1/DTD/svg11.dtd">
<svg xmlns="http://www.w3.org/2000/svg" version="1.1" width="158px" height="191px" style="shape-rendering:geometricPrecision; text-rendering:geometricPrecision; image-rendering:optimizeQuality; fill-rule:evenodd; clip-rule:evenodd" xmlns:xlink="http://www.w3.org/1999/xlink">
<g><path style="opacity:1" fill="#fdfefe" d="M -0.5,-0.5 C 4.83333,-0.5 10.1667,-0.5 15.5,-0.5C 7.60337,1.72894 2.27003,6.72894 -0.5,14.5C -0.5,9.5 -0.5,4.5 -0.5,-0.5 Z"/></g>
<g><path style="opacity:1" fill="#bbdef2" d="M 15.5,-0.5 C 57.5,-0.5 99.5,-0.5 141.5,-0.5C 149.833,1.83333 155.167,7.16667 157.5,15.5C 157.5,45.8333 157.5,76.1667 157.5,106.5C 154.579,105.304 151.579,104.304 148.5,103.5C 147.599,102.71 146.932,101.71 146.5,100.5C 147.583,100.461 148.583,100.127 149.5,99.5C 150.773,98.7435 150.773,98.0768 149.5,97.5C 141.713,89.7157 133.046,83.049 123.5,77.5C 122.452,75.4662 120.786,74.1329 118.5,73.5C 116.097,75.2361 114.097,77.2361 112.5,79.5C 109.37,80.5722 106.704,82.4055 104.5,85C 102.655,86.128 100.655,86.628 98.5,86.5C 91.8917,84.6204 85.225,82.9538 78.5,81.5C 77.5768,80.6971 76.5768,80.5304 75.5,81C 67.6366,89.1977 59.47,97.031 51,104.5C 50.5172,105.448 50.3505,106.448 50.5,107.5C 51.5,107.5 52.5,107.5 53.5,107.5C 53.81,110.713 53.4767,113.713 52.5,116.5C 49.7895,118.945 46.9562,121.278 44,123.5C 43.3083,124.437 43.475,125.103 44.5,125.5C 44.1788,127.048 43.1788,127.715 41.5,127.5C 41.385,129.947 40.385,131.947 38.5,133.5C 25.6277,126.231 12.6277,119.231 -0.5,112.5C -0.5,79.8333 -0.5,47.1667 -0.5,14.5C 2.27003,6.72894 7.60337,1.72894 15.5,-0.5 Z"/></g>
<g><path style="opacity:1" fill="#fcfdfe" d="M 141.5,-0.5 C 146.833,-0.5 152.167,-0.5 157.5,-0.5C 157.5,4.83333 157.5,10.1667 157.5,15.5C 155.167,7.16667 149.833,1.83333 141.5,-0.5 Z"/></g>
<g><path style="opacity:1" fill="#185b5d" d="M 112.5,79.5 C 109.5,82.1667 106.5,84.8333 103.5,87.5C 102.833,87.8333 102.167,88.1667 101.5,88.5C 100.5,87.8333 99.5,87.1667 98.5,86.5C 100.655,86.628 102.655,86.128 104.5,85C 106.704,82.4055 109.37,80.5722 112.5,79.5 Z"/></g>
<g><path style="opacity:1" fill="#446449" d="M 78.5,81.5 C 85.225,82.9538 91.8917,84.6204 98.5,86.5C 99.5,87.1667 100.5,87.8333 101.5,88.5C 94.3833,88.304 87.3833,87.304 80.5,85.5C 80.0825,84.7784 79.4158,84.2784 78.5,84C 79.5981,83.2303 79.5981,82.397 78.5,81.5 Z"/></g>
<g><path style="opacity:1" fill="#025265" d="M 78.5,86.5 C 78.8417,85.6618 79.5084,85.3284 80.5,85.5C 87.3833,87.304 94.3833,88.304 101.5,88.5C 101.5,89.5 101.5,90.5 101.5,91.5C 93.7441,90.2481 86.0774,88.5815 78.5,86.5 Z"/></g>
<g><path style="opacity:1" fill="#13443b" d="M 78.5,81.5 C 79.5981,82.397 79.5981,83.2303 78.5,84C 79.4158,84.2784 80.0825,84.7784 80.5,85.5C 79.5084,85.3284 78.8417,85.6618 78.5,86.5C 78.1667,86.5 77.8333,86.5 77.5,86.5C 73.7653,88.7246 70.432,91.558 67.5,95C 68.3081,95.3076 68.9747,95.8076 69.5,96.5C 68.1431,98.1856 66.8098,99.8523 65.5,101.5C 63.629,101.859 62.129,102.859 61,104.5C 60.4926,103.004 60.9926,101.837 62.5,101C 62.1667,100.833 61.8333,100.667 61.5,100.5C 58.8136,102.856 56.147,105.189 53.5,107.5C 52.5,107.5 51.5,107.5 50.5,107.5C 50.3505,106.448 50.5172,105.448 51,104.5C 59.47,97.031 67.6366,89.1977 75.5,81C 76.5768,80.5304 77.5768,80.6971 78.5,81.5 Z"/></g>
<g><path style="opacity:1" fill="#446a41" d="M 123.5,77.5 C 133.046,83.049 141.713,89.7157 149.5,97.5C 147.821,97.1077 146.154,96.6077 144.5,96C 139.453,91.4166 134.453,87.7499 129.5,85C 126.681,82.425 123.681,80.0917 120.5,78C 121.448,77.5172 122.448,77.3505 123.5,77.5 Z"/></g>
<g><path style="opacity:1" fill="#19523a" d="M 123.5,77.5 C 122.448,77.3505 121.448,77.5172 120.5,78C 123.681,80.0917 126.681,82.425 129.5,85C 134.453,87.7499 139.453,91.4166 144.5,96C 146.154,96.6077 147.821,97.1077 149.5,97.5C 150.773,98.0768 150.773,98.7435 149.5,99.5C 148.583,100.127 147.583,100.461 146.5,100.5C 145.375,98.8712 144.041,97.3712 142.5,96C 134.876,89.8634 126.876,84.3634 118.5,79.5C 118.189,78.5222 117.522,77.8555 116.5,77.5C 115.378,78.6302 114.044,79.2969 112.5,79.5C 114.097,77.2361 116.097,75.2361 118.5,73.5C 120.786,74.1329 122.452,75.4662 123.5,77.5 Z"/></g>
<g><path style="opacity:1" fill="#2b886e" d="M 83.5,90.5 C 88.1719,92.5005 92.8386,94.5005 97.5,96.5C 98.3857,97.325 98.719,98.325 98.5,99.5C 98.3718,103.881 98.7051,108.215 99.5,112.5C 98.8333,112.167 98.1667,111.833 97.5,111.5C 96.234,107.138 96.234,102.471 97.5,97.5C 95.1732,97.3354 93.0065,96.6687 91,95.5C 89.7879,98.8342 90.6212,101.334 93.5,103C 91.75,104.754 91.0833,106.921 91.5,109.5C 90.8333,108.5 90.1667,107.5 89.5,106.5C 89.634,104.708 89.3007,103.042 88.5,101.5C 89.7969,99.3066 89.7969,96.9732 88.5,94.5C 86.0748,93.6924 83.7415,92.6924 81.5,91.5C 81.9569,90.7025 82.6236,90.3691 83.5,90.5 Z"/></g>
<g><path style="opacity:1" fill="#7aebec" d="M 83.5,90.5 C 82.6236,90.3691 81.9569,90.7025 81.5,91.5C 83.7415,92.6924 86.0748,93.6924 88.5,94.5C 89.7969,96.9732 89.7969,99.3066 88.5,101.5C 86.78,100.136 84.78,99.1359 82.5,98.5C 81.3452,101.446 81.1786,104.446 82,107.5C 88.247,110.54 94.747,112.874 101.5,114.5C 102.806,115.467 103.473,116.801 103.5,118.5C 103.167,118.5 102.833,118.5 102.5,118.5C 94.3288,115.443 85.9955,112.777 77.5,110.5C 77.5,103.833 77.5,97.1667 77.5,90.5C 79.6907,89.7093 81.6907,89.7093 83.5,90.5 Z"/></g>
<g><path style="opacity:1" fill="#71e7eb" d="M 118.5,79.5 C 119.907,88.2004 121.573,96.8671 123.5,105.5C 123.315,106.584 122.982,107.584 122.5,108.5C 116.833,111.833 111.167,115.167 105.5,118.5C 103.985,108.231 103.318,97.8976 103.5,87.5C 106.5,84.8333 109.5,82.1667 112.5,79.5C 114.044,79.2969 115.378,78.6302 116.5,77.5C 117.522,77.8555 118.189,78.5222 118.5,79.5 Z"/></g>
<g><path style="opacity:1" fill="#84efd9" d="M 77.5,86.5 C 77.5,87.8333 77.5,89.1667 77.5,90.5C 77.5,97.1667 77.5,103.833 77.5,110.5C 77.8016,113.059 77.4682,115.393 76.5,117.5C 72.7173,115.217 68.7173,114.55 64.5,115.5C 62.3431,114.947 62.5097,113.947 65,112.5C 65.4986,108.848 65.6653,105.182 65.5,101.5C 66.8098,99.8523 68.1431,98.1856 69.5,96.5C 68.9747,95.8076 68.3081,95.3076 67.5,95C 70.432,91.558 73.7653,88.7246 77.5,86.5 Z"/></g>
<g><path style="opacity:1" fill="#7ce0d2" d="M 97.5,111.5 C 95.4214,111.029 93.4214,110.363 91.5,109.5C 91.0833,106.921 91.75,104.754 93.5,103C 90.6212,101.334 89.7879,98.8342 91,95.5C 93.0065,96.6687 95.1732,97.3354 97.5,97.5C 96.234,102.471 96.234,107.138 97.5,111.5 Z"/></g>
<g><path style="opacity:1" fill="#85f4dc" d="M 118.5,79.5 C 126.876,84.3634 134.876,89.8634 142.5,96C 144.041,97.3712 145.375,98.8712 146.5,100.5C 146.932,101.71 147.599,102.71 148.5,103.5C 149.303,107.239 150.303,110.905 151.5,114.5C 151.665,116.827 152.331,118.993 153.5,121C 144.927,118.221 136.593,114.554 128.5,110C 126.564,109.187 124.564,108.687 122.5,108.5C 122.982,107.584 123.315,106.584 123.5,105.5C 121.573,96.8671 119.907,88.2004 118.5,79.5 Z"/></g>
<g><path style="opacity:1" fill="#18372f" d="M 134.5,94.5 C 136.882,95.3507 138.882,96.684 140.5,98.5C 139.833,98.5 139.167,98.5 138.5,98.5C 137.609,97.8902 136.609,97.5569 135.5,97.5C 134.89,96.609 134.557,95.609 134.5,94.5 Z"/></g>
<g><path style="opacity:1" fill="#6bd3c6" d="M 88.5,101.5 C 89.3007,103.042 89.634,104.708 89.5,106.5C 89.5299,107.497 89.0299,108.164 88,108.5C 83.9514,107.414 82.1181,104.747 82.5,100.5C 84.5,100.833 86.5,101.167 88.5,101.5 Z"/></g>
<g><path style="opacity:1" fill="#7d8f5f" d="M 98.5,99.5 C 99.6874,102.946 100.354,106.613 100.5,110.5C 100.672,111.492 100.338,112.158 99.5,112.5C 98.7051,108.215 98.3718,103.881 98.5,99.5 Z"/></g>
<g><path style="opacity:1" fill="#3b9082" d="M 134.5,94.5 C 134.557,95.609 134.89,96.609 135.5,97.5C 136.031,101.291 137.031,104.957 138.5,108.5C 138.253,109.713 137.586,110.38 136.5,110.5C 134.614,109.639 132.78,108.639 131,107.5C 129.878,101.762 128.878,96.095 128,90.5C 130.314,91.7332 132.481,93.0666 134.5,94.5 Z"/></g>
<g><path style="opacity:1" fill="#587e5e" d="M 138.5,98.5 C 139.167,98.5 139.833,98.5 140.5,98.5C 143.13,103.303 144.13,108.303 143.5,113.5C 142.772,111.265 141.439,109.432 139.5,108C 140.683,104.726 140.35,101.559 138.5,98.5 Z"/></g>
<g><path style="opacity:1" fill="#47a9ae" d="M 88.5,101.5 C 86.5,101.167 84.5,100.833 82.5,100.5C 82.1181,104.747 83.9514,107.414 88,108.5C 89.0299,108.164 89.5299,107.497 89.5,106.5C 90.1667,107.5 90.8333,108.5 91.5,109.5C 93.4214,110.363 95.4214,111.029 97.5,111.5C 98.1667,111.833 98.8333,112.167 99.5,112.5C 100.338,112.158 100.672,111.492 100.5,110.5C 101.434,111.568 101.768,112.901 101.5,114.5C 94.747,112.874 88.247,110.54 82,107.5C 81.1786,104.446 81.3452,101.446 82.5,98.5C 84.78,99.1359 86.78,100.136 88.5,101.5 Z"/></g>
<g><path style="opacity:1" fill="#4db6b8" d="M 135.5,97.5 C 136.609,97.5569 137.609,97.8902 138.5,98.5C 140.35,101.559 140.683,104.726 139.5,108C 141.439,109.432 142.772,111.265 143.5,113.5C 141.176,112.344 138.843,111.344 136.5,110.5C 137.586,110.38 138.253,109.713 138.5,108.5C 137.031,104.957 136.031,101.291 135.5,97.5 Z"/></g>
<g><path style="opacity:1" fill="#143629" d="M 148.5,103.5 C 151.579,104.304 154.579,105.304 157.5,106.5C 157.5,108.833 157.5,111.167 157.5,113.5C 156.71,114.609 156.21,115.942 156,117.5C 155.581,116.328 154.915,115.328 154,114.5C 153.23,115.598 152.397,115.598 151.5,114.5C 150.303,110.905 149.303,107.239 148.5,103.5 Z"/></g>
<g><path style="opacity:1" fill="#7eedd5" d="M 62.5,117.5 C 59.8333,118.833 57.1667,120.167 54.5,121.5C 53.9033,121.265 53.5699,120.765 53.5,120C 54.2297,116.206 54.7297,112.373 55,108.5C 56.3333,107.167 57.6667,105.833 59,104.5C 59.4988,108.486 59.6655,112.486 59.5,116.5C 60.791,116.263 61.791,116.596 62.5,117.5 Z"/></g>
<g><path style="opacity:1" fill="#48d8e7" d="M 77.5,86.5 C 77.8333,86.5 78.1667,86.5 78.5,86.5C 86.0774,88.5815 93.7441,90.2481 101.5,91.5C 101.5,90.5 101.5,89.5 101.5,88.5C 102.167,88.1667 102.833,87.8333 103.5,87.5C 103.318,97.8976 103.985,108.231 105.5,118.5C 104.833,118.5 104.167,118.5 103.5,118.5C 103.473,116.801 102.806,115.467 101.5,114.5C 101.768,112.901 101.434,111.568 100.5,110.5C 100.354,106.613 99.6874,102.946 98.5,99.5C 98.719,98.325 98.3857,97.325 97.5,96.5C 92.8386,94.5005 88.1719,92.5005 83.5,90.5C 81.6907,89.7093 79.6907,89.7093 77.5,90.5C 77.5,89.1667 77.5,87.8333 77.5,86.5 Z"/></g>
<g><path style="opacity:1" fill="#58c1a9" d="M 65.5,101.5 C 65.6653,105.182 65.4986,108.848 65,112.5C 62.5097,113.947 62.3431,114.947 64.5,115.5C 64.5,115.833 64.5,116.167 64.5,116.5C 63.8333,116.833 63.1667,117.167 62.5,117.5C 61.791,116.596 60.791,116.263 59.5,116.5C 59.6655,112.486 59.4988,108.486 59,104.5C 57.6667,105.833 56.3333,107.167 55,108.5C 54.7297,112.373 54.2297,116.206 53.5,120C 53.5699,120.765 53.9033,121.265 54.5,121.5C 54.1583,122.338 53.4916,122.672 52.5,122.5C 52.5,120.5 52.5,118.5 52.5,116.5C 53.4767,113.713 53.81,110.713 53.5,107.5C 56.147,105.189 58.8136,102.856 61.5,100.5C 61.8333,100.667 62.1667,100.833 62.5,101C 60.9926,101.837 60.4926,103.004 61,104.5C 62.129,102.859 63.629,101.859 65.5,101.5 Z"/></g>
<g><path style="opacity:1" fill="#454439" d="M 76.5,117.5 C 78.2504,118.87 80.2504,119.87 82.5,120.5C 88.7307,123.115 95.064,125.449 101.5,127.5C 102.833,128.5 104.167,129.5 105.5,130.5C 103.215,131.546 100.882,131.546 98.5,130.5C 88.0983,125.636 77.4317,121.303 66.5,117.5C 65.5084,117.672 64.8417,117.338 64.5,116.5C 64.5,116.167 64.5,115.833 64.5,115.5C 68.7173,114.55 72.7173,115.217 76.5,117.5 Z"/></g>
<g><path style="opacity:1" fill="#102c2e" d="M 52.5,116.5 C 52.5,118.5 52.5,120.5 52.5,122.5C 50.7106,124.007 48.7106,125.34 46.5,126.5C 45.8165,126.137 45.1499,125.804 44.5,125.5C 43.475,125.103 43.3083,124.437 44,123.5C 46.9562,121.278 49.7895,118.945 52.5,116.5 Z"/></g>
<g><path style="opacity:1" fill="#47a394" d="M 101.5,127.5 C 95.064,125.449 88.7307,123.115 82.5,120.5C 82.1924,118.076 82.5258,115.743 83.5,113.5C 88.0541,114.776 92.3874,116.609 96.5,119C 98.1341,119.494 99.8008,119.66 101.5,119.5C 101.5,122.167 101.5,124.833 101.5,127.5 Z"/></g>
<g><path style="opacity:1" fill="#005780" d="M 86.5,130.5 C 80.1057,129.035 73.7723,127.368 67.5,125.5C 67.5,124.5 67.5,123.5 67.5,122.5C 68.7498,122.423 69.5831,121.756 70,120.5C 70.2492,121.624 70.7492,122.624 71.5,123.5C 76.4806,126.161 81.4806,128.494 86.5,130.5 Z"/></g>
<g><path style="opacity:1" fill="#021f2d" d="M 66.5,117.5 C 77.4317,121.303 88.0983,125.636 98.5,130.5C 97.8333,130.5 97.5,130.833 97.5,131.5C 97.5569,132.609 97.8902,133.609 98.5,134.5C 94.6852,132.703 90.6852,131.37 86.5,130.5C 81.4806,128.494 76.4806,126.161 71.5,123.5C 70.7492,122.624 70.2492,121.624 70,120.5C 69.5831,121.756 68.7498,122.423 67.5,122.5C 67.1667,122.5 66.8333,122.5 66.5,122.5C 67.562,120.766 67.562,119.099 66.5,117.5 Z"/></g>
<g><path style="opacity:1" fill="#b9c496" d="M 77.5,110.5 C 85.9955,112.777 94.3288,115.443 102.5,118.5C 108.009,120.856 109.676,124.856 107.5,130.5C 106.833,130.5 106.167,130.5 105.5,130.5C 104.167,129.5 102.833,128.5 101.5,127.5C 101.5,124.833 101.5,122.167 101.5,119.5C 99.8008,119.66 98.1341,119.494 96.5,119C 92.3874,116.609 88.0541,114.776 83.5,113.5C 82.5258,115.743 82.1924,118.076 82.5,120.5C 80.2504,119.87 78.2504,118.87 76.5,117.5C 77.4682,115.393 77.8016,113.059 77.5,110.5 Z"/></g>
<g><path style="opacity:1" fill="#032c28" d="M -0.5,112.5 C 12.6277,119.231 25.6277,126.231 38.5,133.5C 37.8333,134.833 36.8333,135.833 35.5,136.5C 35.6495,135.448 35.4828,134.448 35,133.5C 34.3923,135.154 33.8923,136.821 33.5,138.5C 29.7361,135.299 25.4028,133.132 20.5,132C 14.0871,127.126 7.08705,123.293 -0.5,120.5C -0.5,117.833 -0.5,115.167 -0.5,112.5 Z"/></g>
<g><path style="opacity:1" fill="#b5d3ae" d="M 122.5,108.5 C 124.564,108.687 126.564,109.187 128.5,110C 136.593,114.554 144.927,118.221 153.5,121C 152.331,118.993 151.665,116.827 151.5,114.5C 152.397,115.598 153.23,115.598 154,114.5C 154.915,115.328 155.581,116.328 156,117.5C 156.21,115.942 156.71,114.609 157.5,113.5C 157.5,129.833 157.5,146.167 157.5,162.5C 155.882,158.425 154.882,154.092 154.5,149.5C 152.821,149.715 151.821,149.048 151.5,147.5C 151.778,145.654 151.111,144.32 149.5,143.5C 146.823,144.074 144.157,144.741 141.5,145.5C 142.816,148.553 144.483,151.219 146.5,153.5C 146.565,155.696 147.232,157.696 148.5,159.5C 148.833,158.833 149.167,158.167 149.5,157.5C 147.951,155.098 147.284,152.432 147.5,149.5C 148.167,149.833 148.833,150.167 149.5,150.5C 152.887,157.038 154.887,164.038 155.5,171.5C 148.268,169.946 141.268,167.946 134.5,165.5C 133.525,155.624 131.525,145.957 128.5,136.5C 127.583,137.127 126.583,137.461 125.5,137.5C 119.121,135.933 113.121,133.6 107.5,130.5C 109.676,124.856 108.009,120.856 102.5,118.5C 102.833,118.5 103.167,118.5 103.5,118.5C 104.167,118.5 104.833,118.5 105.5,118.5C 111.167,115.167 116.833,111.833 122.5,108.5 Z"/></g>
<g><path style="opacity:1" fill="#76d6ce" d="M 136.5,118.5 C 138.216,118.629 139.883,118.962 141.5,119.5C 141.991,123.622 142.991,127.622 144.5,131.5C 144.376,132.107 144.043,132.44 143.5,132.5C 142.167,132.167 140.833,131.833 139.5,131.5C 138.609,127.165 137.609,122.832 136.5,118.5 Z"/></g>
<g><path style="opacity:1" fill="#c49558" d="M 149.5,122.5 C 150.67,124.65 151.67,126.984 152.5,129.5C 152.167,129.833 151.833,130.167 151.5,130.5C 150.365,128.293 149.699,125.96 149.5,123.5C 149.5,123.167 149.5,122.833 149.5,122.5 Z"/></g>
<g><path style="opacity:1" fill="#584c35" d="M 142.5,119.5 C 145.241,119.707 147.574,120.707 149.5,122.5C 149.5,122.833 149.5,123.167 149.5,123.5C 149.167,123.5 148.833,123.5 148.5,123.5C 146.95,122.559 145.284,121.893 143.5,121.5C 143.167,120.833 142.833,120.167 142.5,119.5 Z"/></g>
<g><path style="opacity:1" fill="#2a5f4a" d="M 142.5,119.5 C 142.167,119.5 141.833,119.5 141.5,119.5C 139.883,118.962 138.216,118.629 136.5,118.5C 135.438,117.425 135.438,116.425 136.5,115.5C 138.565,116.857 140.565,118.19 142.5,119.5 Z"/></g>
<g><path style="opacity:1" fill="#0e9971" d="M -0.5,122.5 C 5.01615,124.084 9.68282,126.918 13.5,131C 15.9573,132.562 18.624,133.562 21.5,134C 23.6572,135.912 25.9906,137.579 28.5,139C 27.9056,139.464 27.2389,139.631 26.5,139.5C 17.4461,137.371 8.44615,135.038 -0.5,132.5C -0.5,129.167 -0.5,125.833 -0.5,122.5 Z"/></g>
<g><path style="opacity:1" fill="#7fdcd2" d="M 143.5,121.5 C 145.284,121.893 146.95,122.559 148.5,123.5C 148.309,127.666 148.976,131.666 150.5,135.5C 148.716,135.107 147.05,134.441 145.5,133.5C 145.459,129.384 144.793,125.384 143.5,121.5 Z"/></g>
<g><path style="opacity:1" fill="#289d8d" d="M 141.5,119.5 C 141.833,119.5 142.167,119.5 142.5,119.5C 142.833,120.167 143.167,120.833 143.5,121.5C 144.793,125.384 145.459,129.384 145.5,133.5C 144.508,133.672 143.842,133.338 143.5,132.5C 144.043,132.44 144.376,132.107 144.5,131.5C 142.991,127.622 141.991,123.622 141.5,119.5 Z"/></g>
<g><path style="opacity:1" fill="#7add9a" d="M 66.5,123.5 C 66.5,132.5 66.5,141.5 66.5,150.5C 66.5,150.833 66.5,151.167 66.5,151.5C 57.5211,150.374 48.8544,148.374 40.5,145.5C 41.6495,141.337 43.8162,137.671 47,134.5C 47.3333,134.833 47.6667,135.167 48,135.5C 50.7587,130.862 54.9254,128.362 60.5,128C 62.3509,126.248 64.3509,124.748 66.5,123.5 Z"/></g>
<g><path style="opacity:1" fill="#3189b9" d="M 67.5,125.5 C 73.7723,127.368 80.1057,129.035 86.5,130.5C 90.6852,131.37 94.6852,132.703 98.5,134.5C 98.8333,134.5 99.1667,134.5 99.5,134.5C 99.4701,135.497 99.9701,136.164 101,136.5C 104.745,137.894 108.578,138.894 112.5,139.5C 112.5,140.167 112.5,140.833 112.5,141.5C 105.93,139.918 99.2629,138.751 92.5,138C 85.9673,134.223 79.134,131.056 72,128.5C 68.8801,131.169 67.3801,130.169 67.5,125.5 Z"/></g>
<g><path style="opacity:1" fill="#61936f" d="M 97.5,131.5 C 105.081,133.582 112.415,136.248 119.5,139.5C 117.189,140.575 114.856,140.575 112.5,139.5C 108.478,137.266 104.144,135.599 99.5,134.5C 99.1667,134.5 98.8333,134.5 98.5,134.5C 97.8902,133.609 97.5569,132.609 97.5,131.5 Z"/></g>
<g><path style="opacity:1" fill="#a7ac7f" d="M -0.5,132.5 C 8.44615,135.038 17.4461,137.371 26.5,139.5C 28.4436,140.828 30.4436,141.161 32.5,140.5C 32.5,141.5 32.5,142.5 32.5,143.5C 30.8333,143.5 29.1667,143.5 27.5,143.5C 18.4268,140.565 9.09348,138.232 -0.5,136.5C -0.5,135.167 -0.5,133.833 -0.5,132.5 Z"/></g>
<g><path style="opacity:1" fill="#054428" d="M 64.5,116.5 C 64.8417,117.338 65.5084,117.672 66.5,117.5C 67.562,119.099 67.562,120.766 66.5,122.5C 65.1266,122.343 63.7932,122.51 62.5,123C 55.9057,126.197 49.239,129.197 42.5,132C 42.8333,132.333 43.1667,132.667 43.5,133C 40.5932,136.395 37.9265,139.895 35.5,143.5C 35.1667,143.5 34.8333,143.5 34.5,143.5C 34.1961,142.85 33.8627,142.183 33.5,141.5C 34.4565,139.925 35.1231,138.258 35.5,136.5C 36.8333,135.833 37.8333,134.833 38.5,133.5C 40.385,131.947 41.385,129.947 41.5,127.5C 43.1788,127.715 44.1788,127.048 44.5,125.5C 45.1499,125.804 45.8165,126.137 46.5,126.5C 48.7106,125.34 50.7106,124.007 52.5,122.5C 53.4916,122.672 54.1583,122.338 54.5,121.5C 57.1667,120.167 59.8333,118.833 62.5,117.5C 63.1667,117.167 63.8333,116.833 64.5,116.5 Z"/></g>
<g><path style="opacity:1" fill="#094156" d="M 99.5,134.5 C 104.144,135.599 108.478,137.266 112.5,139.5C 108.578,138.894 104.745,137.894 101,136.5C 99.9701,136.164 99.4701,135.497 99.5,134.5 Z"/></g>
<g><path style="opacity:1" fill="#086c4f" d="M -0.5,120.5 C 7.08705,123.293 14.0871,127.126 20.5,132C 25.4028,133.132 29.7361,135.299 33.5,138.5C 33.1667,139.167 32.8333,139.833 32.5,140.5C 30.4436,141.161 28.4436,140.828 26.5,139.5C 27.2389,139.631 27.9056,139.464 28.5,139C 25.9906,137.579 23.6572,135.912 21.5,134C 18.624,133.562 15.9573,132.562 13.5,131C 9.68282,126.918 5.01615,124.084 -0.5,122.5C -0.5,121.833 -0.5,121.167 -0.5,120.5 Z"/></g>
<g><path style="opacity:1" fill="#4ca3cb" d="M 66.5,122.5 C 66.8333,122.5 67.1667,122.5 67.5,122.5C 67.5,123.5 67.5,124.5 67.5,125.5C 67.3801,130.169 68.8801,131.169 72,128.5C 79.134,131.056 85.9673,134.223 92.5,138C 99.2629,138.751 105.93,139.918 112.5,141.5C 116.223,142.297 119.89,143.297 123.5,144.5C 123.674,146.861 124.007,149.194 124.5,151.5C 121.02,149.224 117.354,147.057 113.5,145C 108.324,145.114 103.824,143.614 100,140.5C 98.1667,143.333 96.6667,143.167 95.5,140C 93.1116,139.697 90.9449,138.863 89,137.5C 86.8914,137.566 84.7247,137.899 82.5,138.5C 81.6143,137.675 81.281,136.675 81.5,135.5C 80.1779,135.33 79.0113,135.663 78,136.5C 77.5172,135.552 77.3505,134.552 77.5,133.5C 75.5328,133.261 73.6995,133.594 72,134.5C 71.4028,140.434 70.5695,145.767 69.5,150.5C 70.5,150.5 71.5,150.5 72.5,150.5C 70.6112,151.742 68.6112,151.742 66.5,150.5C 66.5,141.5 66.5,132.5 66.5,123.5C 66.5,123.167 66.5,122.833 66.5,122.5 Z"/></g>
<g><path style="opacity:1" fill="#9fa57f" d="M 139.5,131.5 C 140.833,131.833 142.167,132.167 143.5,132.5C 143.842,133.338 144.508,133.672 145.5,133.5C 147.05,134.441 148.716,135.107 150.5,135.5C 150.897,136.525 151.563,136.692 152.5,136C 151.446,134.612 151.28,133.112 152,131.5C 152.833,133.167 153.667,134.833 154.5,136.5C 148.592,137.537 143.592,135.87 139.5,131.5 Z"/></g>
<g><path style="opacity:1" fill="#5f6345" d="M 35.5,136.5 C 35.1231,138.258 34.4565,139.925 33.5,141.5C 33.8627,142.183 34.1961,142.85 34.5,143.5C 33.8333,144.833 33.1667,144.833 32.5,143.5C 32.5,142.5 32.5,141.5 32.5,140.5C 32.8333,139.833 33.1667,139.167 33.5,138.5C 33.8923,136.821 34.3923,135.154 35,133.5C 35.4828,134.448 35.6495,135.448 35.5,136.5 Z"/></g>
<g><path style="opacity:1" fill="#1e3633" d="M 97.5,131.5 C 97.5,130.833 97.8333,130.5 98.5,130.5C 100.882,131.546 103.215,131.546 105.5,130.5C 106.167,130.5 106.833,130.5 107.5,130.5C 113.121,133.6 119.121,135.933 125.5,137.5C 126.091,138.151 126.757,138.818 127.5,139.5C 126.143,141.186 124.81,142.852 123.5,144.5C 119.89,143.297 116.223,142.297 112.5,141.5C 112.5,140.833 112.5,140.167 112.5,139.5C 114.856,140.575 117.189,140.575 119.5,139.5C 112.415,136.248 105.081,133.582 97.5,131.5 Z"/></g>
<g><path style="opacity:1" fill="#68c371" d="M 66.5,122.5 C 66.5,122.833 66.5,123.167 66.5,123.5C 64.3509,124.748 62.3509,126.248 60.5,128C 54.9254,128.362 50.7587,130.862 48,135.5C 47.6667,135.167 47.3333,134.833 47,134.5C 43.8162,137.671 41.6495,141.337 40.5,145.5C 38.302,145.88 36.6354,145.213 35.5,143.5C 37.9265,139.895 40.5932,136.395 43.5,133C 43.1667,132.667 42.8333,132.333 42.5,132C 49.239,129.197 55.9057,126.197 62.5,123C 63.7932,122.51 65.1266,122.343 66.5,122.5 Z"/></g>
<g><path style="opacity:1" fill="#62b9da" d="M 124.5,151.5 C 126.349,155.423 126.682,159.423 125.5,163.5C 118.463,161.991 111.463,160.324 104.5,158.5C 96.2746,155.871 87.9413,153.204 79.5,150.5C 78.8933,150.624 78.56,150.957 78.5,151.5C 76.6208,150.659 74.6208,150.325 72.5,150.5C 71.5,150.5 70.5,150.5 69.5,150.5C 70.5695,145.767 71.4028,140.434 72,134.5C 73.6995,133.594 75.5328,133.261 77.5,133.5C 77.3505,134.552 77.5172,135.552 78,136.5C 79.0113,135.663 80.1779,135.33 81.5,135.5C 81.281,136.675 81.6143,137.675 82.5,138.5C 84.7247,137.899 86.8914,137.566 89,137.5C 90.9449,138.863 93.1116,139.697 95.5,140C 96.6667,143.167 98.1667,143.333 100,140.5C 103.824,143.614 108.324,145.114 113.5,145C 117.354,147.057 121.02,149.224 124.5,151.5 Z"/></g>
<g><path style="opacity:1" fill="#066940" d="M -0.5,136.5 C 9.09348,138.232 18.4268,140.565 27.5,143.5C 26.5837,143.982 25.5837,144.315 24.5,144.5C 18.1211,142.281 11.7877,141.281 5.5,141.5C 3.43525,141.483 1.43525,141.15 -0.5,140.5C -0.5,139.167 -0.5,137.833 -0.5,136.5 Z"/></g>
<g><path style="opacity:1" fill="#032224" d="M -0.5,140.5 C 1.43525,141.15 3.43525,141.483 5.5,141.5C 9.59136,142.524 13.5914,143.857 17.5,145.5C 16.7904,147.746 16.2904,150.08 16,152.5C 13.723,153.117 11.5563,153.784 9.5,154.5C 6.21389,153.793 2.88055,153.46 -0.5,153.5C -0.5,149.167 -0.5,144.833 -0.5,140.5 Z"/></g>
<g><path style="opacity:1" fill="#255f4a" d="M 151.5,147.5 C 150.833,148.5 150.167,149.5 149.5,150.5C 148.833,150.167 148.167,149.833 147.5,149.5C 146.479,149.899 146.146,151.233 146.5,153.5C 144.483,151.219 142.816,148.553 141.5,145.5C 144.157,144.741 146.823,144.074 149.5,143.5C 151.111,144.32 151.778,145.654 151.5,147.5 Z"/></g>
<g><path style="opacity:1" fill="#011d1f" d="M 19.5,145.5 C 34.9646,148.366 50.2979,151.866 65.5,156C 66.4061,157.699 66.7394,159.533 66.5,161.5C 65.1779,161.33 64.0113,161.663 63,162.5C 61.3304,158.943 59.1638,158.609 56.5,161.5C 44.5124,158.891 32.5124,156.391 20.5,154C 19.5562,151.281 19.2229,148.448 19.5,145.5 Z"/></g>
<g><path style="opacity:1" fill="#389866" d="M 147.5,149.5 C 147.284,152.432 147.951,155.098 149.5,157.5C 149.167,158.167 148.833,158.833 148.5,159.5C 147.232,157.696 146.565,155.696 146.5,153.5C 146.146,151.233 146.479,149.899 147.5,149.5 Z"/></g>
<g><path style="opacity:1" fill="#067b49" d="M 27.5,143.5 C 29.1667,143.5 30.8333,143.5 32.5,143.5C 33.1667,144.833 33.8333,144.833 34.5,143.5C 34.8333,143.5 35.1667,143.5 35.5,143.5C 36.6354,145.213 38.302,145.88 40.5,145.5C 48.8544,148.374 57.5211,150.374 66.5,151.5C 67.4475,152.978 68.7809,153.978 70.5,154.5C 70.5,155.167 70.5,155.833 70.5,156.5C 68.8829,157.589 68.0496,159.256 68,161.5C 67.31,162.738 66.81,162.738 66.5,161.5C 66.7394,159.533 66.4061,157.699 65.5,156C 50.2979,151.866 34.9646,148.366 19.5,145.5C 19.1667,145.5 18.8333,145.5 18.5,145.5C 18.1667,145.5 17.8333,145.5 17.5,145.5C 13.5914,143.857 9.59136,142.524 5.5,141.5C 11.7877,141.281 18.1211,142.281 24.5,144.5C 25.5837,144.315 26.5837,143.982 27.5,143.5 Z"/></g>
<g><path style="opacity:1" fill="#3c3d32" d="M 104.5,158.5 C 101.941,158.198 99.6074,158.532 97.5,159.5C 92.7071,158.093 87.8738,156.76 83,155.5C 81.2437,156.932 79.7437,158.599 78.5,160.5C 76.1609,159.363 73.8275,159.196 71.5,160C 73.5938,158.648 75.9272,158.148 78.5,158.5C 78.5,156.167 78.5,153.833 78.5,151.5C 78.56,150.957 78.8933,150.624 79.5,150.5C 87.9413,153.204 96.2746,155.871 104.5,158.5 Z"/></g>
<g><path style="opacity:1" fill="#555b39" d="M 17.5,145.5 C 17.8333,145.5 18.1667,145.5 18.5,145.5C 19.0111,149.03 18.3444,152.196 16.5,155C 17.6407,157.224 16.974,158.724 14.5,159.5C 15.2341,158.292 15.5674,156.959 15.5,155.5C 14.1667,155.5 12.8333,155.5 11.5,155.5C 10.8333,155.5 10.1667,155.5 9.5,155.5C 9.5,155.167 9.5,154.833 9.5,154.5C 11.5563,153.784 13.723,153.117 16,152.5C 16.2904,150.08 16.7904,147.746 17.5,145.5 Z"/></g>
<g><path style="opacity:1" fill="#038e8c" d="M -0.5,153.5 C 2.88055,153.46 6.21389,153.793 9.5,154.5C 9.5,154.833 9.5,155.167 9.5,155.5C 8.69929,157.042 8.36596,158.708 8.5,160.5C 8.16667,160.5 7.83333,160.5 7.5,160.5C 7.5,159.5 7.5,158.5 7.5,157.5C 4.76275,157.599 2.09609,157.265 -0.5,156.5C -0.5,155.5 -0.5,154.5 -0.5,153.5 Z"/></g>
<g><path style="opacity:1" fill="#11554c" d="M -0.5,156.5 C 2.09609,157.265 4.76275,157.599 7.5,157.5C 7.5,158.5 7.5,159.5 7.5,160.5C 6.54885,161.919 6.21552,163.585 6.5,165.5C 4.09709,165.552 1.76375,165.219 -0.5,164.5C -0.5,164.167 -0.5,163.833 -0.5,163.5C 2.28823,163.923 4.28823,162.923 5.5,160.5C 3.82733,158.914 1.82733,158.247 -0.5,158.5C -0.5,157.833 -0.5,157.167 -0.5,156.5 Z"/></g>
<g><path style="opacity:1" fill="#4e572c" d="M 52.5,162.5 C 52.5,162.833 52.5,163.167 52.5,163.5C 51.8333,163.5 51.1667,163.5 50.5,163.5C 41.5896,161.356 32.5896,159.689 23.5,158.5C 23.0825,157.778 22.4158,157.278 21.5,157C 22.5,156.833 23.5,156.667 24.5,156.5C 33.9683,158.516 43.3017,160.516 52.5,162.5 Z"/></g>
<g><path style="opacity:1" fill="#70c6c6" d="M -0.5,158.5 C 1.82733,158.247 3.82733,158.914 5.5,160.5C 4.28823,162.923 2.28823,163.923 -0.5,163.5C -0.5,161.833 -0.5,160.167 -0.5,158.5 Z"/></g>
<g><path style="opacity:1" fill="#021c1a" d="M 97.5,159.5 C 117.012,165.115 136.678,170.115 156.5,174.5C 156.5,175.5 156.5,176.5 156.5,177.5C 153.744,179.212 150.744,179.712 147.5,179C 125.625,174.098 103.958,168.932 82.5,163.5C 80.7809,162.978 79.4475,161.978 78.5,160.5C 79.7437,158.599 81.2437,156.932 83,155.5C 87.8738,156.76 92.7071,158.093 97.5,159.5 Z"/></g>
<g><path style="opacity:1" fill="#063330" d="M 18.5,145.5 C 18.8333,145.5 19.1667,145.5 19.5,145.5C 19.2229,148.448 19.5562,151.281 20.5,154C 32.5124,156.391 44.5124,158.891 56.5,161.5C 59.1638,158.609 61.3304,158.943 63,162.5C 64.0113,161.663 65.1779,161.33 66.5,161.5C 66.81,162.738 67.31,162.738 68,161.5C 68.0496,159.256 68.8829,157.589 70.5,156.5C 72.6661,157.629 74.6661,157.129 76.5,155C 74.5273,154.505 72.5273,154.338 70.5,154.5C 68.7809,153.978 67.4475,152.978 66.5,151.5C 66.5,151.167 66.5,150.833 66.5,150.5C 68.6112,151.742 70.6112,151.742 72.5,150.5C 74.6208,150.325 76.6208,150.659 78.5,151.5C 78.5,153.833 78.5,156.167 78.5,158.5C 75.9272,158.148 73.5938,158.648 71.5,160C 73.8275,159.196 76.1609,159.363 78.5,160.5C 79.4475,161.978 80.7809,162.978 82.5,163.5C 80.5,163.5 78.5,163.5 76.5,163.5C 74.9557,163.297 73.6223,162.63 72.5,161.5C 69.1611,162.111 68.1611,163.778 69.5,166.5C 69.1667,166.5 68.8333,166.5 68.5,166.5C 66.5588,166.869 64.7255,167.536 63,168.5C 61.8118,167.437 61.3118,166.103 61.5,164.5C 58.3033,164.595 55.3033,163.928 52.5,162.5C 43.3017,160.516 33.9683,158.516 24.5,156.5C 23.5,156.667 22.5,156.833 21.5,157C 22.4158,157.278 23.0825,157.778 23.5,158.5C 18.8897,158.596 18.5564,159.596 22.5,161.5C 19.5,162.833 16.5,162.833 13.5,161.5C 13.8627,160.817 14.1961,160.15 14.5,159.5C 16.974,158.724 17.6407,157.224 16.5,155C 18.3444,152.196 19.0111,149.03 18.5,145.5 Z"/></g>
<g><path style="opacity:1" fill="#6d4c2f" d="M 70.5,154.5 C 72.5273,154.338 74.5273,154.505 76.5,155C 74.6661,157.129 72.6661,157.629 70.5,156.5C 70.5,155.833 70.5,155.167 70.5,154.5 Z"/></g>
<g><path style="opacity:1" fill="#031a1d" d="M 11.5,155.5 C 12.8333,155.5 14.1667,155.5 15.5,155.5C 15.5674,156.959 15.2341,158.292 14.5,159.5C 14.1961,160.15 13.8627,160.817 13.5,161.5C 16.5,162.833 19.5,162.833 22.5,161.5C 18.5564,159.596 18.8897,158.596 23.5,158.5C 32.5896,159.689 41.5896,161.356 50.5,163.5C 50.5,164.833 50.5,166.167 50.5,167.5C 48.8267,168.343 47.66,169.676 47,171.5C 46.5014,175.152 46.3347,178.818 46.5,182.5C 41.0636,182.32 35.7303,181.654 30.5,180.5C 30.9353,174.158 31.1019,167.825 31,161.5C 30.6667,162.167 30.3333,162.833 30,163.5C 29.3333,162.167 28.6667,162.167 28,163.5C 27.0881,167.795 26.4215,172.128 26,176.5C 24.583,177.078 23.7496,178.078 23.5,179.5C 20.4824,179.296 17.4824,178.963 14.5,178.5C 14.5,177.833 14.5,177.167 14.5,176.5C 15.3173,174.169 15.9839,171.669 16.5,169C 16.0696,167.566 15.2362,166.399 14,165.5C 13.3562,169.221 12.5228,172.887 11.5,176.5C 9.94835,177.798 8.94835,177.465 8.5,175.5C 9.49773,168.84 10.4977,162.173 11.5,155.5 Z"/></g>
<g><path style="opacity:1" fill="#0c4234" d="M 76.5,163.5 C 78.5,163.5 80.5,163.5 82.5,163.5C 103.958,168.932 125.625,174.098 147.5,179C 150.744,179.712 153.744,179.212 156.5,177.5C 155.752,179.332 154.752,180.999 153.5,182.5C 151.139,182.326 148.806,181.993 146.5,181.5C 146.833,183.5 147.167,185.5 147.5,187.5C 145.5,188.5 143.5,189.5 141.5,190.5C 140.833,190.5 140.167,190.5 139.5,190.5C 139.094,187.281 139.094,184.281 139.5,181.5C 140.997,182.306 142.664,182.972 144.5,183.5C 145.59,182.609 145.59,181.609 144.5,180.5C 137.963,179.359 131.629,177.526 125.5,175C 115.972,174.467 106.638,172.967 97.5,170.5C 90.9814,168.612 84.3147,166.779 77.5,165C 76.944,164.617 76.6107,164.117 76.5,163.5 Z"/></g>
<g><path style="opacity:1" fill="#a8ac86" d="M 134.5,165.5 C 131.219,165.58 128.219,164.913 125.5,163.5C 126.682,159.423 126.349,155.423 124.5,151.5C 124.007,149.194 123.674,146.861 123.5,144.5C 124.81,142.852 126.143,141.186 127.5,139.5C 126.757,138.818 126.091,138.151 125.5,137.5C 126.583,137.461 127.583,137.127 128.5,136.5C 131.525,145.957 133.525,155.624 134.5,165.5 Z"/></g>
<g><path style="opacity:1" fill="#104543" d="M 151.5,147.5 C 151.821,149.048 152.821,149.715 154.5,149.5C 154.882,154.092 155.882,158.425 157.5,162.5C 157.5,166.167 157.5,169.833 157.5,173.5C 157.167,173.5 156.833,173.5 156.5,173.5C 156.167,172.833 155.833,172.167 155.5,171.5C 154.887,164.038 152.887,157.038 149.5,150.5C 150.167,149.5 150.833,148.5 151.5,147.5 Z"/></g>
<g><path style="opacity:1" fill="#26c8c1" d="M 7.5,160.5 C 7.83333,160.5 8.16667,160.5 8.5,160.5C 7.72453,166.153 7.05786,171.82 6.5,177.5C 4.58533,177.216 2.91866,177.549 1.5,178.5C 0.833333,177.167 0.166667,175.833 -0.5,174.5C -0.5,171.167 -0.5,167.833 -0.5,164.5C 1.76375,165.219 4.09709,165.552 6.5,165.5C 6.21552,163.585 6.54885,161.919 7.5,160.5 Z"/></g>
<g><path style="opacity:1" fill="#a2a63b" d="M 9.5,155.5 C 10.1667,155.5 10.8333,155.5 11.5,155.5C 10.4977,162.173 9.49773,168.84 8.5,175.5C 7.83333,176.167 7.16667,176.833 6.5,177.5C 7.05786,171.82 7.72453,166.153 8.5,160.5C 8.36596,158.708 8.69929,157.042 9.5,155.5 Z"/></g>
<g><path style="opacity:1" fill="#087759" d="M 76.5,163.5 C 76.6107,164.117 76.944,164.617 77.5,165C 84.3147,166.779 90.9814,168.612 97.5,170.5C 88.9949,170.866 80.9949,169.2 73.5,165.5C 72.9648,168.238 73.9648,170.072 76.5,171C 76.0338,172.299 76.0338,173.799 76.5,175.5C 75.5,175.5 74.5,175.5 73.5,175.5C 73.6495,174.448 73.4828,173.448 73,172.5C 72.2904,173.973 71.1238,174.64 69.5,174.5C 69.5652,176.696 70.2319,178.696 71.5,180.5C 72.6223,179.37 73.9557,178.703 75.5,178.5C 74.7659,179.708 74.4326,181.041 74.5,182.5C 73.1667,182.5 71.8333,182.5 70.5,182.5C 68.6977,181.685 67.6977,180.185 67.5,178C 68.1476,176.56 68.4809,175.06 68.5,173.5C 69.552,173.649 70.552,173.483 71.5,173C 70.8828,170.723 70.2161,168.556 69.5,166.5C 68.1611,163.778 69.1611,162.111 72.5,161.5C 73.6223,162.63 74.9557,163.297 76.5,163.5 Z"/></g>
<g><path style="opacity:1" fill="#244834" d="M 30.5,180.5 C 28.139,180.326 25.8056,179.993 23.5,179.5C 23.7496,178.078 24.583,177.078 26,176.5C 26.4215,172.128 27.0881,167.795 28,163.5C 28.6667,162.167 29.3333,162.167 30,163.5C 30.3333,162.833 30.6667,162.167 31,161.5C 31.1019,167.825 30.9353,174.158 30.5,180.5 Z"/></g>
<g><path style="opacity:1" fill="#aead35" d="M 50.5,163.5 C 51.1667,163.5 51.8333,163.5 52.5,163.5C 52.5,164.5 52.5,165.5 52.5,166.5C 51.8005,170.798 51.4672,175.131 51.5,179.5C 51.5,180.167 51.1667,180.5 50.5,180.5C 50.5,176.167 50.5,171.833 50.5,167.5C 50.5,166.167 50.5,164.833 50.5,163.5 Z"/></g>
<g><path style="opacity:1" fill="#008b8c" d="M 52.5,162.5 C 55.3033,163.928 58.3033,164.595 61.5,164.5C 61.3118,166.103 61.8118,167.437 63,168.5C 64.7255,167.536 66.5588,166.869 68.5,166.5C 67.2073,168.296 65.7073,169.963 64,171.5C 63.51,172.793 63.3433,174.127 63.5,175.5C 62.8386,174.282 62.1719,172.949 61.5,171.5C 60.8165,171.863 60.1499,172.196 59.5,172.5C 59.5,171.5 59.5,170.5 59.5,169.5C 57.3281,168.199 54.9948,167.199 52.5,166.5C 52.5,165.5 52.5,164.5 52.5,163.5C 52.5,163.167 52.5,162.833 52.5,162.5 Z"/></g>
<g><path style="opacity:1" fill="#726645" d="M 14.5,176.5 C 14.631,175.761 14.4643,175.094 14,174.5C 13.3024,177.004 12.4691,179.337 11.5,181.5C 11.6309,180.624 11.2975,179.957 10.5,179.5C 9.81815,180.243 9.15149,180.909 8.5,181.5C 7.83333,181.5 7.16667,181.5 6.5,181.5C 6.67158,180.508 6.33825,179.842 5.5,179.5C 4.43236,178.566 3.09903,178.232 1.5,178.5C 2.91866,177.549 4.58533,177.216 6.5,177.5C 7.16667,176.833 7.83333,176.167 8.5,175.5C 8.94835,177.465 9.94835,177.798 11.5,176.5C 12.5228,172.887 13.3562,169.221 14,165.5C 15.2362,166.399 16.0696,167.566 16.5,169C 15.9839,171.669 15.3173,174.169 14.5,176.5 Z"/></g>
<g><path style="opacity:1" fill="#0eccc7" d="M 52.5,166.5 C 54.9948,167.199 57.3281,168.199 59.5,169.5C 59.5,170.5 59.5,171.5 59.5,172.5C 58.5041,172.414 57.6708,172.748 57,173.5C 56.5045,175.473 56.3379,177.473 56.5,179.5C 54.8333,179.5 53.1667,179.5 51.5,179.5C 51.4672,175.131 51.8005,170.798 52.5,166.5 Z"/></g>
<g><path style="opacity:1" fill="#0da8a7" d="M 68.5,166.5 C 68.8333,166.5 69.1667,166.5 69.5,166.5C 70.2161,168.556 70.8828,170.723 71.5,173C 70.552,173.483 69.552,173.649 68.5,173.5C 68.4809,175.06 68.1476,176.56 67.5,178C 67.6977,180.185 68.6977,181.685 70.5,182.5C 70.5,183.833 70.5,185.167 70.5,186.5C 68.8333,186.5 67.1667,186.5 65.5,186.5C 65.5,186.167 65.5,185.833 65.5,185.5C 64.8333,182.167 64.1667,178.833 63.5,175.5C 63.3433,174.127 63.51,172.793 64,171.5C 65.7073,169.963 67.2073,168.296 68.5,166.5 Z"/></g>
<g><path style="opacity:1" fill="#674437" d="M 97.5,159.5 C 99.6074,158.532 101.941,158.198 104.5,158.5C 111.463,160.324 118.463,161.991 125.5,163.5C 128.219,164.913 131.219,165.58 134.5,165.5C 141.268,167.946 148.268,169.946 155.5,171.5C 155.833,172.167 156.167,172.833 156.5,173.5C 156.5,173.833 156.5,174.167 156.5,174.5C 136.678,170.115 117.012,165.115 97.5,159.5 Z"/></g>
<g><path style="opacity:1" fill="#f5f7f0" d="M -0.5,174.5 C 0.166667,175.833 0.833333,177.167 1.5,178.5C 1.74973,180.674 2.74973,182.341 4.5,183.5C 4.83333,184.5 5.5,185.167 6.5,185.5C 7.16667,185.833 7.83333,186.167 8.5,186.5C 8.5,187.167 8.83333,187.5 9.5,187.5C 10.2905,188.401 11.2905,189.068 12.5,189.5C 13.5,189.5 14.5,189.5 15.5,189.5C 16.0447,185.828 16.3781,186.162 16.5,190.5C 10.8333,190.5 5.16667,190.5 -0.5,190.5C -0.5,185.167 -0.5,179.833 -0.5,174.5 Z"/></g>
<g><path style="opacity:1" fill="#093029" d="M 76.5,175.5 C 76.7373,176.791 76.404,177.791 75.5,178.5C 73.9557,178.703 72.6223,179.37 71.5,180.5C 70.2319,178.696 69.5652,176.696 69.5,174.5C 71.1238,174.64 72.2904,173.973 73,172.5C 73.4828,173.448 73.6495,174.448 73.5,175.5C 74.5,175.5 75.5,175.5 76.5,175.5 Z"/></g>
<g><path style="opacity:1" fill="#0d9d72" d="M 97.5,170.5 C 103.652,173.475 110.318,175.308 117.5,176C 118.056,176.383 118.389,176.883 118.5,177.5C 110.911,176.625 103.578,174.792 96.5,172C 94.1667,171.833 91.8333,171.667 89.5,171.5C 86.7125,171.574 84.2125,172.24 82,173.5C 81.3109,172.643 80.4776,171.977 79.5,171.5C 78.7564,172.991 78.0897,174.491 77.5,176C 78.3081,176.308 78.9747,176.808 79.5,177.5C 77.4076,179.346 76.0742,181.679 75.5,184.5C 74.675,185.386 73.675,185.719 72.5,185.5C 72.1692,187.322 71.5025,188.989 70.5,190.5C 70.1667,190.5 69.8333,190.5 69.5,190.5C 68.1435,188.501 68.8101,187.335 71.5,187C 71.2716,186.601 70.9382,186.435 70.5,186.5C 70.5,185.167 70.5,183.833 70.5,182.5C 71.8333,182.5 73.1667,182.5 74.5,182.5C 74.4326,181.041 74.7659,179.708 75.5,178.5C 76.404,177.791 76.7373,176.791 76.5,175.5C 76.0338,173.799 76.0338,172.299 76.5,171C 73.9648,170.072 72.9648,168.238 73.5,165.5C 80.9949,169.2 88.9949,170.866 97.5,170.5 Z"/></g>
<g><path style="opacity:1" fill="#10825e" d="M 97.5,170.5 C 106.638,172.967 115.972,174.467 125.5,175C 131.629,177.526 137.963,179.359 144.5,180.5C 145.59,181.609 145.59,182.609 144.5,183.5C 142.664,182.972 140.997,182.306 139.5,181.5C 137.052,180.527 134.385,180.194 131.5,180.5C 131.5,181.5 131.5,182.5 131.5,183.5C 130.566,182.432 130.232,181.099 130.5,179.5C 128.833,179.5 127.167,179.5 125.5,179.5C 123.401,178.388 121.067,177.721 118.5,177.5C 118.389,176.883 118.056,176.383 117.5,176C 110.318,175.308 103.652,173.475 97.5,170.5 Z"/></g>
<g><path style="opacity:1" fill="#f6f7f7" d="M 156.5,173.5 C 156.833,173.5 157.167,173.5 157.5,173.5C 157.5,179.167 157.5,184.833 157.5,190.5C 152.167,190.5 146.833,190.5 141.5,190.5C 143.5,189.5 145.5,188.5 147.5,187.5C 150.089,186.581 152.089,184.914 153.5,182.5C 154.752,180.999 155.752,179.332 156.5,177.5C 156.5,176.5 156.5,175.5 156.5,174.5C 156.5,174.167 156.5,173.833 156.5,173.5 Z"/></g>
<g><path style="opacity:1" fill="#34a68d" d="M 1.5,178.5 C 3.09903,178.232 4.43236,178.566 5.5,179.5C 5.16667,180.833 4.83333,182.167 4.5,183.5C 2.74973,182.341 1.74973,180.674 1.5,178.5 Z"/></g>
<g><path style="opacity:1" fill="#013b39" d="M 63.5,175.5 C 64.1667,178.833 64.8333,182.167 65.5,185.5C 59.9924,185.36 54.6591,184.36 49.5,182.5C 49.8627,181.817 50.1961,181.15 50.5,180.5C 51.1667,180.5 51.5,180.167 51.5,179.5C 53.1667,179.5 54.8333,179.5 56.5,179.5C 56.3379,177.473 56.5045,175.473 57,173.5C 57.6708,172.748 58.5041,172.414 59.5,172.5C 60.1499,172.196 60.8165,171.863 61.5,171.5C 62.1719,172.949 62.8386,174.282 63.5,175.5 Z"/></g>
<g><path style="opacity:1" fill="#223b25" d="M 118.5,177.5 C 121.067,177.721 123.401,178.388 125.5,179.5C 127.076,180.143 128.41,181.143 129.5,182.5C 128.07,182.579 126.736,182.246 125.5,181.5C 124.548,183.045 124.215,184.712 124.5,186.5C 124.631,187.239 124.464,187.906 124,188.5C 122.989,187.663 121.822,187.33 120.5,187.5C 119.454,184.272 118.788,180.939 118.5,177.5 Z"/></g>
<g><path style="opacity:1" fill="#38c095" d="M 118.5,177.5 C 118.788,180.939 119.454,184.272 120.5,187.5C 120.5,188.5 120.5,189.5 120.5,190.5C 103.833,190.5 87.1667,190.5 70.5,190.5C 71.5025,188.989 72.1692,187.322 72.5,185.5C 73.675,185.719 74.675,185.386 75.5,184.5C 76.0742,181.679 77.4076,179.346 79.5,177.5C 78.9747,176.808 78.3081,176.308 77.5,176C 78.0897,174.491 78.7564,172.991 79.5,171.5C 80.4776,171.977 81.3109,172.643 82,173.5C 84.2125,172.24 86.7125,171.574 89.5,171.5C 91.8333,171.667 94.1667,171.833 96.5,172C 103.578,174.792 110.911,176.625 118.5,177.5 Z"/></g>
<g><path style="opacity:1" fill="#aaa73f" d="M 5.5,179.5 C 6.33825,179.842 6.67158,180.508 6.5,181.5C 6.5,182.833 6.5,184.167 6.5,185.5C 5.5,185.167 4.83333,184.5 4.5,183.5C 4.83333,182.167 5.16667,180.833 5.5,179.5 Z"/></g>
<g><path style="opacity:1" fill="#236e72" d="M 6.5,181.5 C 7.16667,181.5 7.83333,181.5 8.5,181.5C 8.5,183.167 8.5,184.833 8.5,186.5C 7.83333,186.167 7.16667,185.833 6.5,185.5C 6.5,184.167 6.5,182.833 6.5,181.5 Z"/></g>
<g><path style="opacity:1" fill="#0e2d2a" d="M 14.5,179.5 C 15.8589,180.007 16.8589,181.007 17.5,182.5C 18.1667,181.833 18.8333,181.167 19.5,180.5C 20.4015,183.795 20.4015,187.128 19.5,190.5C 18.5,190.5 17.5,190.5 16.5,190.5C 16.3781,186.162 16.0447,185.828 15.5,189.5C 14.5,189.5 13.5,189.5 12.5,189.5C 13.0761,186.124 13.7428,182.791 14.5,179.5 Z"/></g>
<g><path style="opacity:1" fill="#495c38" d="M 50.5,167.5 C 50.5,171.833 50.5,176.167 50.5,180.5C 50.1961,181.15 49.8627,181.817 49.5,182.5C 54.6591,184.36 59.9924,185.36 65.5,185.5C 65.5,185.833 65.5,186.167 65.5,186.5C 64.2502,186.577 63.4169,187.244 63,188.5C 62,185.833 61,185.833 60,188.5C 58.9826,185.972 57.8159,185.972 56.5,188.5C 55.2888,187.726 55.2888,186.893 56.5,186C 55.2575,185.689 54.2575,186.189 53.5,187.5C 52.8076,186.975 52.3076,186.308 52,185.5C 50.9914,187.025 50.4914,188.692 50.5,190.5C 50.1667,190.5 49.8333,190.5 49.5,190.5C 49.7989,188.396 49.4656,186.396 48.5,184.5C 47.8076,185.025 47.3076,185.692 47,186.5C 45.9826,183.972 44.8159,183.972 43.5,186.5C 42.8333,185.5 42.1667,184.5 41.5,183.5C 40.8076,184.025 40.3076,184.692 40,185.5C 39.5831,184.244 38.7498,183.577 37.5,183.5C 36.0813,182.549 34.4147,182.216 32.5,182.5C 31.8333,182.5 31.1667,182.5 30.5,182.5C 28.3926,181.532 26.0593,181.198 23.5,181.5C 22.6587,180.991 22.1587,181.657 22,183.5C 21.5034,185.81 21.3367,188.143 21.5,190.5C 20.8333,190.5 20.1667,190.5 19.5,190.5C 20.4015,187.128 20.4015,183.795 19.5,180.5C 18.8333,181.167 18.1667,181.833 17.5,182.5C 16.8589,181.007 15.8589,180.007 14.5,179.5C 14.5,179.167 14.5,178.833 14.5,178.5C 17.4824,178.963 20.4824,179.296 23.5,179.5C 25.8056,179.993 28.139,180.326 30.5,180.5C 35.7303,181.654 41.0636,182.32 46.5,182.5C 46.3347,178.818 46.5014,175.152 47,171.5C 47.66,169.676 48.8267,168.343 50.5,167.5 Z"/></g>
<g><path style="opacity:1" fill="#245e2f" d="M 23.5,181.5 C 26.0593,181.198 28.3926,181.532 30.5,182.5C 29.713,184.104 28.3797,184.771 26.5,184.5C 26.5,186.5 26.5,188.5 26.5,190.5C 25.5,190.5 24.5,190.5 23.5,190.5C 23.6261,188.8 24.2927,187.3 25.5,186C 24.2927,184.7 23.6261,183.2 23.5,181.5 Z"/></g>
<g><path style="opacity:1" fill="#20c7ba" d="M 153.5,182.5 C 152.089,184.914 150.089,186.581 147.5,187.5C 147.167,185.5 146.833,183.5 146.5,181.5C 148.806,181.993 151.139,182.326 153.5,182.5 Z"/></g>
<g><path style="opacity:1" fill="#062024" d="M 11.5,181.5 C 10.9518,183.626 10.2852,185.626 9.5,187.5C 8.83333,187.5 8.5,187.167 8.5,186.5C 8.5,184.833 8.5,183.167 8.5,181.5C 9.15149,180.909 9.81815,180.243 10.5,179.5C 11.2975,179.957 11.6309,180.624 11.5,181.5 Z"/></g>
<g><path style="opacity:1" fill="#155e30" d="M 32.5,182.5 C 34.4147,182.216 36.0813,182.549 37.5,183.5C 36.88,185.977 35.88,185.977 34.5,183.5C 32.1143,184.988 31.4476,184.655 32.5,182.5 Z"/></g>
<g><path style="opacity:1" fill="#46bf93" d="M 139.5,181.5 C 139.094,184.281 139.094,187.281 139.5,190.5C 137.167,190.5 134.833,190.5 132.5,190.5C 132.007,188.194 131.674,185.861 131.5,183.5C 131.5,182.5 131.5,181.5 131.5,180.5C 134.385,180.194 137.052,180.527 139.5,181.5 Z"/></g>
<g><path style="opacity:1" fill="#3b6c2a" d="M 129.5,182.5 C 130.323,184.455 130.49,186.455 130,188.5C 129.667,187.833 129.333,187.167 129,186.5C 127.586,187.413 126.086,187.413 124.5,186.5C 124.215,184.712 124.548,183.045 125.5,181.5C 126.736,182.246 128.07,182.579 129.5,182.5 Z"/></g>
<g><path style="opacity:1" fill="#a36e40" d="M 14.5,176.5 C 14.5,177.167 14.5,177.833 14.5,178.5C 14.5,178.833 14.5,179.167 14.5,179.5C 13.7428,182.791 13.0761,186.124 12.5,189.5C 11.2905,189.068 10.2905,188.401 9.5,187.5C 10.2852,185.626 10.9518,183.626 11.5,181.5C 12.4691,179.337 13.3024,177.004 14,174.5C 14.4643,175.094 14.631,175.761 14.5,176.5 Z"/></g>
<g><path style="opacity:1" fill="#033a37" d="M 23.5,181.5 C 23.6261,183.2 24.2927,184.7 25.5,186C 24.2927,187.3 23.6261,188.8 23.5,190.5C 22.8333,190.5 22.1667,190.5 21.5,190.5C 21.3367,188.143 21.5034,185.81 22,183.5C 22.1587,181.657 22.6587,180.991 23.5,181.5 Z"/></g>
<g><path style="opacity:1" fill="#0f393b" d="M 30.5,182.5 C 31.1667,182.5 31.8333,182.5 32.5,182.5C 31.4476,184.655 32.1143,184.988 34.5,183.5C 35.88,185.977 36.88,185.977 37.5,183.5C 38.7498,183.577 39.5831,184.244 40,185.5C 40.3076,184.692 40.8076,184.025 41.5,183.5C 42.1667,184.5 42.8333,185.5 43.5,186.5C 44.8159,183.972 45.9826,183.972 47,186.5C 47.3076,185.692 47.8076,185.025 48.5,184.5C 49.4656,186.396 49.7989,188.396 49.5,190.5C 47.5,190.5 45.5,190.5 43.5,190.5C 39.8751,189.43 36.0418,188.764 32,188.5C 30.0145,188.569 28.5145,189.235 27.5,190.5C 27.1667,190.5 26.8333,190.5 26.5,190.5C 26.5,188.5 26.5,186.5 26.5,184.5C 28.3797,184.771 29.713,184.104 30.5,182.5 Z"/></g>
<g><path style="opacity:1" fill="#396651" d="M 65.5,186.5 C 67.1667,186.5 68.8333,186.5 70.5,186.5C 70.9382,186.435 71.2716,186.601 71.5,187C 68.8101,187.335 68.1435,188.501 69.5,190.5C 68.1667,190.5 66.8333,190.5 65.5,190.5C 65.5,189.167 65.5,187.833 65.5,186.5 Z"/></g>
<g><path style="opacity:1" fill="#614723" d="M 125.5,179.5 C 127.167,179.5 128.833,179.5 130.5,179.5C 130.232,181.099 130.566,182.432 131.5,183.5C 131.674,185.861 132.007,188.194 132.5,190.5C 128.5,190.5 124.5,190.5 120.5,190.5C 120.5,189.5 120.5,188.5 120.5,187.5C 121.822,187.33 122.989,187.663 124,188.5C 124.464,187.906 124.631,187.239 124.5,186.5C 126.086,187.413 127.586,187.413 129,186.5C 129.333,187.167 129.667,187.833 130,188.5C 130.49,186.455 130.323,184.455 129.5,182.5C 128.41,181.143 127.076,180.143 125.5,179.5 Z"/></g>
<g><path style="opacity:1" fill="#a6b239" d="M 43.5,190.5 C 38.1667,190.5 32.8333,190.5 27.5,190.5C 28.5145,189.235 30.0145,188.569 32,188.5C 36.0418,188.764 39.8751,189.43 43.5,190.5 Z"/></g>
<g><path style="opacity:1" fill="#033033" d="M 65.5,186.5 C 65.5,187.833 65.5,189.167 65.5,190.5C 60.5,190.5 55.5,190.5 50.5,190.5C 50.4914,188.692 50.9914,187.025 52,185.5C 52.3076,186.308 52.8076,186.975 53.5,187.5C 54.2575,186.189 55.2575,185.689 56.5,186C 55.2888,186.893 55.2888,187.726 56.5,188.5C 57.8159,185.972 58.9826,185.972 60,188.5C 61,185.833 62,185.833 63,188.5C 63.4169,187.244 64.2502,186.577 65.5,186.5 Z"/></g>
</svg>
