<?xml version="1.0" encoding="UTF-8"?>
<!DOCTYPE svg PUBLIC "-//W3C//DTD SVG 1.1//EN" "http://www.w3.org/Graphics/SVG/1.1/DTD/svg11.dtd">
<svg xmlns="http://www.w3.org/2000/svg" version="1.1" width="158px" height="191px" style="shape-rendering:geometricPrecision; text-rendering:geometricPrecision; image-rendering:optimizeQuality; fill-rule:evenodd; clip-rule:evenodd" xmlns:xlink="http://www.w3.org/1999/xlink">
<g><path style="opacity:1" fill="#fdfcfd" d="M -0.5,-0.5 C 4.83333,-0.5 10.1667,-0.5 15.5,-0.5C 14.1667,0.166667 12.8333,0.833333 11.5,1.5C 5.44106,3.96407 1.44106,8.29741 -0.5,14.5C -0.5,9.5 -0.5,4.5 -0.5,-0.5 Z"/></g>
<g><path style="opacity:1" fill="#fefcfc" d="M 141.5,-0.5 C 146.833,-0.5 152.167,-0.5 157.5,-0.5C 157.5,4.83333 157.5,10.1667 157.5,15.5C 157.167,15.5 156.833,15.5 156.5,15.5C 154.919,6.92011 149.919,1.58678 141.5,-0.5 Z"/></g>
<g><path style="opacity:1" fill="#d4b3bf" d="M 15.5,-0.5 C 40.5,-0.5 65.5,-0.5 90.5,-0.5C 90.2942,1.54921 89.4609,1.88254 88,0.5C 77.2522,4.52974 66.0855,6.86307 54.5,7.5C 52.0788,7.43998 49.7455,7.10665 47.5,6.5C 44.2197,8.80009 41.053,9.46675 38,8.5C 32.2649,9.69425 26.4315,10.5276 20.5,11C 18.0056,12.9459 17.3389,15.2793 18.5,18C 17.8333,18.1667 17.1667,18.3333 16.5,18.5C 13.9333,17.3847 11.7666,15.718 10,13.5C 9.61742,14.056 9.11742,14.3893 8.5,14.5C 7.07794,14.2504 6.07794,13.417 5.5,12C 8.42945,11.2228 11.2628,11.3895 14,12.5C 15.0736,11.3816 16.2402,10.3816 17.5,9.5C 15.711,8.37695 15.3776,7.04362 16.5,5.5C 22.2398,8.029 27.9064,8.69567 33.5,7.5C 28.3171,6.11808 22.9837,4.28475 17.5,2C 15.5273,1.50454 13.5273,1.33788 11.5,1.5C 12.8333,0.833333 14.1667,0.166667 15.5,-0.5 Z"/></g>
<g><path style="opacity:1" fill="#eabdc1" d="M 99.5,-0.5 C 113.5,-0.5 127.5,-0.5 141.5,-0.5C 149.919,1.58678 154.919,6.92011 156.5,15.5C 148.616,12.5804 140.782,10.2471 133,8.5C 129.879,9.53593 126.713,9.70259 123.5,9C 117.984,8.14406 112.65,6.64406 107.5,4.5C 104.258,4.78327 103.924,5.6166 106.5,7C 104.5,7 102.5,7 100.5,7C 97.8918,8.67786 95.3918,10.5112 93,12.5C 91.3097,10.2598 89.143,8.59313 86.5,7.5C 86.0528,8.75694 84.7194,9.75694 82.5,10.5C 81.8933,10.3764 81.56,10.0431 81.5,9.5C 81.9528,8.54163 82.6195,7.7083 83.5,7C 81.3215,6.55815 80.6548,5.55815 81.5,4C 84.133,4.25323 86.7996,4.25323 89.5,4C 88.8333,3.66667 88.1667,3.33333 87.5,3C 90.5,2.66667 93.5,2.33333 96.5,2C 97.5707,1.14825 98.5707,0.314913 99.5,-0.5 Z"/></g>
<g><path style="opacity:1" fill="#e2c1c7" d="M 90.5,-0.5 C 93.5,-0.5 96.5,-0.5 99.5,-0.5C 98.5707,0.314913 97.5707,1.14825 96.5,2C 93.5,2.33333 90.5,2.66667 87.5,3C 88.1667,3.33333 88.8333,3.66667 89.5,4C 86.7996,4.25323 84.133,4.25323 81.5,4C 80.6548,5.55815 81.3215,6.55815 83.5,7C 82.6195,7.7083 81.9528,8.54163 81.5,9.5C 78.5366,8.07089 75.8699,8.57089 73.5,11C 76.3815,13.6549 79.7148,14.1549 83.5,12.5C 85.9228,12.5943 88.2562,13.0943 90.5,14C 84.0106,14.6119 77.344,15.4453 70.5,16.5C 71.2421,17.2868 72.0754,17.9535 73,18.5C 79.322,18.746 85.822,18.4126 92.5,17.5C 92.9996,16.1195 93.9996,15.4528 95.5,15.5C 100.173,16.2867 104.84,17.12 109.5,18C 107.519,18.6054 107.185,19.6054 108.5,21C 107.216,21.6838 106.049,21.5171 105,20.5C 104.583,21.756 103.75,22.4226 102.5,22.5C 101.504,22.4142 100.671,22.7476 100,23.5C 98.2605,22.1057 96.2605,21.4391 94,21.5C 87.1629,22.6816 80.4962,22.6816 74,21.5C 72.395,22.1007 71.0616,23.1007 70,24.5C 69.4387,23.9781 68.772,23.6448 68,23.5C 65.3257,24.7143 62.8257,26.0477 60.5,27.5C 59.8333,27.5 59.1667,27.5 58.5,27.5C 60.7259,23.9174 63.7259,21.0841 67.5,19C 63.1424,18.2116 58.8091,17.3782 54.5,16.5C 53.8933,16.6236 53.56,16.9569 53.5,17.5C 50.5,17.5 47.5,17.5 44.5,17.5C 44.1913,14.6545 42.5246,13.1545 39.5,13C 46.5682,11.7475 53.5682,11.2475 60.5,11.5C 60.1924,10.6919 59.6924,10.0253 59,9.5C 54.8608,10.5831 50.6941,10.4164 46.5,9C 47.2524,8.32924 47.5858,7.4959 47.5,6.5C 49.7455,7.10665 52.0788,7.43998 54.5,7.5C 66.0855,6.86307 77.2522,4.52974 88,0.5C 89.4609,1.88254 90.2942,1.54921 90.5,-0.5 Z"/></g>
<g><path style="opacity:1" fill="#edc5c7" d="M 156.5,15.5 C 156.833,15.5 157.167,15.5 157.5,15.5C 157.5,18.1667 157.5,20.8333 157.5,23.5C 156.287,22.4253 154.787,21.7586 153,21.5C 144.939,23.4201 136.773,23.9201 128.5,23C 131.063,22.237 131.063,21.737 128.5,21.5C 125.764,24.0057 123.264,23.6723 121,20.5C 119.991,21.6582 118.658,22.3248 117,22.5C 111.958,21.8535 107.125,21.8535 102.5,22.5C 103.75,22.4226 104.583,21.756 105,20.5C 106.049,21.5171 107.216,21.6838 108.5,21C 107.185,19.6054 107.519,18.6054 109.5,18C 104.84,17.12 100.173,16.2867 95.5,15.5C 93.9996,15.4528 92.9996,16.1195 92.5,17.5C 85.822,18.4126 79.322,18.746 73,18.5C 72.0754,17.9535 71.2421,17.2868 70.5,16.5C 77.344,15.4453 84.0106,14.6119 90.5,14C 88.2562,13.0943 85.9228,12.5943 83.5,12.5C 79.7148,14.1549 76.3815,13.6549 73.5,11C 75.8699,8.57089 78.5366,8.07089 81.5,9.5C 81.56,10.0431 81.8933,10.3764 82.5,10.5C 84.7194,9.75694 86.0528,8.75694 86.5,7.5C 89.143,8.59313 91.3097,10.2598 93,12.5C 95.3918,10.5112 97.8918,8.67786 100.5,7C 102.5,7 104.5,7 106.5,7C 103.924,5.6166 104.258,4.78327 107.5,4.5C 112.65,6.64406 117.984,8.14406 123.5,9C 126.713,9.70259 129.879,9.53593 133,8.5C 140.782,10.2471 148.616,12.5804 156.5,15.5 Z"/></g>
<g><path style="opacity:1" fill="#c7aec1" d="M 11.5,1.5 C 13.5273,1.33788 15.5273,1.50454 17.5,2C 22.9837,4.28475 28.3171,6.11808 33.5,7.5C 27.9064,8.69567 22.2398,8.029 16.5,5.5C 15.3776,7.04362 15.711,8.37695 17.5,9.5C 16.2402,10.3816 15.0736,11.3816 14,12.5C 11.2628,11.3895 8.42945,11.2228 5.5,12C 6.07794,13.417 7.07794,14.2504 8.5,14.5C 9.58127,16.764 10.9146,18.9307 12.5,21C 21.0678,21.1113 29.4011,22.4447 37.5,25C 38.8333,25.6667 38.8333,26.3333 37.5,27C 35.1902,27.4966 32.8568,27.6633 30.5,27.5C 31.6085,26.71 32.9419,26.21 34.5,26C 32.2852,24.9562 29.9519,24.2895 27.5,24C 18.0667,23.8682 8.73332,23.0349 -0.5,21.5C -0.5,19.1667 -0.5,16.8333 -0.5,14.5C 1.44106,8.29741 5.44106,3.96407 11.5,1.5 Z"/></g>
<g><path style="opacity:1" fill="#d5bbc6" d="M 47.5,6.5 C 47.5858,7.4959 47.2524,8.32924 46.5,9C 50.6941,10.4164 54.8608,10.5831 59,9.5C 59.6924,10.0253 60.1924,10.6919 60.5,11.5C 53.5682,11.2475 46.5682,11.7475 39.5,13C 42.5246,13.1545 44.1913,14.6545 44.5,17.5C 47.5,17.5 50.5,17.5 53.5,17.5C 58.8812,19.692 58.5479,21.0254 52.5,21.5C 52.3505,22.552 52.5172,23.552 53,24.5C 53.9138,23.3463 54.7471,23.513 55.5,25C 53.7139,25.1962 52.3805,26.0295 51.5,27.5C 48.9135,28.48 46.2469,28.8134 43.5,28.5C 39.1161,28.1744 34.7828,28.5078 30.5,29.5C 29.0905,30.5695 28.0905,31.9028 27.5,33.5C 26.2438,33.5386 25.2438,33.0386 24.5,32C 26.0429,30.2608 27.7096,28.7608 29.5,27.5C 29.8333,27.5 30.1667,27.5 30.5,27.5C 32.8568,27.6633 35.1902,27.4966 37.5,27C 38.8333,26.3333 38.8333,25.6667 37.5,25C 29.4011,22.4447 21.0678,21.1113 12.5,21C 10.9146,18.9307 9.58127,16.764 8.5,14.5C 9.11742,14.3893 9.61742,14.056 10,13.5C 11.7666,15.718 13.9333,17.3847 16.5,18.5C 17.1667,18.3333 17.8333,18.1667 18.5,18C 17.3389,15.2793 18.0056,12.9459 20.5,11C 26.4315,10.5276 32.2649,9.69425 38,8.5C 41.053,9.46675 44.2197,8.80009 47.5,6.5 Z"/></g>
<g><path style="opacity:1" fill="#bdacc3" d="M -0.5,21.5 C 8.73332,23.0349 18.0667,23.8682 27.5,24C 29.9519,24.2895 32.2852,24.9562 34.5,26C 32.9419,26.21 31.6085,26.71 30.5,27.5C 30.1667,27.5 29.8333,27.5 29.5,27.5C 26.5845,28.8115 24.0845,28.1448 22,25.5C 19.7321,27.1875 17.5655,29.0209 15.5,31C 15.8333,31.3333 16.1667,31.6667 16.5,32C 14.2262,32.4702 12.2262,33.4702 10.5,35C 14.251,35.5824 15.9176,37.7491 15.5,41.5C 10.1667,41.5 4.83333,41.5 -0.5,41.5C -0.5,34.8333 -0.5,28.1667 -0.5,21.5 Z"/></g>
<g><path style="opacity:1" fill="#edcdce" d="M 157.5,23.5 C 157.5,23.8333 157.5,24.1667 157.5,24.5C 155.844,25.1465 154.177,25.8131 152.5,26.5C 150.845,25.772 149.179,25.6053 147.5,26C 146.304,26.6543 146.304,27.1543 147.5,27.5C 149.326,27.0798 151.326,27.0798 153.5,27.5C 153.5,28.5 153.5,29.5 153.5,30.5C 150.882,29.2151 148.382,29.5485 146,31.5C 142.643,30.2577 142.81,29.4244 146.5,29C 143.833,28.3333 141.167,28.3333 138.5,29C 141.279,29.1492 141.779,29.9826 140,31.5C 138.667,31.5 137.333,31.5 136,31.5C 135.311,30.6433 134.478,29.9767 133.5,29.5C 132.304,29.8457 132.304,30.3457 133.5,31C 131.236,31.2362 129.069,31.7362 127,32.5C 125.647,31.2958 123.981,30.6292 122,30.5C 114.862,31.7575 108.029,32.7575 101.5,33.5C 93.3276,32.294 85.1609,32.294 77,33.5C 73.8351,33.666 71.0017,32.8327 68.5,31C 65.2397,30.2165 62.0731,30.3832 59,31.5C 58.516,29.8067 59.016,28.4733 60.5,27.5C 62.8257,26.0477 65.3257,24.7143 68,23.5C 68.772,23.6448 69.4387,23.9781 70,24.5C 71.0616,23.1007 72.395,22.1007 74,21.5C 80.4962,22.6816 87.1629,22.6816 94,21.5C 96.2605,21.4391 98.2605,22.1057 100,23.5C 100.671,22.7476 101.504,22.4142 102.5,22.5C 107.125,21.8535 111.958,21.8535 117,22.5C 118.658,22.3248 119.991,21.6582 121,20.5C 123.264,23.6723 125.764,24.0057 128.5,21.5C 131.063,21.737 131.063,22.237 128.5,23C 136.773,23.9201 144.939,23.4201 153,21.5C 154.787,21.7586 156.287,22.4253 157.5,23.5 Z"/></g>
<g><path style="opacity:1" fill="#d1bfcc" d="M 43.5,28.5 C 41.7078,29.3091 39.7078,29.8091 37.5,30C 39.1757,31.1769 40.5091,32.6769 41.5,34.5C 44.8715,35.3406 47.8715,36.8406 50.5,39C 54.7461,39.3675 58.9128,38.8675 63,37.5C 67.5216,38.0443 72.0216,38.711 76.5,39.5C 77.4419,39.3918 78.2753,39.0585 79,38.5C 79.4947,44.7461 81.8281,45.7461 86,41.5C 87.1931,42.9785 87.6931,44.3118 87.5,45.5C 88.7836,44.3703 89.617,43.037 90,41.5C 91.6743,42.8354 93.341,44.1688 95,45.5C 97.8007,44.2054 100.634,44.2054 103.5,45.5C 104.931,45.0234 106.264,44.3567 107.5,43.5C 105.833,41.8333 106.167,40.8333 108.5,40.5C 114.17,41.5565 120.003,41.5565 126,40.5C 134.836,43.6738 144.003,45.5072 153.5,46C 157.57,48.2096 157.403,48.7096 153,47.5C 151.831,48.0085 150.998,48.8419 150.5,50C 152.174,51.5059 153.174,53.3393 153.5,55.5C 152.167,55.5 150.833,55.5 149.5,55.5C 146.799,49.379 142.465,48.0457 136.5,51.5C 132.561,51.1719 128.561,51.0052 124.5,51C 125.047,50.0754 125.713,49.2421 126.5,48.5C 130.329,50.0894 133.329,49.0894 135.5,45.5C 132.18,43.9764 128.68,42.9764 125,42.5C 122.15,43.8476 119.317,44.1809 116.5,43.5C 115.034,44.1355 113.7,44.9688 112.5,46C 115.504,46.5129 117.838,48.0129 119.5,50.5C 116.503,51.4763 113.503,51.3097 110.5,50C 111.624,49.7508 112.624,49.2508 113.5,48.5C 112.467,47.548 111.3,47.548 110,48.5C 104.761,45.5536 99.9281,45.8869 95.5,49.5C 93.432,48.3466 91.432,48.3466 89.5,49.5C 87.7816,48.776 85.9483,48.1094 84,47.5C 83.6667,47.8333 83.3333,48.1667 83,48.5C 81.4002,47.1341 79.5668,46.1341 77.5,45.5C 76.7542,44.2638 76.4208,42.9305 76.5,41.5C 73.3419,40.5299 70.3419,41.1966 67.5,43.5C 66.8933,43.3764 66.56,43.0431 66.5,42.5C 69.5954,41.8813 69.9288,40.8813 67.5,39.5C 65.6183,40.0933 63.7849,40.7599 62,41.5C 58.296,40.6367 54.296,40.3034 50,40.5C 49.5,40.6667 49,40.8333 48.5,41C 49.8789,45.1833 49.2123,45.5167 46.5,42C 46.6448,41.228 46.9781,40.5613 47.5,40C 46.3279,39.5814 45.3279,38.9147 44.5,38C 38.4568,37.1702 32.7901,35.6702 27.5,33.5C 28.0905,31.9028 29.0905,30.5695 30.5,29.5C 34.7828,28.5078 39.1161,28.1744 43.5,28.5 Z"/></g>
<g><path style="opacity:1" fill="#e3c9ce" d="M 157.5,24.5 C 157.5,31.8333 157.5,39.1667 157.5,46.5C 156.684,44.8564 155.35,43.6897 153.5,43C 138.913,40.0994 124.413,37.2661 110,34.5C 91.442,35.2772 73.1086,35.2772 55,34.5C 53.9164,33.3349 53.0831,32.0016 52.5,30.5C 54,28.8333 55.5,27.1667 57,25.5C 57.2784,26.4158 57.7784,27.0825 58.5,27.5C 59.1667,27.5 59.8333,27.5 60.5,27.5C 59.016,28.4733 58.516,29.8067 59,31.5C 62.0731,30.3832 65.2397,30.2165 68.5,31C 71.0017,32.8327 73.8351,33.666 77,33.5C 85.1609,32.294 93.3276,32.294 101.5,33.5C 108.029,32.7575 114.862,31.7575 122,30.5C 123.981,30.6292 125.647,31.2958 127,32.5C 129.069,31.7362 131.236,31.2362 133.5,31C 132.304,30.3457 132.304,29.8457 133.5,29.5C 134.478,29.9767 135.311,30.6433 136,31.5C 137.333,31.5 138.667,31.5 140,31.5C 141.779,29.9826 141.279,29.1492 138.5,29C 141.167,28.3333 143.833,28.3333 146.5,29C 142.81,29.4244 142.643,30.2577 146,31.5C 148.382,29.5485 150.882,29.2151 153.5,30.5C 153.5,29.5 153.5,28.5 153.5,27.5C 151.326,27.0798 149.326,27.0798 147.5,27.5C 146.304,27.1543 146.304,26.6543 147.5,26C 149.179,25.6053 150.845,25.772 152.5,26.5C 154.177,25.8131 155.844,25.1465 157.5,24.5 Z"/></g>
<g><path style="opacity:1" fill="#c9b8c9" d="M 29.5,27.5 C 27.7096,28.7608 26.0429,30.2608 24.5,32C 25.2438,33.0386 26.2438,33.5386 27.5,33.5C 32.7901,35.6702 38.4568,37.1702 44.5,38C 45.3279,38.9147 46.3279,39.5814 47.5,40C 46.9781,40.5613 46.6448,41.228 46.5,42C 49.2123,45.5167 49.8789,45.1833 48.5,41C 49,40.8333 49.5,40.6667 50,40.5C 54.296,40.3034 58.296,40.6367 62,41.5C 63.7849,40.7599 65.6183,40.0933 67.5,39.5C 69.9288,40.8813 69.5954,41.8813 66.5,42.5C 65.1266,42.3433 63.7932,42.51 62.5,43C 63.1667,43.3333 63.8333,43.6667 64.5,44C 62.1116,44.3034 59.9449,45.1367 58,46.5C 57.6322,45.09 56.7989,44.09 55.5,43.5C 51.5524,45.8315 47.3857,46.1648 43,44.5C 41.2785,44.6107 41.1118,45.1107 42.5,46C 41.3333,46.1667 40.1667,46.3333 39,46.5C 33.0032,44.1927 26.8366,42.1927 20.5,40.5C 19.8003,43.0149 18.4669,43.6816 16.5,42.5C 9.17552,43.0366 8.84219,44.37 15.5,46.5C 15,46.8333 14.5,47.1667 14,47.5C 11.2646,46.9943 8.43131,46.9943 5.5,47.5C 3.6208,46.6586 1.6208,46.3253 -0.5,46.5C -0.5,44.8333 -0.5,43.1667 -0.5,41.5C 4.83333,41.5 10.1667,41.5 15.5,41.5C 15.9176,37.7491 14.251,35.5824 10.5,35C 12.2262,33.4702 14.2262,32.4702 16.5,32C 16.1667,31.6667 15.8333,31.3333 15.5,31C 17.5655,29.0209 19.7321,27.1875 22,25.5C 24.0845,28.1448 26.5845,28.8115 29.5,27.5 Z"/></g>
<g><path style="opacity:1" fill="#d9c4cd" d="M 53.5,17.5 C 53.56,16.9569 53.8933,16.6236 54.5,16.5C 58.8091,17.3782 63.1424,18.2116 67.5,19C 63.7259,21.0841 60.7259,23.9174 58.5,27.5C 57.7784,27.0825 57.2784,26.4158 57,25.5C 55.5,27.1667 54,28.8333 52.5,30.5C 53.0831,32.0016 53.9164,33.3349 55,34.5C 73.1086,35.2772 91.442,35.2772 110,34.5C 124.413,37.2661 138.913,40.0994 153.5,43C 155.35,43.6897 156.684,44.8564 157.5,46.5C 157.5,49.5 157.5,52.5 157.5,55.5C 156.167,55.5 154.833,55.5 153.5,55.5C 153.174,53.3393 152.174,51.5059 150.5,50C 150.998,48.8419 151.831,48.0085 153,47.5C 157.403,48.7096 157.57,48.2096 153.5,46C 144.003,45.5072 134.836,43.6738 126,40.5C 120.003,41.5565 114.17,41.5565 108.5,40.5C 106.167,40.8333 105.833,41.8333 107.5,43.5C 106.264,44.3567 104.931,45.0234 103.5,45.5C 100.634,44.2054 97.8007,44.2054 95,45.5C 93.341,44.1688 91.6743,42.8354 90,41.5C 89.617,43.037 88.7836,44.3703 87.5,45.5C 87.6931,44.3118 87.1931,42.9785 86,41.5C 81.8281,45.7461 79.4947,44.7461 79,38.5C 78.2753,39.0585 77.4419,39.3918 76.5,39.5C 72.0216,38.711 67.5216,38.0443 63,37.5C 58.9128,38.8675 54.7461,39.3675 50.5,39C 47.8715,36.8406 44.8715,35.3406 41.5,34.5C 40.5091,32.6769 39.1757,31.1769 37.5,30C 39.7078,29.8091 41.7078,29.3091 43.5,28.5C 46.2469,28.8134 48.9135,28.48 51.5,27.5C 52.3805,26.0295 53.7139,25.1962 55.5,25C 54.7471,23.513 53.9138,23.3463 53,24.5C 52.5172,23.552 52.3505,22.552 52.5,21.5C 58.5479,21.0254 58.8812,19.692 53.5,17.5 Z"/></g>
<g><path style="opacity:1" fill="#cdbdcd" d="M 66.5,42.5 C 66.56,43.0431 66.8933,43.3764 67.5,43.5C 70.3419,41.1966 73.3419,40.5299 76.5,41.5C 76.4208,42.9305 76.7542,44.2638 77.5,45.5C 79.5668,46.1341 81.4002,47.1341 83,48.5C 83.3333,48.1667 83.6667,47.8333 84,47.5C 85.9483,48.1094 87.7816,48.776 89.5,49.5C 86.6035,49.1253 83.9368,49.6253 81.5,51C 83.1193,51.2355 84.1193,52.0689 84.5,53.5C 82.9397,53.4809 81.4397,53.1476 80,52.5C 74.2114,56.4636 68.5447,56.4636 63,52.5C 58.2961,53.8387 54.2961,52.5054 51,48.5C 49.3333,49.5 47.6667,50.5 46,51.5C 44.172,49.9186 42.172,48.5853 40,47.5C 39.6213,49.5705 40.4547,51.0705 42.5,52C 37.5373,53.7467 32.5373,53.9134 27.5,52.5C 25.4357,51.1324 23.1024,50.1324 20.5,49.5C 15.3489,48.8332 10.3489,48.1665 5.5,47.5C 8.43131,46.9943 11.2646,46.9943 14,47.5C 14.5,47.1667 15,46.8333 15.5,46.5C 8.84219,44.37 9.17552,43.0366 16.5,42.5C 18.4669,43.6816 19.8003,43.0149 20.5,40.5C 26.8366,42.1927 33.0032,44.1927 39,46.5C 40.1667,46.3333 41.3333,46.1667 42.5,46C 41.1118,45.1107 41.2785,44.6107 43,44.5C 47.3857,46.1648 51.5524,45.8315 55.5,43.5C 56.7989,44.09 57.6322,45.09 58,46.5C 59.9449,45.1367 62.1116,44.3034 64.5,44C 63.8333,43.6667 63.1667,43.3333 62.5,43C 63.7932,42.51 65.1266,42.3433 66.5,42.5 Z"/></g>
<g><path style="opacity:1" fill="#c9bacb" d="M 149.5,55.5 C 133.819,55.1673 118.152,55.5006 102.5,56.5C 102.137,57.1835 101.804,57.8501 101.5,58.5C 100.01,62.8133 98.0101,66.8133 95.5,70.5C 91.7964,68.9089 87.7964,68.0756 83.5,68C 82.3595,67.2588 82.3595,66.4255 83.5,65.5C 81.6587,64.7696 79.8254,64.1029 78,63.5C 77.8333,63.8333 77.6667,64.1667 77.5,64.5C 78.9079,65.2432 80.2412,66.0766 81.5,67C 81,67.5 80.5,68 80,68.5C 72.4831,67.5008 64.9831,66.1674 57.5,64.5C 53.3463,62.411 49.013,60.911 44.5,60C 57.739,57.9365 70.9056,58.7699 84,62.5C 89.2161,61.7225 94.3828,60.5558 99.5,59C 95.0641,55.6565 90.0641,53.8231 84.5,53.5C 84.1193,52.0689 83.1193,51.2355 81.5,51C 83.9368,49.6253 86.6035,49.1253 89.5,49.5C 91.432,48.3466 93.432,48.3466 95.5,49.5C 99.9281,45.8869 104.761,45.5536 110,48.5C 111.3,47.548 112.467,47.548 113.5,48.5C 112.624,49.2508 111.624,49.7508 110.5,50C 113.503,51.3097 116.503,51.4763 119.5,50.5C 117.838,48.0129 115.504,46.5129 112.5,46C 113.7,44.9688 115.034,44.1355 116.5,43.5C 119.317,44.1809 122.15,43.8476 125,42.5C 128.68,42.9764 132.18,43.9764 135.5,45.5C 133.329,49.0894 130.329,50.0894 126.5,48.5C 125.713,49.2421 125.047,50.0754 124.5,51C 128.561,51.0052 132.561,51.1719 136.5,51.5C 142.465,48.0457 146.799,49.379 149.5,55.5 Z"/></g>
<g><path style="opacity:1" fill="#d4c4cf" d="M 84.5,53.5 C 90.0641,53.8231 95.0641,55.6565 99.5,59C 94.3828,60.5558 89.2161,61.7225 84,62.5C 70.9056,58.7699 57.739,57.9365 44.5,60C 49.013,60.911 53.3463,62.411 57.5,64.5C 64.9831,66.1674 72.4831,67.5008 80,68.5C 80.5,68 81,67.5 81.5,67C 80.2412,66.0766 78.9079,65.2432 77.5,64.5C 77.6667,64.1667 77.8333,63.8333 78,63.5C 79.8254,64.1029 81.6587,64.7696 83.5,65.5C 82.3595,66.4255 82.3595,67.2588 83.5,68C 87.7964,68.0756 91.7964,68.9089 95.5,70.5C 82.7469,69.6901 70.0802,68.3567 57.5,66.5C 56.062,66.7189 54.7287,67.2189 53.5,68C 55.9351,69.0034 55.6018,69.5034 52.5,69.5C 47.8398,68.3868 43.1732,68.3868 38.5,69.5C 37.828,68.7326 36.9947,68.0659 36,67.5C 32.2505,69.7301 28.4172,69.8968 24.5,68C 26.1341,67.5065 27.8008,67.3398 29.5,67.5C 29.33,66.1779 29.6634,65.0113 30.5,64C 29.4167,62.4705 28.4167,60.9705 27.5,59.5C 32.1857,57.4782 36.6857,57.4782 41,59.5C 44.6785,58.1149 48.5118,57.2816 52.5,57C 50.0783,55.8194 47.5783,55.3194 45,55.5C 44.0546,55.9054 43.3879,56.572 43,57.5C 40.1393,54.5279 36.806,53.8612 33,55.5C 30.8796,54.8598 29.0463,53.8598 27.5,52.5C 32.5373,53.9134 37.5373,53.7467 42.5,52C 40.4547,51.0705 39.6213,49.5705 40,47.5C 42.172,48.5853 44.172,49.9186 46,51.5C 47.6667,50.5 49.3333,49.5 51,48.5C 54.2961,52.5054 58.2961,53.8387 63,52.5C 68.5447,56.4636 74.2114,56.4636 80,52.5C 81.4397,53.1476 82.9397,53.4809 84.5,53.5 Z"/></g>
<g><path style="opacity:1" fill="#584f4c" d="M 157.5,57.5 C 157.5,61.1667 157.5,64.8333 157.5,68.5C 156.834,65.9723 156.168,63.3056 155.5,60.5C 154.914,60.7093 154.414,61.0426 154,61.5C 153.667,65.8333 153.333,70.1667 153,74.5C 152.667,73.5 152.333,72.5 152,71.5C 151.667,73.5 151.333,75.5 151,77.5C 150.5,71.1754 150.334,64.8421 150.5,58.5C 148.234,58.1412 146.401,58.8078 145,60.5C 142.848,57.9571 140.682,57.9571 138.5,60.5C 137.167,60.5 135.833,60.5 134.5,60.5C 133.2,59.8921 131.867,59.2255 130.5,58.5C 129.287,58.7472 128.62,59.4138 128.5,60.5C 126.318,57.9847 124.318,57.9847 122.5,60.5C 122.167,60.5 121.833,60.5 121.5,60.5C 118.167,60.5 114.833,60.5 111.5,60.5C 111.5,68.8333 111.5,77.1667 111.5,85.5C 111.5,86.5 111.5,87.5 111.5,88.5C 110.506,79.3483 110.173,70.015 110.5,60.5C 109.167,60.5 107.833,60.5 106.5,60.5C 106.5,59.5 106.5,58.5 106.5,57.5C 123.5,57.5 140.5,57.5 157.5,57.5 Z"/></g>
<g><path style="opacity:1" fill="#776263" d="M 149.5,55.5 C 150.833,55.5 152.167,55.5 153.5,55.5C 154.833,55.5 156.167,55.5 157.5,55.5C 157.5,56.1667 157.5,56.8333 157.5,57.5C 140.5,57.5 123.5,57.5 106.5,57.5C 106.5,58.5 106.5,59.5 106.5,60.5C 105.732,59.7375 105.232,58.7375 105,57.5C 104.5,74.4967 104.333,91.4967 104.5,108.5C 104.5,108.833 104.5,109.167 104.5,109.5C 104.5,109.833 104.5,110.167 104.5,110.5C 103.833,110.833 103.167,111.167 102.5,111.5C 102.5,110.833 102.167,110.5 101.5,110.5C 102.407,104.894 102.74,99.227 102.5,93.5C 102.5,93.1667 102.5,92.8333 102.5,92.5C 102.5,91.5 102.5,90.5 102.5,89.5C 102.567,88.0413 102.234,86.7079 101.5,85.5C 102.167,85.5 102.5,85.1667 102.5,84.5C 102.5,79.5 102.5,74.5 102.5,69.5C 102.815,65.6286 102.482,61.9619 101.5,58.5C 101.804,57.8501 102.137,57.1835 102.5,56.5C 118.152,55.5006 133.819,55.1673 149.5,55.5 Z"/></g>
<g><path style="opacity:1" fill="#d9c8d1" d="M -0.5,46.5 C 1.6208,46.3253 3.6208,46.6586 5.5,47.5C 10.3489,48.1665 15.3489,48.8332 20.5,49.5C 23.1024,50.1324 25.4357,51.1324 27.5,52.5C 29.0463,53.8598 30.8796,54.8598 33,55.5C 36.806,53.8612 40.1393,54.5279 43,57.5C 43.3879,56.572 44.0546,55.9054 45,55.5C 47.5783,55.3194 50.0783,55.8194 52.5,57C 48.5118,57.2816 44.6785,58.1149 41,59.5C 36.6857,57.4782 32.1857,57.4782 27.5,59.5C 28.4167,60.9705 29.4167,62.4705 30.5,64C 29.6634,65.0113 29.33,66.1779 29.5,67.5C 27.8008,67.3398 26.1341,67.5065 24.5,68C 28.4172,69.8968 32.2505,69.7301 36,67.5C 36.9947,68.0659 37.828,68.7326 38.5,69.5C 31.3002,71.8254 23.9669,71.8254 16.5,69.5C 13.3366,70.8653 10.0033,71.8653 6.5,72.5C 5.16667,73.5 5.16667,74.5 6.5,75.5C 4.25731,76.4742 1.92397,76.8076 -0.5,76.5C -0.5,66.5 -0.5,56.5 -0.5,46.5 Z"/></g>
<g><path style="opacity:1" fill="#6c615d" d="M 157.5,68.5 C 157.5,69.8333 157.5,71.1667 157.5,72.5C 155.336,74.822 153.669,77.4887 152.5,80.5C 151.5,80.8333 150.833,81.5 150.5,82.5C 149.248,84.0009 148.248,85.6675 147.5,87.5C 146.094,87.9731 145.427,88.9731 145.5,90.5C 143.75,91.6594 142.75,93.326 142.5,95.5C 141.5,95.8333 140.833,96.5 140.5,97.5C 140.167,98.5 139.5,99.1667 138.5,99.5C 138.583,86.6198 138.583,73.6198 138.5,60.5C 140.682,57.9571 142.848,57.9571 145,60.5C 146.401,58.8078 148.234,58.1412 150.5,58.5C 150.334,64.8421 150.5,71.1754 151,77.5C 151.333,75.5 151.667,73.5 152,71.5C 152.333,72.5 152.667,73.5 153,74.5C 153.333,70.1667 153.667,65.8333 154,61.5C 154.414,61.0426 154.914,60.7093 155.5,60.5C 156.168,63.3056 156.834,65.9723 157.5,68.5 Z"/></g>
<g><path style="opacity:1" fill="#63583e" d="M 102.5,69.5 C 102.5,74.5 102.5,79.5 102.5,84.5C 99.4174,83.9338 96.4174,83.9338 93.5,84.5C 92.7025,84.0431 92.3691,83.3764 92.5,82.5C 93.1667,81.8333 93.8333,81.1667 94.5,80.5C 96.451,80.2267 97.951,80.8934 99,82.5C 100.372,81.0899 101.205,79.4233 101.5,77.5C 99.9581,76.8365 98.2914,76.1698 96.5,75.5C 96.759,71.5867 98.759,69.5867 102.5,69.5 Z"/></g>
<g><path style="opacity:1" fill="#7e756b" d="M 128.5,60.5 C 130.17,60.7512 131.67,61.4178 133,62.5C 133.333,75.8333 133.667,89.1667 134,102.5C 134.5,88.504 134.667,74.504 134.5,60.5C 135.833,60.5 137.167,60.5 138.5,60.5C 138.583,73.6198 138.583,86.6198 138.5,99.5C 138.167,100.833 137.833,102.167 137.5,103.5C 136.833,103.5 136.5,103.833 136.5,104.5C 134.738,105.262 133.738,106.596 133.5,108.5C 132.833,108.5 132.5,108.833 132.5,109.5C 132.167,109.5 131.833,109.5 131.5,109.5C 130.604,110.506 129.938,110.506 129.5,109.5C 128.516,93.244 128.182,76.9107 128.5,60.5 Z"/></g>
<g><path style="opacity:1" fill="#614c3b" d="M 101.5,58.5 C 102.482,61.9619 102.815,65.6286 102.5,69.5C 98.759,69.5867 96.759,71.5867 96.5,75.5C 98.2914,76.1698 99.9581,76.8365 101.5,77.5C 99.6434,80.0176 97.8101,80.0176 96,77.5C 94.9614,78.2438 94.4614,79.2438 94.5,80.5C 93.8333,81.1667 93.1667,81.8333 92.5,82.5C 91.596,83.209 91.2627,84.209 91.5,85.5C 90.2702,87.2972 89.6036,89.2972 89.5,91.5C 92.3406,91.5786 95.0073,90.9119 97.5,89.5C 99.0293,89.5288 100.196,90.1955 101,91.5C 101.278,90.5842 101.778,89.9175 102.5,89.5C 102.5,90.5 102.5,91.5 102.5,92.5C 97.706,91.9031 93.3727,92.5698 89.5,94.5C 87.7202,93.0101 87.0535,91.0101 87.5,88.5C 87.5,88.1667 87.5,87.8333 87.5,87.5C 88.6737,86.4863 89.3404,85.153 89.5,83.5C 91.7365,79.3554 93.7365,75.022 95.5,70.5C 98.0101,66.8133 100.01,62.8133 101.5,58.5 Z"/></g>
<g><path style="opacity:1" fill="#dacad1" d="M 95.5,70.5 C 93.7365,75.022 91.7365,79.3554 89.5,83.5C 89.5858,82.5041 89.2524,81.6708 88.5,81C 83.0148,79.161 77.3481,77.8276 71.5,77C 74.5589,76.3554 77.5589,75.522 80.5,74.5C 79.286,72.9309 77.6193,72.0976 75.5,72C 65.4028,70.9018 55.0695,70.5684 44.5,71C 44.0019,72.1581 43.1685,72.9915 42,73.5C 40.323,72.8373 38.4897,72.8373 36.5,73.5C 29.5189,72.5926 22.5189,71.926 15.5,71.5C 15.4386,73.5922 14.4386,75.0922 12.5,76C 14.6079,76.3599 16.6079,77.0266 18.5,78C 29.0597,78.2059 39.393,79.0393 49.5,80.5C 50.354,81.5217 51.354,82.3551 52.5,83C 52.1667,83.3333 51.8333,83.6667 51.5,84C 54.3771,84.9562 57.0438,86.2895 59.5,88C 57.2935,88.9768 55.2935,90.1435 53.5,91.5C 43.269,89.6451 32.9356,88.4785 22.5,88C 15.0824,85.2427 7.41569,83.7427 -0.5,83.5C -0.5,81.1667 -0.5,78.8333 -0.5,76.5C 1.92397,76.8076 4.25731,76.4742 6.5,75.5C 5.16667,74.5 5.16667,73.5 6.5,72.5C 10.0033,71.8653 13.3366,70.8653 16.5,69.5C 23.9669,71.8254 31.3002,71.8254 38.5,69.5C 43.1732,68.3868 47.8398,68.3868 52.5,69.5C 55.6018,69.5034 55.9351,69.0034 53.5,68C 54.7287,67.2189 56.062,66.7189 57.5,66.5C 70.0802,68.3567 82.7469,69.6901 95.5,70.5 Z"/></g>
<g><path style="opacity:1" fill="#918568" d="M 101.5,77.5 C 101.205,79.4233 100.372,81.0899 99,82.5C 97.951,80.8934 96.451,80.2267 94.5,80.5C 94.4614,79.2438 94.9614,78.2438 96,77.5C 97.8101,80.0176 99.6434,80.0176 101.5,77.5 Z"/></g>
<g><path style="opacity:1" fill="#e6d2d4" d="M 89.5,83.5 C 89.3404,85.153 88.6737,86.4863 87.5,87.5C 87.2061,83.6996 85.2061,81.1996 81.5,80C 76.1924,79.1697 70.8591,78.6697 65.5,78.5C 65.577,81.5092 64.2437,83.6759 61.5,85C 64.1667,85.6667 64.1667,86.3333 61.5,87C 63.5795,89.278 65.9128,91.1113 68.5,92.5C 66.1153,94.8838 64.1153,97.5505 62.5,100.5C 70.0913,99.6612 77.758,99.6612 85.5,100.5C 85.2627,99.209 85.596,98.209 86.5,97.5C 86.5,99.8333 86.5,102.167 86.5,104.5C 85.596,105.209 85.2627,106.209 85.5,107.5C 82.9339,107.344 80.4339,107.678 78,108.5C 73.9453,106.47 69.9453,104.803 66,103.5C 64.2626,104.62 62.4292,105.62 60.5,106.5C 59.2888,107.274 59.2888,108.107 60.5,109C 57.4254,110.602 54.4254,110.602 51.5,109C 53.2205,108.261 54.8872,107.427 56.5,106.5C 55.0777,105.453 53.5777,105.453 52,106.5C 50.5405,106.192 49.3739,105.525 48.5,104.5C 49.3094,103.531 50.3094,102.698 51.5,102C 48.743,101.122 46.0763,100.122 43.5,99C 47.3808,97.8099 51.3808,97.1432 55.5,97C 55.8333,96 56.1667,95 56.5,94C 55.4293,93.1482 54.4293,92.3149 53.5,91.5C 55.2935,90.1435 57.2935,88.9768 59.5,88C 57.0438,86.2895 54.3771,84.9562 51.5,84C 51.8333,83.6667 52.1667,83.3333 52.5,83C 51.354,82.3551 50.354,81.5217 49.5,80.5C 39.393,79.0393 29.0597,78.2059 18.5,78C 16.6079,77.0266 14.6079,76.3599 12.5,76C 14.4386,75.0922 15.4386,73.5922 15.5,71.5C 22.5189,71.926 29.5189,72.5926 36.5,73.5C 38.4897,72.8373 40.323,72.8373 42,73.5C 43.1685,72.9915 44.0019,72.1581 44.5,71C 55.0695,70.5684 65.4028,70.9018 75.5,72C 77.6193,72.0976 79.286,72.9309 80.5,74.5C 77.5589,75.522 74.5589,76.3554 71.5,77C 77.3481,77.8276 83.0148,79.161 88.5,81C 89.2524,81.6708 89.5858,82.5041 89.5,83.5 Z"/></g>
<g><path style="opacity:1" fill="#615e55" d="M 134.5,60.5 C 134.667,74.504 134.5,88.504 134,102.5C 133.667,89.1667 133.333,75.8333 133,62.5C 131.67,61.4178 130.17,60.7512 128.5,60.5C 128.62,59.4138 129.287,58.7472 130.5,58.5C 131.867,59.2255 133.2,59.8921 134.5,60.5 Z"/></g>
<g><path style="opacity:1" fill="#f1dcd9" d="M 87.5,87.5 C 87.5,87.8333 87.5,88.1667 87.5,88.5C 86.5233,91.2869 86.19,94.2869 86.5,97.5C 85.596,98.209 85.2627,99.209 85.5,100.5C 77.758,99.6612 70.0913,99.6612 62.5,100.5C 64.1153,97.5505 66.1153,94.8838 68.5,92.5C 65.9128,91.1113 63.5795,89.278 61.5,87C 64.1667,86.3333 64.1667,85.6667 61.5,85C 64.2437,83.6759 65.577,81.5092 65.5,78.5C 70.8591,78.6697 76.1924,79.1697 81.5,80C 85.2061,81.1996 87.2061,83.6996 87.5,87.5 Z"/></g>
<g><path style="opacity:1" fill="#453423" d="M 92.5,82.5 C 92.3691,83.3764 92.7025,84.0431 93.5,84.5C 96.4174,83.9338 99.4174,83.9338 102.5,84.5C 102.5,85.1667 102.167,85.5 101.5,85.5C 98.1667,85.5 94.8333,85.5 91.5,85.5C 91.2627,84.209 91.596,83.209 92.5,82.5 Z"/></g>
<g><path style="opacity:1" fill="#807657" d="M 91.5,85.5 C 94.8333,85.5 98.1667,85.5 101.5,85.5C 102.234,86.7079 102.567,88.0413 102.5,89.5C 101.778,89.9175 101.278,90.5842 101,91.5C 100.196,90.1955 99.0293,89.5288 97.5,89.5C 95.0073,90.9119 92.3406,91.5786 89.5,91.5C 89.6036,89.2972 90.2702,87.2972 91.5,85.5 Z"/></g>
<g><path style="opacity:1" fill="#e9d5d6" d="M -0.5,83.5 C 7.41569,83.7427 15.0824,85.2427 22.5,88C 32.9356,88.4785 43.269,89.6451 53.5,91.5C 54.4293,92.3149 55.4293,93.1482 56.5,94C 56.1667,95 55.8333,96 55.5,97C 51.3808,97.1432 47.3808,97.8099 43.5,99C 46.0763,100.122 48.743,101.122 51.5,102C 50.3094,102.698 49.3094,103.531 48.5,104.5C 45.4816,104.335 42.4816,104.502 39.5,105C 38.0267,105.71 37.3601,106.876 37.5,108.5C 27.3341,109.962 17.0008,110.795 6.5,111C 7.71118,111.893 7.71118,112.726 6.5,113.5C 4.17721,112.328 1.84388,112.328 -0.5,113.5C -0.5,107.167 -0.5,100.833 -0.5,94.5C 2.20485,94.3802 2.87151,95.3802 1.5,97.5C 4.51094,98.8419 7.51094,99.1753 10.5,98.5C 12.1831,99.5921 14.0164,100.259 16,100.5C 20.2013,99.9414 24.368,99.2748 28.5,98.5C 30.5583,100.077 32.8916,101.077 35.5,101.5C 37.8047,100.663 40.138,100.496 42.5,101C 40.8333,99.6667 39.1667,98.3333 37.5,97C 36.2161,96.3162 35.0495,96.4829 34,97.5C 33.8047,95.7928 33.8047,94.1261 34,92.5C 32.2041,93.767 30.3707,93.767 28.5,92.5C 24.7388,94.9952 21.4055,94.3285 18.5,90.5C 17.8333,90.8333 17.1667,91.1667 16.5,91.5C 13.9044,90.5178 11.2377,89.8511 8.5,89.5C 8.64945,90.552 8.48278,91.552 8,92.5C 5.74349,91.0657 2.91015,90.3991 -0.5,90.5C -0.5,88.1667 -0.5,85.8333 -0.5,83.5 Z"/></g>
<g><path style="opacity:1" fill="#f1ddda" d="M -0.5,94.5 C -0.5,93.1667 -0.5,91.8333 -0.5,90.5C 2.91015,90.3991 5.74349,91.0657 8,92.5C 8.48278,91.552 8.64945,90.552 8.5,89.5C 11.2377,89.8511 13.9044,90.5178 16.5,91.5C 17.1667,91.1667 17.8333,90.8333 18.5,90.5C 21.4055,94.3285 24.7388,94.9952 28.5,92.5C 30.3707,93.767 32.2041,93.767 34,92.5C 33.8047,94.1261 33.8047,95.7928 34,97.5C 35.0495,96.4829 36.2161,96.3162 37.5,97C 39.1667,98.3333 40.8333,99.6667 42.5,101C 40.138,100.496 37.8047,100.663 35.5,101.5C 32.8916,101.077 30.5583,100.077 28.5,98.5C 24.368,99.2748 20.2013,99.9414 16,100.5C 14.0164,100.259 12.1831,99.5921 10.5,98.5C 7.51094,99.1753 4.51094,98.8419 1.5,97.5C 2.87151,95.3802 2.20485,94.3802 -0.5,94.5 Z"/></g>
<g><path style="opacity:1" fill="#c8bab2" d="M 102.5,93.5 C 102.74,99.227 102.407,104.894 101.5,110.5C 101.167,110.5 100.833,110.5 100.5,110.5C 99.8833,104.402 100.55,98.7351 102.5,93.5 Z"/></g>
<g><path style="opacity:1" fill="#cbc1ba" d="M 99.5,112.5 C 98.4043,115.032 97.0709,117.365 95.5,119.5C 95.5,110.833 95.5,102.167 95.5,93.5C 96.8333,93.5 98.1667,93.5 99.5,93.5C 99.5,99.8333 99.5,106.167 99.5,112.5 Z"/></g>
<g><path style="opacity:1" fill="#5d5d53" d="M 128.5,60.5 C 128.182,76.9107 128.516,93.244 129.5,109.5C 126.833,109.5 124.167,109.5 121.5,109.5C 121.5,109.167 121.5,108.833 121.5,108.5C 121.5,102.167 121.5,95.8333 121.5,89.5C 121.5,79.8333 121.5,70.1667 121.5,60.5C 121.833,60.5 122.167,60.5 122.5,60.5C 124.318,57.9847 126.318,57.9847 128.5,60.5 Z"/></g>
<g><path style="opacity:1" fill="#969082" d="M 127.5,88.5 C 127.5,95.1667 127.5,101.833 127.5,108.5C 125.833,108.5 124.167,108.5 122.5,108.5C 122.5,101.833 122.5,95.1667 122.5,88.5C 123.961,84.7008 125.628,84.7008 127.5,88.5 Z"/></g>
<g><path style="opacity:1" fill="#80786b" d="M 122.5,60.5 C 124.117,61.038 125.784,61.3713 127.5,61.5C 127.5,70.5 127.5,79.5 127.5,88.5C 125.628,84.7008 123.961,84.7008 122.5,88.5C 122.5,79.1667 122.5,69.8333 122.5,60.5 Z"/></g>
<g><path style="opacity:1" fill="#c9beb5" d="M 94.5,121.5 C 93.4043,124.032 92.0709,126.365 90.5,128.5C 90.5,116.833 90.5,105.167 90.5,93.5C 91.8333,93.5 93.1667,93.5 94.5,93.5C 94.5,102.833 94.5,112.167 94.5,121.5 Z"/></g>
<g><path style="opacity:1" fill="#817b6e" d="M 106.5,60.5 C 107.833,60.5 109.167,60.5 110.5,60.5C 110.173,70.015 110.506,79.3483 111.5,88.5C 111.5,95.1667 111.5,101.833 111.5,108.5C 112.833,108.5 114.167,108.5 115.5,108.5C 115.5,100.833 115.5,93.1667 115.5,85.5C 114.167,85.5 112.833,85.5 111.5,85.5C 111.5,77.1667 111.5,68.8333 111.5,60.5C 114.833,60.5 118.167,60.5 121.5,60.5C 121.5,70.1667 121.5,79.8333 121.5,89.5C 120.292,88.7659 118.959,88.4326 117.5,88.5C 117.5,95.1667 117.5,101.833 117.5,108.5C 118.833,108.5 120.167,108.5 121.5,108.5C 121.5,108.833 121.5,109.167 121.5,109.5C 115.833,109.5 110.167,109.5 104.5,109.5C 104.5,109.167 104.5,108.833 104.5,108.5C 105.833,108.5 107.167,108.5 108.5,108.5C 109.657,100.344 109.823,92.0104 109,83.5C 108.23,82.4019 107.397,82.4019 106.5,83.5C 106.5,75.8333 106.5,68.1667 106.5,60.5 Z"/></g>
<g><path style="opacity:1" fill="#aaa393" d="M 111.5,85.5 C 112.833,85.5 114.167,85.5 115.5,85.5C 115.5,93.1667 115.5,100.833 115.5,108.5C 114.167,108.5 112.833,108.5 111.5,108.5C 111.5,101.833 111.5,95.1667 111.5,88.5C 111.5,87.5 111.5,86.5 111.5,85.5 Z"/></g>
<g><path style="opacity:1" fill="#9c8a86" d="M 106.5,60.5 C 106.5,68.1667 106.5,75.8333 106.5,83.5C 106.334,90.8409 106.5,98.1742 107,105.5C 107.513,106.527 108.013,107.527 108.5,108.5C 107.167,108.5 105.833,108.5 104.5,108.5C 104.333,91.4967 104.5,74.4967 105,57.5C 105.232,58.7375 105.732,59.7375 106.5,60.5 Z"/></g>
<g><path style="opacity:1" fill="#aba494" d="M 108.5,108.5 C 108.013,107.527 107.513,106.527 107,105.5C 106.5,98.1742 106.334,90.8409 106.5,83.5C 107.397,82.4019 108.23,82.4019 109,83.5C 109.823,92.0104 109.657,100.344 108.5,108.5 Z"/></g>
<g><path style="opacity:1" fill="#a7a192" d="M 121.5,89.5 C 121.5,95.8333 121.5,102.167 121.5,108.5C 120.167,108.5 118.833,108.5 117.5,108.5C 117.5,101.833 117.5,95.1667 117.5,88.5C 118.959,88.4326 120.292,88.7659 121.5,89.5 Z"/></g>
<g><path style="opacity:1" fill="#deccd2" d="M 86.5,104.5 C 86.5,107.833 86.5,111.167 86.5,114.5C 79.6153,114.935 72.9486,113.935 66.5,111.5C 64.3344,111.43 64.0011,112.096 65.5,113.5C 54.1597,114.476 42.8264,114.976 31.5,115C 32.1667,114.667 32.8333,114.333 33.5,114C 28.2247,112.641 22.8913,112.308 17.5,113C 18.3279,113.915 19.3279,114.581 20.5,115C 17.905,115.226 15.405,115.726 13,116.5C 11.3523,114.972 9.35228,114.305 7,114.5C 4.47189,114.725 1.97189,115.058 -0.5,115.5C -0.5,114.833 -0.5,114.167 -0.5,113.5C 1.84388,112.328 4.17721,112.328 6.5,113.5C 7.71118,112.726 7.71118,111.893 6.5,111C 17.0008,110.795 27.3341,109.962 37.5,108.5C 37.3601,106.876 38.0267,105.71 39.5,105C 42.4816,104.502 45.4816,104.335 48.5,104.5C 49.3739,105.525 50.5405,106.192 52,106.5C 53.5777,105.453 55.0777,105.453 56.5,106.5C 54.8872,107.427 53.2205,108.261 51.5,109C 54.4254,110.602 57.4254,110.602 60.5,109C 59.2888,108.107 59.2888,107.274 60.5,106.5C 62.4292,105.62 64.2626,104.62 66,103.5C 69.9453,104.803 73.9453,106.47 78,108.5C 80.4339,107.678 82.9339,107.344 85.5,107.5C 85.2627,106.209 85.596,105.209 86.5,104.5 Z"/></g>
<g><path style="opacity:1" fill="#9d9b7f" d="M 102.5,92.5 C 102.5,92.8333 102.5,93.1667 102.5,93.5C 100.55,98.7351 99.8833,104.402 100.5,110.5C 100.672,111.492 100.338,112.158 99.5,112.5C 99.5,106.167 99.5,99.8333 99.5,93.5C 98.1667,93.5 96.8333,93.5 95.5,93.5C 95.5,102.167 95.5,110.833 95.5,119.5C 95.6716,120.492 95.3382,121.158 94.5,121.5C 94.5,112.167 94.5,102.833 94.5,93.5C 93.1667,93.5 91.8333,93.5 90.5,93.5C 90.5,105.167 90.5,116.833 90.5,128.5C 89.501,117.915 89.1677,106.582 89.5,94.5C 93.3727,92.5698 97.706,91.9031 102.5,92.5 Z"/></g>
<g><path style="opacity:1" fill="#c8afb0" d="M 145.5,90.5 C 146.827,106.672 146.827,123.005 145.5,139.5C 144.522,139.977 143.689,140.643 143,141.5C 142.5,126.17 142.333,110.837 142.5,95.5C 142.75,93.326 143.75,91.6594 145.5,90.5 Z"/></g>
<g><path style="opacity:1" fill="#c6aeb0" d="M 150.5,82.5 C 151.662,98.9949 151.828,115.662 151,132.5C 150,133.833 149,135.167 148,136.5C 147.5,120.17 147.333,103.837 147.5,87.5C 148.248,85.6675 149.248,84.0009 150.5,82.5 Z"/></g>
<g><path style="opacity:1" fill="#ead6d6" d="M 86.5,114.5 C 86.5,114.833 86.5,115.167 86.5,115.5C 82.1161,115.174 77.7828,115.508 73.5,116.5C 73.2907,117.086 72.9574,117.586 72.5,118C 67.8398,119.503 63.1731,119.669 58.5,118.5C 55.6996,119.732 52.6996,120.399 49.5,120.5C 46.8333,120.333 44.1667,120.167 41.5,120C 39.8263,119.806 38.3263,118.973 37,117.5C 34.047,119.63 30.8803,119.963 27.5,118.5C 25.8849,119.154 24.2182,119.654 22.5,120C 22.8333,120.333 23.1667,120.667 23.5,121C 15.4749,121.301 7.47493,121.801 -0.5,122.5C -0.5,120.167 -0.5,117.833 -0.5,115.5C 1.97189,115.058 4.47189,114.725 7,114.5C 9.35228,114.305 11.3523,114.972 13,116.5C 15.405,115.726 17.905,115.226 20.5,115C 19.3279,114.581 18.3279,113.915 17.5,113C 22.8913,112.308 28.2247,112.641 33.5,114C 32.8333,114.333 32.1667,114.667 31.5,115C 42.8264,114.976 54.1597,114.476 65.5,113.5C 64.0011,112.096 64.3344,111.43 66.5,111.5C 72.9486,113.935 79.6153,114.935 86.5,114.5 Z"/></g>
<g><path style="opacity:1" fill="#745f56" d="M 87.5,88.5 C 87.0535,91.0101 87.7202,93.0101 89.5,94.5C 89.1677,106.582 89.501,117.915 90.5,128.5C 92.0709,126.365 93.4043,124.032 94.5,121.5C 95.3382,121.158 95.6716,120.492 95.5,119.5C 97.0709,117.365 98.4043,115.032 99.5,112.5C 100.338,112.158 100.672,111.492 100.5,110.5C 100.833,110.5 101.167,110.5 101.5,110.5C 102.167,110.5 102.5,110.833 102.5,111.5C 102.5,111.833 102.5,112.167 102.5,112.5C 97.6682,121.501 92.3349,130.168 86.5,138.5C 86.5,133.833 86.5,129.167 86.5,124.5C 86.5,121.5 86.5,118.5 86.5,115.5C 86.5,115.167 86.5,114.833 86.5,114.5C 86.5,111.167 86.5,107.833 86.5,104.5C 86.5,102.167 86.5,99.8333 86.5,97.5C 86.19,94.2869 86.5233,91.2869 87.5,88.5 Z"/></g>
<g><path style="opacity:1" fill="#f2ddd9" d="M 86.5,115.5 C 86.5,118.5 86.5,121.5 86.5,124.5C 85.8826,124.611 85.3826,124.944 85,125.5C 82.6985,124.133 80.1985,123.466 77.5,123.5C 74.0867,124.987 70.7533,124.82 67.5,123C 57.117,122.418 46.9503,121.918 37,121.5C 36.0853,122.328 35.4186,123.328 35,124.5C 34.196,123.196 33.0293,122.529 31.5,122.5C 28.5252,123.139 25.5252,123.639 22.5,124C 19.7324,124.708 18.8991,126.208 20,128.5C 19.586,128.043 19.086,127.709 18.5,127.5C 12.1851,128.255 5.85176,128.921 -0.5,129.5C -0.5,127.167 -0.5,124.833 -0.5,122.5C 7.47493,121.801 15.4749,121.301 23.5,121C 23.1667,120.667 22.8333,120.333 22.5,120C 24.2182,119.654 25.8849,119.154 27.5,118.5C 30.8803,119.963 34.047,119.63 37,117.5C 38.3263,118.973 39.8263,119.806 41.5,120C 44.1667,120.167 46.8333,120.333 49.5,120.5C 52.6996,120.399 55.6996,119.732 58.5,118.5C 63.1731,119.669 67.8398,119.503 72.5,118C 72.9574,117.586 73.2907,117.086 73.5,116.5C 77.7828,115.508 82.1161,115.174 86.5,115.5 Z"/></g>
<g><path style="opacity:1" fill="#f7e3dc" d="M 77.5,123.5 C 76.3536,125.767 74.6869,126.434 72.5,125.5C 64.2859,124.308 56.4525,125.641 49,129.5C 48.586,129.043 48.086,128.709 47.5,128.5C 46.7568,129.908 45.9234,131.241 45,132.5C 39.7307,132.612 34.3974,132.279 29,131.5C 25.6905,133.206 22.3572,133.873 19,133.5C 18.8333,133.167 18.6667,132.833 18.5,132.5C 19.5,131.833 20.5,131.167 21.5,130.5C 21.1667,130.167 20.8333,129.833 20.5,129.5C 18.5965,130.26 16.5965,130.26 14.5,129.5C 12.9334,129.477 11.6001,129.977 10.5,131C 12.2464,131.471 13.913,132.138 15.5,133C 10.2506,134.388 4.91726,135.888 -0.5,137.5C -0.5,134.833 -0.5,132.167 -0.5,129.5C 5.85176,128.921 12.1851,128.255 18.5,127.5C 19.086,127.709 19.586,128.043 20,128.5C 18.8991,126.208 19.7324,124.708 22.5,124C 25.5252,123.639 28.5252,123.139 31.5,122.5C 33.0293,122.529 34.196,123.196 35,124.5C 35.4186,123.328 36.0853,122.328 37,121.5C 46.9503,121.918 57.117,122.418 67.5,123C 70.7533,124.82 74.0867,124.987 77.5,123.5 Z"/></g>
<g><path style="opacity:1" fill="#574233" d="M 104.5,110.5 C 105.474,112.085 106.974,113.085 109,113.5C 110.814,112.24 112.647,112.24 114.5,113.5C 113.749,117.195 114.415,117.028 116.5,113C 120.167,113.667 123.833,113.667 127.5,113C 124.637,117.348 121.637,121.515 118.5,125.5C 111.6,125.955 104.6,125.455 97.5,124C 98.2931,122.915 98.9598,121.748 99.5,120.5C 101.624,119.851 103.624,119.017 105.5,118C 104.167,117.667 102.833,117.333 101.5,117C 103.065,115.494 103.399,113.994 102.5,112.5C 102.5,112.167 102.5,111.833 102.5,111.5C 103.167,111.167 103.833,110.833 104.5,110.5 Z"/></g>
<g><path style="opacity:1" fill="#c2aaad" d="M 157.5,72.5 C 157.5,91.5 157.5,110.5 157.5,129.5C 155.806,130.527 154.473,131.861 153.5,133.5C 152.503,116.008 152.17,98.3412 152.5,80.5C 153.669,77.4887 155.336,74.822 157.5,72.5 Z"/></g>
<g><path style="opacity:1" fill="#fce5dc" d="M 72.5,125.5 C 70.2615,126.542 68.0948,127.875 66,129.5C 65.5439,130.744 66.0439,131.577 67.5,132C 65.8988,132.273 64.3988,132.773 63,133.5C 60.38,132.077 57.88,132.243 55.5,134C 56.5,134.333 57.5,134.667 58.5,135C 57.7882,137.881 56.1215,140.048 53.5,141.5C 54.1667,142.167 54.8333,142.833 55.5,143.5C 53.6684,144.057 52.3351,145.057 51.5,146.5C 50.3115,145.952 49.1448,145.619 48,145.5C 47.3333,146.167 46.6667,146.833 46,147.5C 41.8061,146.581 37.4728,147.247 33,149.5C 31.013,148.846 29.6797,147.513 29,145.5C 26.6062,146.136 24.1062,146.136 21.5,145.5C 21.6495,146.552 21.4828,147.552 21,148.5C 20.5814,147.328 19.9147,146.328 19,145.5C 18.2613,146.574 17.2613,147.241 16,147.5C 13.2965,145.352 10.2965,143.685 7,142.5C 6,143.167 5,143.833 4,144.5C 2.57073,144.53 1.07073,144.197 -0.5,143.5C -0.5,141.5 -0.5,139.5 -0.5,137.5C 4.91726,135.888 10.2506,134.388 15.5,133C 13.913,132.138 12.2464,131.471 10.5,131C 11.6001,129.977 12.9334,129.477 14.5,129.5C 16.5965,130.26 18.5965,130.26 20.5,129.5C 20.8333,129.833 21.1667,130.167 21.5,130.5C 20.5,131.167 19.5,131.833 18.5,132.5C 18.6667,132.833 18.8333,133.167 19,133.5C 22.3572,133.873 25.6905,133.206 29,131.5C 34.3974,132.279 39.7307,132.612 45,132.5C 45.9234,131.241 46.7568,129.908 47.5,128.5C 48.086,128.709 48.586,129.043 49,129.5C 56.4525,125.641 64.2859,124.308 72.5,125.5 Z"/></g>
<g><path style="opacity:1" fill="#f9e1d5" d="M 77.5,123.5 C 80.1985,123.466 82.6985,124.133 85,125.5C 85.3826,124.944 85.8826,124.611 86.5,124.5C 86.5,129.167 86.5,133.833 86.5,138.5C 86.5,139.167 86.8333,139.5 87.5,139.5C 94.0869,141.461 101.087,142.128 108.5,141.5C 105.695,142.319 102.695,142.819 99.5,143C 86.5,143.333 73.5,143.667 60.5,144C 59.944,144.383 59.6107,144.883 59.5,145.5C 56.7212,145.279 54.0545,145.612 51.5,146.5C 52.3351,145.057 53.6684,144.057 55.5,143.5C 54.8333,142.833 54.1667,142.167 53.5,141.5C 56.1215,140.048 57.7882,137.881 58.5,135C 57.5,134.667 56.5,134.333 55.5,134C 57.88,132.243 60.38,132.077 63,133.5C 64.3988,132.773 65.8988,132.273 67.5,132C 66.0439,131.577 65.5439,130.744 66,129.5C 68.0948,127.875 70.2615,126.542 72.5,125.5C 74.6869,126.434 76.3536,125.767 77.5,123.5 Z"/></g>
<g><path style="opacity:1" fill="#4c3625" d="M 102.5,112.5 C 103.399,113.994 103.065,115.494 101.5,117C 102.833,117.333 104.167,117.667 105.5,118C 103.624,119.017 101.624,119.851 99.5,120.5C 98.9598,121.748 98.2931,122.915 97.5,124C 104.6,125.455 111.6,125.955 118.5,125.5C 118.167,126.167 117.833,126.833 117.5,127.5C 111.916,127.609 106.416,127.275 101,126.5C 91.3602,129.066 91.3602,131.066 101,132.5C 103.856,132.129 106.689,131.629 109.5,131C 108.289,130.107 108.289,129.274 109.5,128.5C 111.103,129.793 112.769,130.793 114.5,131.5C 114.167,132.167 113.833,132.833 113.5,133.5C 105.913,133.186 98.4129,133.519 91,134.5C 90.6258,135.416 90.1258,136.25 89.5,137C 92.5767,137.26 95.5767,136.76 98.5,135.5C 102.074,136.976 105.741,137.976 109.5,138.5C 109.672,139.492 109.338,140.158 108.5,140.5C 101.412,140.795 94.4122,140.462 87.5,139.5C 86.8333,139.5 86.5,139.167 86.5,138.5C 92.3349,130.168 97.6682,121.501 102.5,112.5 Z"/></g>
<g><path style="opacity:1" fill="#cdb2b0" d="M 136.5,104.5 C 136.667,118.837 136.5,133.171 136,147.5C 135.751,148.624 135.251,149.624 134.5,150.5C 133.501,136.516 133.167,122.516 133.5,108.5C 133.738,106.596 134.738,105.262 136.5,104.5 Z"/></g>
<g><path style="opacity:1" fill="#5e4b3b" d="M 117.5,127.5 C 116.488,128.872 115.488,130.205 114.5,131.5C 112.769,130.793 111.103,129.793 109.5,128.5C 108.289,129.274 108.289,130.107 109.5,131C 106.689,131.629 103.856,132.129 101,132.5C 91.3602,131.066 91.3602,129.066 101,126.5C 106.416,127.275 111.916,127.609 117.5,127.5 Z"/></g>
<g><path style="opacity:1" fill="#cdb1ae" d="M 126.5,117.5 C 127.661,130.994 127.827,144.66 127,158.5C 126.333,159.167 125.667,159.833 125,160.5C 124.5,147.838 124.333,135.171 124.5,122.5C 124.893,120.716 125.559,119.05 126.5,117.5 Z"/></g>
<g><path style="opacity:1" fill="#ccb0ac" d="M 131.5,109.5 C 131.833,109.5 132.167,109.5 132.5,109.5C 132.837,124.867 132.337,140.2 131,155.5C 130.085,156.328 129.419,157.328 129,158.5C 128.5,144.171 128.333,129.837 128.5,115.5C 129.529,113.483 130.529,111.483 131.5,109.5 Z"/></g>
<g><path style="opacity:1" fill="#ccb0af" d="M 140.5,97.5 C 141.827,113.672 141.827,130.005 140.5,146.5C 139.575,145.359 138.741,145.359 138,146.5C 137.5,132.171 137.333,117.837 137.5,103.5C 137.833,102.167 138.167,100.833 138.5,99.5C 139.5,99.1667 140.167,98.5 140.5,97.5 Z"/></g>
<g><path style="opacity:1" fill="#8f7673" d="M 104.5,109.5 C 110.167,109.5 115.833,109.5 121.5,109.5C 124.167,109.5 126.833,109.5 129.5,109.5C 129.938,110.506 130.604,110.506 131.5,109.5C 130.529,111.483 129.529,113.483 128.5,115.5C 127.5,115.833 126.833,116.5 126.5,117.5C 125.559,119.05 124.893,120.716 124.5,122.5C 123.508,122.328 122.842,122.662 122.5,123.5C 121.833,124.833 121.167,126.167 120.5,127.5C 119.5,127.833 118.833,128.5 118.5,129.5C 118.167,130.167 117.833,130.833 117.5,131.5C 116.662,131.842 116.328,132.508 116.5,133.5C 115.026,134.436 114.026,135.77 113.5,137.5C 112.662,137.842 112.328,138.508 112.5,139.5C 107.765,144.632 103.765,150.299 100.5,156.5C 99.5,156.833 98.8333,157.5 98.5,158.5C 97.4884,159.872 96.4884,161.205 95.5,162.5C 94.6618,162.158 94.3284,161.492 94.5,160.5C 98.5597,156.753 100.893,152.086 101.5,146.5C 102.5,149.167 103.5,149.167 104.5,146.5C 94.0224,145.501 83.5224,144.834 73,144.5C 69.0982,144.512 65.5982,145.179 62.5,146.5C 62.5,152.167 62.5,157.833 62.5,163.5C 61.8333,159.167 61.1667,154.833 60.5,150.5C 60.7678,148.901 60.4345,147.568 59.5,146.5C 59.5,146.167 59.5,145.833 59.5,145.5C 59.6107,144.883 59.944,144.383 60.5,144C 73.5,143.667 86.5,143.333 99.5,143C 102.695,142.819 105.695,142.319 108.5,141.5C 108.5,141.167 108.5,140.833 108.5,140.5C 109.338,140.158 109.672,139.492 109.5,138.5C 111.063,137.055 112.396,135.389 113.5,133.5C 113.833,132.833 114.167,132.167 114.5,131.5C 115.488,130.205 116.488,128.872 117.5,127.5C 117.833,126.833 118.167,126.167 118.5,125.5C 121.637,121.515 124.637,117.348 127.5,113C 123.833,113.667 120.167,113.667 116.5,113C 114.415,117.028 113.749,117.195 114.5,113.5C 112.647,112.24 110.814,112.24 109,113.5C 106.974,113.085 105.474,112.085 104.5,110.5C 104.5,110.167 104.5,109.833 104.5,109.5 Z"/></g>
<g><path style="opacity:1" fill="#6e5e4a" d="M 113.5,133.5 C 112.396,135.389 111.063,137.055 109.5,138.5C 105.741,137.976 102.074,136.976 98.5,135.5C 95.5767,136.76 92.5767,137.26 89.5,137C 90.1258,136.25 90.6258,135.416 91,134.5C 98.4129,133.519 105.913,133.186 113.5,133.5 Z"/></g>
<g><path style="opacity:1" fill="#553c34" d="M 157.5,129.5 C 157.5,130.167 157.5,130.833 157.5,131.5C 149.833,140.167 142.167,148.833 134.5,157.5C 140.81,149.519 147.143,141.519 153.5,133.5C 154.473,131.861 155.806,130.527 157.5,129.5 Z"/></g>
<g><path style="opacity:1" fill="#7c5023" d="M 87.5,139.5 C 94.4122,140.462 101.412,140.795 108.5,140.5C 108.5,140.833 108.5,141.167 108.5,141.5C 101.087,142.128 94.0869,141.461 87.5,139.5 Z"/></g>
<g><path style="opacity:1" fill="#cdb0ac" d="M 122.5,123.5 C 123.495,135.989 123.829,148.656 123.5,161.5C 122.5,161.5 121.5,161.5 120.5,161.5C 120.5,150.167 120.5,138.833 120.5,127.5C 121.167,126.167 121.833,124.833 122.5,123.5 Z"/></g>
<g><path style="opacity:1" fill="#5b5651" d="M 94.5,160.5 C 94.5,155.833 94.5,151.167 94.5,146.5C 92.1667,147.833 89.8333,147.833 87.5,146.5C 87.5,154.5 87.5,162.5 87.5,170.5C 86.5009,163.255 86.1676,155.255 86.5,146.5C 78.941,146.697 71.2743,146.697 63.5,146.5C 63.1667,146.5 62.8333,146.5 62.5,146.5C 65.5982,145.179 69.0982,144.512 73,144.5C 83.5224,144.834 94.0224,145.501 104.5,146.5C 103.5,149.167 102.5,149.167 101.5,146.5C 100.893,152.086 98.5597,156.753 94.5,160.5 Z"/></g>
<g><path style="opacity:1" fill="#ccb0ac" d="M 118.5,129.5 C 119.824,140.34 119.824,151.34 118.5,162.5C 117.501,152.188 117.168,141.855 117.5,131.5C 117.833,130.833 118.167,130.167 118.5,129.5 Z"/></g>
<g><path style="opacity:1" fill="#604b43" d="M 157.5,137.5 C 157.5,139.167 157.5,140.833 157.5,142.5C 156.115,143.574 154.949,144.907 154,146.5C 153.5,158.495 153.333,170.495 153.5,182.5C 152.833,182.5 152.5,182.833 152.5,183.5C 152.167,183.5 151.833,183.5 151.5,183.5C 151.667,172.162 151.5,160.828 151,149.5C 149.905,150.693 149.072,152.027 148.5,153.5C 147.833,164.5 147.167,175.5 146.5,186.5C 146.828,175.986 146.494,165.653 145.5,155.5C 145.741,152.001 144.908,151.668 143,154.5C 143.017,152.432 144.017,150.766 146,149.5C 146.333,150.167 146.667,150.833 147,151.5C 147.5,150.333 148.333,149.5 149.5,149C 147.314,148.396 147.148,147.23 149,145.5C 151.749,142.579 154.583,139.912 157.5,137.5 Z"/></g>
<g><path style="opacity:1" fill="#c9ada6" d="M 116.5,133.5 C 116.667,147.171 116.5,160.837 116,174.5C 115.692,173.692 115.192,173.025 114.5,172.5C 113.501,160.852 113.168,149.186 113.5,137.5C 114.026,135.77 115.026,134.436 116.5,133.5 Z"/></g>
<g><path style="opacity:1" fill="#f7e1da" d="M 51.5,146.5 C 54.0545,145.612 56.7212,145.279 59.5,145.5C 59.5,145.833 59.5,146.167 59.5,146.5C 55.7019,152.756 53.0352,159.422 51.5,166.5C 34.1655,166.784 16.8322,167.117 -0.5,167.5C -0.5,159.5 -0.5,151.5 -0.5,143.5C 1.07073,144.197 2.57073,144.53 4,144.5C 5,143.833 6,143.167 7,142.5C 10.2965,143.685 13.2965,145.352 16,147.5C 17.2613,147.241 18.2613,146.574 19,145.5C 19.9147,146.328 20.5814,147.328 21,148.5C 21.4828,147.552 21.6495,146.552 21.5,145.5C 24.1062,146.136 26.6062,146.136 29,145.5C 29.6797,147.513 31.013,148.846 33,149.5C 37.4728,147.247 41.8061,146.581 46,147.5C 46.6667,146.833 47.3333,146.167 48,145.5C 49.1448,145.619 50.3115,145.952 51.5,146.5 Z"/></g>
<g><path style="opacity:1" fill="#919082" d="M 62.5,146.5 C 62.8333,146.5 63.1667,146.5 63.5,146.5C 67.97,147.486 72.6367,147.819 77.5,147.5C 77.5,148.5 77.5,149.5 77.5,150.5C 76.1667,150.5 74.8333,150.5 73.5,150.5C 73.5,160.833 73.5,171.167 73.5,181.5C 72.5,181.5 71.5,181.5 70.5,181.5C 70.3509,172.981 70.6843,164.481 71.5,156C 71.5963,153.625 71.0963,151.459 70,149.5C 69.5002,160.161 69.3335,170.828 69.5,181.5C 68.5,181.5 67.5,181.5 66.5,181.5C 66.1667,137.5 65.8333,137.5 65.5,181.5C 64.5,181.5 63.5,181.5 62.5,181.5C 62.5,175.5 62.5,169.5 62.5,163.5C 62.5,157.833 62.5,152.167 62.5,146.5 Z"/></g>
<g><path style="opacity:1" fill="#bda79e" d="M 157.5,142.5 C 157.5,153.5 157.5,164.5 157.5,175.5C 156.433,177.964 155.1,180.297 153.5,182.5C 153.333,170.495 153.5,158.495 154,146.5C 154.949,144.907 156.115,143.574 157.5,142.5 Z"/></g>
<g><path style="opacity:1" fill="#37221f" d="M 157.5,131.5 C 157.5,133.5 157.5,135.5 157.5,137.5C 154.583,139.912 151.749,142.579 149,145.5C 147.148,147.23 147.314,148.396 149.5,149C 148.333,149.5 147.5,150.333 147,151.5C 146.667,150.833 146.333,150.167 146,149.5C 144.017,150.766 143.017,152.432 143,154.5C 144.908,151.668 145.741,152.001 145.5,155.5C 143.876,155.36 142.71,156.027 142,157.5C 141.667,156.833 141.333,156.167 141,155.5C 131.97,164.862 123.304,174.529 115,184.5C 114.506,186.134 114.34,187.801 114.5,189.5C 114.5,189.833 114.5,190.167 114.5,190.5C 111.833,190.5 109.167,190.5 106.5,190.5C 115.089,178.907 124.423,167.907 134.5,157.5C 142.167,148.833 149.833,140.167 157.5,131.5 Z"/></g>
<g><path style="opacity:1" fill="#6a655c" d="M 94.5,160.5 C 94.3284,161.492 94.6618,162.158 95.5,162.5C 95.1667,163.167 94.8333,163.833 94.5,164.5C 93.8826,164.389 93.3826,164.056 93,163.5C 91.3029,166.02 89.4695,168.353 87.5,170.5C 87.5,162.5 87.5,154.5 87.5,146.5C 89.8333,147.833 92.1667,147.833 94.5,146.5C 94.5,151.167 94.5,155.833 94.5,160.5 Z"/></g>
<g><path style="opacity:1" fill="#725f4d" d="M 59.5,146.5 C 60.4345,147.568 60.7678,148.901 60.5,150.5C 60.5,153.833 60.5,157.167 60.5,160.5C 58.4727,160.338 56.4727,160.505 54.5,161C 54.0426,161.414 53.7093,161.914 53.5,162.5C 55.396,163.466 57.396,163.799 59.5,163.5C 60.1667,163.5 60.5,163.833 60.5,164.5C 58.1667,164.5 55.8333,164.5 53.5,164.5C 53.5,173.167 53.5,181.833 53.5,190.5C 52.8333,190.5 52.1667,190.5 51.5,190.5C 51.5,183.833 51.5,177.167 51.5,170.5C 51.5,169.167 51.5,167.833 51.5,166.5C 53.0352,159.422 55.7019,152.756 59.5,146.5 Z"/></g>
<g><path style="opacity:1" fill="#bca69f" d="M 151.5,183.5 C 150.85,183.804 150.183,184.137 149.5,184.5C 148.501,174.188 148.168,163.855 148.5,153.5C 149.072,152.027 149.905,150.693 151,149.5C 151.5,160.828 151.667,172.162 151.5,183.5 Z"/></g>
<g><path style="opacity:1" fill="#867e60" d="M 60.5,160.5 C 60.4431,161.609 60.1098,162.609 59.5,163.5C 57.396,163.799 55.396,163.466 53.5,162.5C 53.7093,161.914 54.0426,161.414 54.5,161C 56.4727,160.505 58.4727,160.338 60.5,160.5 Z"/></g>
<g><path style="opacity:1" fill="#76766a" d="M 63.5,146.5 C 71.2743,146.697 78.941,146.697 86.5,146.5C 86.1676,155.255 86.5009,163.255 87.5,170.5C 89.4695,168.353 91.3029,166.02 93,163.5C 93.3826,164.056 93.8826,164.389 94.5,164.5C 90.1077,170.228 86.1077,176.228 82.5,182.5C 82.1667,182.5 81.8333,182.5 81.5,182.5C 74.9779,182.823 68.6446,182.49 62.5,181.5C 63.5,181.5 64.5,181.5 65.5,181.5C 65.8333,137.5 66.1667,137.5 66.5,181.5C 67.5,181.5 68.5,181.5 69.5,181.5C 69.3335,170.828 69.5002,160.161 70,149.5C 71.0963,151.459 71.5963,153.625 71.5,156C 70.6843,164.481 70.3509,172.981 70.5,181.5C 71.5,181.5 72.5,181.5 73.5,181.5C 73.5,171.167 73.5,160.833 73.5,150.5C 74.8333,150.5 76.1667,150.5 77.5,150.5C 77.5,149.5 77.5,148.5 77.5,147.5C 72.6367,147.819 67.97,147.486 63.5,146.5 Z"/></g>
<g><path style="opacity:1" fill="#8b7e8c" d="M 148.5,153.5 C 148.168,163.855 148.501,174.188 149.5,184.5C 150.183,184.137 150.85,183.804 151.5,183.5C 151.833,183.5 152.167,183.5 152.5,183.5C 151.421,185.543 149.754,186.876 147.5,187.5C 146.833,187.5 146.5,187.167 146.5,186.5C 147.167,175.5 147.833,164.5 148.5,153.5 Z"/></g>
<g><path style="opacity:1" fill="#b49995" d="M 152.5,80.5 C 152.17,98.3412 152.503,116.008 153.5,133.5C 147.143,141.519 140.81,149.519 134.5,157.5C 124.423,167.907 115.089,178.907 106.5,190.5C 102.167,190.5 97.8333,190.5 93.5,190.5C 93.3342,185.821 93.5008,181.155 94,176.5C 95.2002,186.85 96.2002,186.516 97,175.5C 98.016,176.634 98.6827,176.301 99,174.5C 99.8174,168.984 99.6507,163.65 98.5,158.5C 98.8333,157.5 99.5,156.833 100.5,156.5C 100.334,163.175 100.5,169.842 101,176.5C 101.333,176.167 101.667,175.833 102,175.5C 102.333,178.833 102.667,182.167 103,185.5C 103.414,185.957 103.914,186.291 104.5,186.5C 105.329,181.198 105.829,175.864 106,170.5C 106.171,175.533 106.671,180.533 107.5,185.5C 108.331,178.524 108.831,171.524 109,164.5C 109.499,168.821 109.666,173.154 109.5,177.5C 110.5,177.5 111.5,177.5 112.5,177.5C 112.5,164.833 112.5,152.167 112.5,139.5C 112.328,138.508 112.662,137.842 113.5,137.5C 113.168,149.186 113.501,160.852 114.5,172.5C 115.192,173.025 115.692,173.692 116,174.5C 116.5,160.837 116.667,147.171 116.5,133.5C 116.328,132.508 116.662,131.842 117.5,131.5C 117.168,141.855 117.501,152.188 118.5,162.5C 119.824,151.34 119.824,140.34 118.5,129.5C 118.833,128.5 119.5,127.833 120.5,127.5C 120.5,138.833 120.5,150.167 120.5,161.5C 121.5,161.5 122.5,161.5 123.5,161.5C 123.829,148.656 123.495,135.989 122.5,123.5C 122.842,122.662 123.508,122.328 124.5,122.5C 124.333,135.171 124.5,147.838 125,160.5C 125.667,159.833 126.333,159.167 127,158.5C 127.827,144.66 127.661,130.994 126.5,117.5C 126.833,116.5 127.5,115.833 128.5,115.5C 128.333,129.837 128.5,144.171 129,158.5C 129.419,157.328 130.085,156.328 131,155.5C 132.337,140.2 132.837,124.867 132.5,109.5C 132.5,108.833 132.833,108.5 133.5,108.5C 133.167,122.516 133.501,136.516 134.5,150.5C 135.251,149.624 135.751,148.624 136,147.5C 136.5,133.171 136.667,118.837 136.5,104.5C 136.5,103.833 136.833,103.5 137.5,103.5C 137.333,117.837 137.5,132.171 138,146.5C 138.741,145.359 139.575,145.359 140.5,146.5C 141.827,130.005 141.827,113.672 140.5,97.5C 140.833,96.5 141.5,95.8333 142.5,95.5C 142.333,110.837 142.5,126.17 143,141.5C 143.689,140.643 144.522,139.977 145.5,139.5C 146.827,123.005 146.827,106.672 145.5,90.5C 145.427,88.9731 146.094,87.9731 147.5,87.5C 147.333,103.837 147.5,120.17 148,136.5C 149,135.167 150,133.833 151,132.5C 151.828,115.662 151.662,98.9949 150.5,82.5C 150.833,81.5 151.5,80.8333 152.5,80.5 Z"/></g>
<g><path style="opacity:1" fill="#b7a29d" d="M 142.5,189.5 C 142.5,189.833 142.5,190.167 142.5,190.5C 141.167,190.5 139.833,190.5 138.5,190.5C 138.334,181.494 138.5,172.494 139,163.5C 139.419,162.328 140.085,161.328 141,160.5C 141.17,170.342 141.67,180.009 142.5,189.5 Z"/></g>
<g><path style="opacity:1" fill="#e5d2d3" d="M 51.5,166.5 C 51.5,167.833 51.5,169.167 51.5,170.5C 34.4967,170.333 17.4967,170.5 0.5,171C 17.2321,171.638 33.8988,172.971 50.5,175C 48.4304,176.694 46.2638,176.861 44,175.5C 42.6693,176.996 41.1693,178.329 39.5,179.5C 38.8333,179.167 38.1667,178.833 37.5,178.5C 25.7052,179.147 14.0385,179.814 2.5,180.5C 1.68729,178.739 0.687286,177.072 -0.5,175.5C -0.5,172.833 -0.5,170.167 -0.5,167.5C 16.8322,167.117 34.1655,166.784 51.5,166.5 Z"/></g>
<g><path style="opacity:1" fill="#ad9b9a" d="M 145.5,155.5 C 146.494,165.653 146.828,175.986 146.5,186.5C 146.5,187.167 146.833,187.5 147.5,187.5C 146.22,188.931 144.553,189.598 142.5,189.5C 142.334,179.161 142.5,168.828 143,158.5C 144.045,157.627 144.878,156.627 145.5,155.5 Z"/></g>
<g><path style="opacity:1" fill="#c4a8a2" d="M 112.5,139.5 C 112.5,152.167 112.5,164.833 112.5,177.5C 111.5,177.5 110.5,177.5 109.5,177.5C 109.666,173.154 109.499,168.821 109,164.5C 108.831,171.524 108.331,178.524 107.5,185.5C 106.671,180.533 106.171,175.533 106,170.5C 105.829,175.864 105.329,181.198 104.5,186.5C 103.914,186.291 103.414,185.957 103,185.5C 102.667,182.167 102.333,178.833 102,175.5C 101.667,175.833 101.333,176.167 101,176.5C 100.5,169.842 100.334,163.175 100.5,156.5C 103.765,150.299 107.765,144.632 112.5,139.5 Z"/></g>
<g><path style="opacity:1" fill="#8e9083" d="M 75.5,162.5 C 77.4563,168.412 78.1229,174.745 77.5,181.5C 76.5,181.5 75.5,181.5 74.5,181.5C 74.2946,175.122 74.6279,168.789 75.5,162.5 Z"/></g>
<g><path style="opacity:1" fill="#4d3a34" d="M 145.5,155.5 C 144.878,156.627 144.045,157.627 143,158.5C 142.5,168.828 142.334,179.161 142.5,189.5C 141.67,180.009 141.17,170.342 141,160.5C 140.085,161.328 139.419,162.328 139,163.5C 138.5,172.494 138.334,181.494 138.5,190.5C 138.167,190.5 137.833,190.5 137.5,190.5C 137.666,182.16 137.5,173.827 137,165.5C 136,166.5 135,167.5 134,168.5C 133.5,175.826 133.334,183.159 133.5,190.5C 133.167,190.5 132.833,190.5 132.5,190.5C 132.666,183.825 132.5,177.158 132,170.5C 131.085,171.328 130.419,172.328 130,173.5C 129.501,179.157 129.334,184.824 129.5,190.5C 129.167,190.5 128.833,190.5 128.5,190.5C 128.666,185.489 128.499,180.489 128,175.5C 127.333,176.167 126.667,176.833 126,177.5C 125.501,181.821 125.334,186.154 125.5,190.5C 125.167,190.5 124.833,190.5 124.5,190.5C 124.665,186.818 124.499,183.152 124,179.5C 121.791,182.789 120.958,186.456 121.5,190.5C 121.167,190.5 120.833,190.5 120.5,190.5C 120.662,188.473 120.495,186.473 120,184.5C 118.296,186.373 116.463,188.04 114.5,189.5C 114.34,187.801 114.506,186.134 115,184.5C 123.304,174.529 131.97,164.862 141,155.5C 141.333,156.167 141.667,156.833 142,157.5C 142.71,156.027 143.876,155.36 145.5,155.5 Z"/></g>
<g><path style="opacity:1" fill="#a9948f" d="M 137.5,190.5 C 136.167,190.5 134.833,190.5 133.5,190.5C 133.334,183.159 133.5,175.826 134,168.5C 135,167.5 136,166.5 137,165.5C 137.5,173.827 137.666,182.16 137.5,190.5 Z"/></g>
<g><path style="opacity:1" fill="#fefdfd" d="M -0.5,175.5 C 0.687286,177.072 1.68729,178.739 2.5,180.5C 3.20261,182.716 4.53594,184.549 6.5,186C 9.09926,187.795 11.7659,189.295 14.5,190.5C 9.5,190.5 4.5,190.5 -0.5,190.5C -0.5,185.5 -0.5,180.5 -0.5,175.5 Z"/></g>
<g><path style="opacity:1" fill="#fcfbfb" d="M 157.5,175.5 C 157.5,180.5 157.5,185.5 157.5,190.5C 152.5,190.5 147.5,190.5 142.5,190.5C 142.5,190.167 142.5,189.833 142.5,189.5C 144.553,189.598 146.22,188.931 147.5,187.5C 149.754,186.876 151.421,185.543 152.5,183.5C 152.5,182.833 152.833,182.5 153.5,182.5C 155.1,180.297 156.433,177.964 157.5,175.5 Z"/></g>
<g><path style="opacity:1" fill="#c6aba7" d="M 98.5,158.5 C 99.6507,163.65 99.8174,168.984 99,174.5C 98.6827,176.301 98.016,176.634 97,175.5C 96.2002,186.516 95.2002,186.85 94,176.5C 93.5008,181.155 93.3342,185.821 93.5,190.5C 93.1667,190.5 92.8333,190.5 92.5,190.5C 92.6662,184.158 92.4995,177.825 92,171.5C 90.7313,175.649 90.0646,179.982 90,184.5C 87.676,185.105 85.3427,185.772 83,186.5C 82.51,185.207 82.3433,183.873 82.5,182.5C 86.1077,176.228 90.1077,170.228 94.5,164.5C 94.8333,163.833 95.1667,163.167 95.5,162.5C 96.4884,161.205 97.4884,159.872 98.5,158.5 Z"/></g>
<g><path style="opacity:1" fill="#b09d9a" d="M 132.5,190.5 C 131.5,190.5 130.5,190.5 129.5,190.5C 129.334,184.824 129.501,179.157 130,173.5C 130.419,172.328 131.085,171.328 132,170.5C 132.5,177.158 132.666,183.825 132.5,190.5 Z"/></g>
<g><path style="opacity:1" fill="#d7c8ce" d="M 51.5,170.5 C 51.5,177.167 51.5,183.833 51.5,190.5C 39.1667,190.5 26.8333,190.5 14.5,190.5C 11.7659,189.295 9.09926,187.795 6.5,186C 4.53594,184.549 3.20261,182.716 2.5,180.5C 14.0385,179.814 25.7052,179.147 37.5,178.5C 38.1667,178.833 38.8333,179.167 39.5,179.5C 41.1693,178.329 42.6693,176.996 44,175.5C 46.2638,176.861 48.4304,176.694 50.5,175C 33.8988,172.971 17.2321,171.638 0.5,171C 17.4967,170.5 34.4967,170.333 51.5,170.5 Z"/></g>
<g><path style="opacity:1" fill="#725d56" d="M 60.5,150.5 C 61.1667,154.833 61.8333,159.167 62.5,163.5C 62.5,169.5 62.5,175.5 62.5,181.5C 68.6446,182.49 74.9779,182.823 81.5,182.5C 80.1667,185.167 78.8333,187.833 77.5,190.5C 76.8333,190.5 76.1667,190.5 75.5,190.5C 75.7031,188.956 76.3698,187.622 77.5,186.5C 76.3493,185.269 75.1827,185.269 74,186.5C 69.4355,186.133 65.1022,185.133 61,183.5C 59.8068,185.886 58.6401,188.22 57.5,190.5C 56.8333,190.5 56.1667,190.5 55.5,190.5C 60.1202,182.505 61.7869,173.838 60.5,164.5C 60.5,163.833 60.1667,163.5 59.5,163.5C 60.1098,162.609 60.4431,161.609 60.5,160.5C 60.5,157.167 60.5,153.833 60.5,150.5 Z"/></g>
<g><path style="opacity:1" fill="#b19d9a" d="M 128.5,190.5 C 127.5,190.5 126.5,190.5 125.5,190.5C 125.334,186.154 125.501,181.821 126,177.5C 126.667,176.833 127.333,176.167 128,175.5C 128.499,180.489 128.666,185.489 128.5,190.5 Z"/></g>
<g><path style="opacity:1" fill="#ac9893" d="M 124.5,190.5 C 123.5,190.5 122.5,190.5 121.5,190.5C 120.958,186.456 121.791,182.789 124,179.5C 124.499,183.152 124.665,186.818 124.5,190.5 Z"/></g>
<g><path style="opacity:1" fill="#b9afa5" d="M 60.5,164.5 C 61.7869,173.838 60.1202,182.505 55.5,190.5C 54.8333,190.5 54.1667,190.5 53.5,190.5C 53.5,181.833 53.5,173.167 53.5,164.5C 55.8333,164.5 58.1667,164.5 60.5,164.5 Z"/></g>
<g><path style="opacity:1" fill="#453428" d="M 75.5,190.5 C 69.5,190.5 63.5,190.5 57.5,190.5C 58.6401,188.22 59.8068,185.886 61,183.5C 65.1022,185.133 69.4355,186.133 74,186.5C 75.1827,185.269 76.3493,185.269 77.5,186.5C 76.3698,187.622 75.7031,188.956 75.5,190.5 Z"/></g>
<g><path style="opacity:1" fill="#aa979c" d="M 92.5,190.5 C 87.5,190.5 82.5,190.5 77.5,190.5C 78.8333,187.833 80.1667,185.167 81.5,182.5C 81.8333,182.5 82.1667,182.5 82.5,182.5C 82.3433,183.873 82.51,185.207 83,186.5C 85.3427,185.772 87.676,185.105 90,184.5C 90.0646,179.982 90.7313,175.649 92,171.5C 92.4995,177.825 92.6662,184.158 92.5,190.5 Z"/></g>
<g><path style="opacity:1" fill="#89797b" d="M 120.5,190.5 C 118.5,190.5 116.5,190.5 114.5,190.5C 114.5,190.167 114.5,189.833 114.5,189.5C 116.463,188.04 118.296,186.373 120,184.5C 120.495,186.473 120.662,188.473 120.5,190.5 Z"/></g>
</svg>
