<svg width="24" height="24" viewBox="0 0 24 24" fill="none" xmlns="http://www.w3.org/2000/svg">
<g clip-path="url(#clip0_11_230)">
<path d="M23.5396 11.8467C23.5396 5.38335 18.2987 0.143799 11.8338 0.143799C5.36881 0.143799 0.12793 5.38335 0.12793 11.8467C0.12793 17.6878 4.40856 22.5294 10.0047 23.4074V15.2295H7.03254V11.8467H10.0047V9.26839C10.0047 6.33535 11.7524 4.71523 14.4262 4.71523C15.7065 4.71523 17.0465 4.94381 17.0465 4.94381V7.82381H15.5705C14.1164 7.82381 13.6628 8.72598 13.6628 9.65239V11.8467H16.9093L16.3903 15.2295H13.6628V23.4074C19.259 22.5294 23.5396 17.6878 23.5396 11.8467Z" fill="#1877F2"/>
<path d="M16.39 15.2295L16.909 11.8466H13.6625V9.65236C13.6625 8.72687 14.1161 7.82379 15.5702 7.82379H17.0462V4.94378C17.0462 4.94378 15.7067 4.71521 14.4259 4.71521C11.7521 4.71521 10.0044 6.33533 10.0044 9.26836V11.8466H7.03223V15.2295H10.0044V23.4074C11.2164 23.5969 12.4505 23.5969 13.6625 23.4074V15.2295H16.39Z" fill="white"/>
</g>
<defs>
<clipPath id="clip0_11_230">
<rect width="23.4117" height="23.4058" fill="white" transform="translate(0.12793 0.143799)"/>
</clipPath>
</defs>
</svg>
