<svg width="24" height="24" viewBox="0 0 24 24" fill="none" xmlns="http://www.w3.org/2000/svg">
<g clip-path="url(#clip0_11_232)">
<path d="M12.2507 2.25123C15.3784 2.25123 15.7488 2.26494 16.9788 2.3198C18.122 2.37009 18.7393 2.56209 19.1508 2.72209C19.6949 2.93237 20.0882 3.18837 20.4951 3.59523C20.9067 4.00666 21.1582 4.39523 21.3685 4.93923C21.5285 5.35066 21.7206 5.97238 21.7709 7.11066C21.8257 8.34495 21.8395 8.71524 21.8395 11.8375C21.8395 14.9644 21.8257 15.3347 21.7709 16.5644C21.7206 17.7073 21.5285 18.3244 21.3685 18.7358C21.1582 19.2798 20.9021 19.673 20.4951 20.0798C20.0836 20.4913 19.6949 20.7427 19.1508 20.953C18.7393 21.113 18.1174 21.305 16.9788 21.3553C15.7442 21.4101 15.3738 21.4238 12.2507 21.4238C9.1231 21.4238 8.75272 21.4101 7.52269 21.3553C6.37955 21.305 5.76225 21.113 5.35071 20.953C4.80657 20.7427 4.41333 20.4867 4.00637 20.0798C3.59484 19.6684 3.34335 19.2798 3.13301 18.7358C2.97297 18.3244 2.78092 17.7027 2.73062 16.5644C2.67575 15.3301 2.66203 14.9598 2.66203 11.8375C2.66203 8.71067 2.67575 8.34038 2.73062 7.11066C2.78092 5.96781 2.97297 5.35066 3.13301 4.93923C3.34335 4.39523 3.59941 4.00209 4.00637 3.59523C4.4179 3.1838 4.80657 2.93237 5.35071 2.72209C5.76225 2.56209 6.38412 2.37009 7.52269 2.3198C8.75272 2.26494 9.1231 2.25123 12.2507 2.25123ZM12.2507 0.143799C9.0728 0.143799 8.67498 0.157513 7.42667 0.21237C6.18292 0.267228 5.32785 0.468371 4.58709 0.756371C3.81432 1.05809 3.16044 1.4558 2.51114 2.10952C1.85725 2.75866 1.45944 3.41238 1.15765 4.18038C0.869576 4.92552 0.668382 5.77581 0.613511 7.01924C0.55864 8.27181 0.544922 8.66952 0.544922 11.8467C0.544922 15.0238 0.55864 15.4215 0.613511 16.6695C0.668382 17.913 0.869576 18.7678 1.15765 19.5084C1.45944 20.281 1.85725 20.9347 2.51114 21.5838C3.16044 22.233 3.81432 22.6353 4.58252 22.9324C5.32785 23.2204 6.17835 23.4215 7.42209 23.4764C8.67041 23.5313 9.06823 23.545 12.2462 23.545C15.4241 23.545 15.8219 23.5313 17.0703 23.4764C18.314 23.4215 19.1691 23.2204 19.9098 22.9324C20.678 22.6353 21.3319 22.233 21.9812 21.5838C22.6305 20.9347 23.0329 20.281 23.3301 19.513C23.6182 18.7678 23.8194 17.9175 23.8743 16.6741C23.9291 15.4261 23.9429 15.0284 23.9429 11.8512C23.9429 8.6741 23.9291 8.27638 23.8743 7.02838C23.8194 5.78495 23.6182 4.93009 23.3301 4.18952C23.0421 3.41237 22.6442 2.75866 21.9904 2.10952C21.3411 1.46037 20.6872 1.05809 19.919 0.760943C19.1736 0.472942 18.3231 0.271799 17.0794 0.216942C15.8265 0.157513 15.4287 0.143799 12.2507 0.143799Z" fill="#EC3397"/>
<path d="M12.2512 5.83521C8.93154 5.83521 6.23828 8.52778 6.23828 11.8466C6.23828 15.1655 8.93154 17.8581 12.2512 17.8581C15.5709 17.8581 18.2642 15.1655 18.2642 11.8466C18.2642 8.52778 15.5709 5.83521 12.2512 5.83521ZM12.2512 15.7461C10.0975 15.7461 8.35082 13.9998 8.35082 11.8466C8.35082 9.6935 10.0975 7.94721 12.2512 7.94721C14.4049 7.94721 16.1517 9.6935 16.1517 11.8466C16.1517 13.9998 14.4049 15.7461 12.2512 15.7461Z" fill="#EC3397"/>
<path d="M19.9052 5.59753C19.9052 6.37467 19.2742 7.00096 18.5014 7.00096C17.7241 7.00096 17.0977 6.3701 17.0977 5.59753C17.0977 4.82038 17.7287 4.19409 18.5014 4.19409C19.2742 4.19409 19.9052 4.82495 19.9052 5.59753Z" fill="#EC3397"/>
</g>
<defs>
<clipPath id="clip0_11_232">
<rect width="23.4117" height="23.4058" fill="white" transform="translate(0.544922 0.143799)"/>
</clipPath>
</defs>
</svg>
