<svg width="25" height="24" viewBox="0 0 25 24" fill="none" xmlns="http://www.w3.org/2000/svg">
<g clip-path="url(#clip0_11_233)">
<path d="M22.4364 0.143799H2.48117C2.02281 0.143799 1.58323 0.325835 1.25912 0.64986C0.935011 0.973885 0.75293 1.41336 0.75293 1.8716V21.8217C0.75293 22.28 0.935011 22.7195 1.25912 23.0435C1.58323 23.3675 2.02281 23.5495 2.48117 23.5495H22.4364C22.8947 23.5495 23.3343 23.3675 23.6584 23.0435C23.9825 22.7195 24.1646 22.28 24.1646 21.8217V1.8716C24.1646 1.41336 23.9825 0.973885 23.6584 0.64986C23.3343 0.325835 22.8947 0.143799 22.4364 0.143799ZM7.73091 20.0826H4.21103V8.9047H7.73091V20.0826ZM5.96853 7.3557C5.56926 7.35345 5.1796 7.23301 4.84874 7.00957C4.51787 6.78614 4.26062 6.46972 4.10946 6.10026C3.95829 5.7308 3.91999 5.32485 3.99938 4.93364C4.07877 4.54244 4.27229 4.18351 4.55553 3.90216C4.83876 3.62081 5.19901 3.42964 5.59082 3.35279C5.98263 3.27593 6.38842 3.31683 6.757 3.47033C7.12558 3.62382 7.44041 3.88303 7.66178 4.21524C7.88314 4.54745 8.00111 4.93778 8.00079 5.33695C8.00456 5.6042 7.95447 5.86947 7.8535 6.11695C7.75254 6.36443 7.60277 6.58906 7.41313 6.77744C7.22348 6.96583 6.99784 7.11411 6.74966 7.21346C6.50147 7.3128 6.23581 7.36118 5.96853 7.3557ZM20.7049 20.0923H17.1866V13.9857C17.1866 12.1848 16.4209 11.6289 15.4324 11.6289C14.3886 11.6289 13.3643 12.4156 13.3643 14.0312V20.0923H9.84446V8.91283H13.2294V10.4618H13.2749C13.6147 9.77429 14.8048 8.59913 16.6208 8.59913C18.5848 8.59913 20.7065 9.76454 20.7065 13.1779L20.7049 20.0923Z" fill="#0A66C2"/>
</g>
<defs>
<clipPath id="clip0_11_233">
<rect width="23.4117" height="23.4058" fill="white" transform="translate(0.75293 0.143799)"/>
</clipPath>
</defs>
</svg>
