<svg width="24" height="24" viewBox="0 0 24 24" fill="none" xmlns="http://www.w3.org/2000/svg">
<g clip-path="url(#clip0_11_231)">
<path d="M7.69941 21.3559C16.534 21.3559 21.3662 14.0383 21.3662 7.69258C21.3662 7.48473 21.3662 7.27783 21.3522 7.07186C22.2922 6.39207 23.1037 5.55037 23.7486 4.58616C22.872 4.9747 21.942 5.22939 20.9897 5.3417C21.9925 4.74163 22.743 3.79768 23.1015 2.68562C22.1586 3.24502 21.1271 3.63923 20.0514 3.85122C19.3272 3.08135 18.3694 2.57155 17.3262 2.40073C16.283 2.22991 15.2125 2.40759 14.2805 2.90627C13.3484 3.40494 12.6068 4.19682 12.1703 5.15936C11.7338 6.1219 11.6267 7.20143 11.8658 8.23091C9.95608 8.13514 8.08789 7.63897 6.38244 6.77461C4.677 5.91024 3.17242 4.69701 1.96637 3.21365C1.35213 4.27081 1.164 5.52226 1.44029 6.71322C1.71657 7.90418 2.43649 8.94509 3.45347 9.62402C2.68904 9.60163 1.94124 9.39546 1.27338 9.02296V9.08381C1.27368 10.1925 1.65758 11.267 2.35995 12.125C3.06232 12.983 4.03992 13.5716 5.12694 13.7912C4.41979 13.984 3.67783 14.0122 2.95808 13.8736C3.26514 14.8277 3.86274 15.662 4.66733 16.2599C5.47192 16.8578 6.44329 17.1895 7.44563 17.2084C6.44974 17.991 5.30927 18.5697 4.08949 18.9112C2.8697 19.2527 1.59452 19.3505 0.336914 19.1988C2.53355 20.6081 5.08941 21.3556 7.69941 21.3522" fill="#1DA1F2"/>
</g>
<defs>
<clipPath id="clip0_11_231">
<rect width="23.4117" height="23.4058" fill="white" transform="translate(0.336914 0.143799)"/>
</clipPath>
</defs>
</svg>
